<svg width="206" height="75" viewBox="0 0 206 75" fill="none" xmlns="http://www.w3.org/2000/svg">
<g filter="url(#filter0_d_135_41)">
<path d="M4 25C4 11.1929 15.1929 0 29 0H177C190.807 0 202 11.1929 202 25V38C202 51.8071 190.807 63 177 63H29C15.1929 63 4 51.8071 4 38V25Z" fill="#901D6B"/>
</g>
<path d="M4 75V22L26 62.8857L4 75Z" fill="#901D6B"/>
<path d="M30.3358 43L39.4238 20.792H41.5998L50.6558 43H47.3918L39.9358 24.216H41.0558L33.5358 43H30.3358ZM34.6558 37.976V35.352H46.3358V37.976H34.6558ZM56.073 43V21.432H58.953V43H56.073ZM52.329 30.424V27.8H71.753V30.424H52.329ZM65.129 43V21.432H68.009V43H65.129ZM74.6128 43V27.8H77.4928V43H74.6128ZM76.0528 24.76C75.5194 24.76 75.0821 24.5893 74.7408 24.248C74.3994 23.8853 74.2288 23.4373 74.2288 22.904C74.2288 22.392 74.3994 21.9653 74.7408 21.624C75.0821 21.2613 75.5194 21.08 76.0528 21.08C76.5861 21.08 77.0234 21.2613 77.3648 21.624C77.7061 21.9653 77.8768 22.392 77.8768 22.904C77.8768 23.4373 77.7061 23.8853 77.3648 24.248C77.0234 24.5893 76.5861 24.76 76.0528 24.76ZM86.953 43L79.977 27.8H83.177L88.777 40.632H86.921L92.553 27.8H95.625L88.649 43H86.953ZM103.982 43.32C102.596 43.32 101.337 42.9787 100.206 42.296C99.0756 41.592 98.1796 40.6427 97.5182 39.448C96.8783 38.2533 96.5583 36.9093 96.5583 35.416C96.5583 33.9227 96.8783 32.5787 97.5182 31.384C98.1796 30.1893 99.0649 29.24 100.174 28.536C101.305 27.832 102.574 27.48 103.982 27.48C105.134 27.48 106.158 27.7253 107.054 28.216C107.972 28.6853 108.708 29.3467 109.262 30.2C109.817 31.032 110.126 32.0027 110.19 33.112V37.688C110.126 38.776 109.817 39.7467 109.262 40.6C108.729 41.4533 108.004 42.1253 107.086 42.616C106.19 43.0853 105.156 43.32 103.982 43.32ZM104.462 40.6C105.892 40.6 107.044 40.12 107.918 39.16C108.793 38.1787 109.23 36.9307 109.23 35.416C109.23 34.3707 109.028 33.464 108.622 32.696C108.238 31.9067 107.684 31.2987 106.958 30.872C106.233 30.424 105.39 30.2 104.43 30.2C103.47 30.2 102.617 30.424 101.87 30.872C101.145 31.32 100.569 31.9387 100.142 32.728C99.7369 33.496 99.5343 34.3813 99.5343 35.384C99.5343 36.408 99.7369 37.3147 100.142 38.104C100.569 38.872 101.156 39.48 101.902 39.928C102.649 40.376 103.502 40.6 104.462 40.6ZM109.038 43V38.904L109.582 35.192L109.038 31.512V27.8H111.95V43H109.038ZM133.552 43V34.136C133.552 32.984 133.189 32.0347 132.464 31.288C131.738 30.5413 130.8 30.168 129.648 30.168C128.88 30.168 128.197 30.3387 127.6 30.68C127.002 31.0213 126.533 31.4907 126.192 32.088C125.85 32.6853 125.68 33.368 125.68 34.136L124.496 33.464C124.496 32.312 124.752 31.288 125.264 30.392C125.776 29.496 126.49 28.792 127.408 28.28C128.325 27.7467 129.36 27.48 130.512 27.48C131.664 27.48 132.677 27.736 133.552 28.248C134.448 28.76 135.152 29.4747 135.664 30.392C136.176 31.3093 136.432 32.3653 136.432 33.56V43H133.552ZM122.799 43V20.152H125.68V43H122.799ZM139.275 41.176L147.467 32.536C148.299 31.6827 148.949 30.9467 149.419 30.328C149.888 29.688 150.219 29.1013 150.411 28.568C150.624 28.0347 150.731 27.48 150.731 26.904C150.731 25.7733 150.368 24.888 149.643 24.248C148.917 23.608 147.979 23.288 146.827 23.288C145.696 23.288 144.704 23.5653 143.851 24.12C142.997 24.6533 142.24 25.4853 141.579 26.616L139.467 24.856C140.341 23.4053 141.397 22.3173 142.635 21.592C143.872 20.8453 145.301 20.472 146.923 20.472C148.288 20.472 149.472 20.7387 150.475 21.272C151.499 21.8053 152.288 22.552 152.843 23.512C153.397 24.472 153.675 25.592 153.675 26.872C153.675 27.7893 153.557 28.6107 153.323 29.336C153.109 30.0613 152.715 30.808 152.139 31.576C151.584 32.3227 150.805 33.2187 149.803 34.264L143.179 41.08L139.275 41.176ZM139.275 43V41.176L141.835 40.312H154.187V43H139.275ZM156.587 35.352L164.683 20.792H168.075L159.819 35.352H156.587ZM156.587 37.208V35.352L157.867 34.52H173.611V37.208H156.587ZM167.435 43V28.312H170.411V43H167.435Z" fill="white"/>
<defs>
<filter id="filter0_d_135_41" x="0" y="0" width="206" height="71" filterUnits="userSpaceOnUse" color-interpolation-filters="sRGB">
<feFlood flood-opacity="0" result="BackgroundImageFix"/>
<feColorMatrix in="SourceAlpha" type="matrix" values="0 0 0 0 0 0 0 0 0 0 0 0 0 0 0 0 0 0 127 0" result="hardAlpha"/>
<feOffset dy="4"/>
<feGaussianBlur stdDeviation="2"/>
<feComposite in2="hardAlpha" operator="out"/>
<feColorMatrix type="matrix" values="0 0 0 0 0 0 0 0 0 0 0 0 0 0 0 0 0 0 0.25 0"/>
<feBlend mode="normal" in2="BackgroundImageFix" result="effect1_dropShadow_135_41"/>
<feBlend mode="normal" in="SourceGraphic" in2="effect1_dropShadow_135_41" result="shape"/>
</filter>
</defs>
</svg>