<svg width="368" height="350" viewBox="0 0 368 350" fill="none" xmlns="http://www.w3.org/2000/svg">
<g clip-path="url(#clip0_307_876)">
<rect width="368" height="350" rx="50" fill="white"/>
<rect width="368" height="350" rx="50" transform="matrix(-1 0 0 1 368 0)" fill="url(#paint0_radial_307_876)"/>
<path d="M41.28 215V187.24H45.04V215H41.28ZM43.84 215V211.56H59.76V215H43.84ZM43.84 202.44V199.16H58.44V202.44H43.84ZM43.84 190.68V187.24H59.56V190.68H43.84ZM66.9538 215V193.92C66.9538 192.453 67.2604 191.173 67.8738 190.08C68.5138 188.96 69.3938 188.08 70.5138 187.44C71.6338 186.773 72.9271 186.44 74.3938 186.44C75.8871 186.44 77.1138 186.76 78.0738 187.4C79.0338 188.04 79.7404 188.92 80.1938 190.04C80.6738 191.133 80.9138 192.387 80.9138 193.8L78.2738 193.76C78.2471 192.533 77.9138 191.56 77.2738 190.84C76.6338 190.093 75.6738 189.72 74.3938 189.72C73.1404 189.72 72.1804 190.093 71.5138 190.84C70.8738 191.56 70.5538 192.56 70.5538 193.84V215H66.9538ZM62.2738 199.28V196H87.9138V199.28H62.2738ZM78.2738 215V193.16C78.2738 191.747 78.5804 190.52 79.1938 189.48C79.8071 188.413 80.6471 187.573 81.7138 186.96C82.8071 186.347 84.0738 186.04 85.5138 186.04C86.6071 186.04 87.5538 186.227 88.3538 186.6C89.1538 186.973 89.8871 187.52 90.5538 188.24L88.1938 190.56C87.8471 190.187 87.4604 189.907 87.0338 189.72C86.6071 189.507 86.0871 189.4 85.4738 189.4C84.3271 189.4 83.4338 189.733 82.7938 190.4C82.1804 191.067 81.8738 191.987 81.8738 193.16V215H78.2738ZM91.5394 215V196H95.1394V215H91.5394ZM93.3394 192.2C92.6727 192.2 92.126 191.987 91.6994 191.56C91.2727 191.107 91.0594 190.547 91.0594 189.88C91.0594 189.24 91.2727 188.707 91.6994 188.28C92.126 187.827 92.6727 187.6 93.3394 187.6C94.006 187.6 94.5527 187.827 94.9794 188.28C95.406 188.707 95.6194 189.24 95.6194 189.88C95.6194 190.547 95.406 191.107 94.9794 191.56C94.5527 191.987 94.006 192.2 93.3394 192.2ZM109.125 215.4C107.258 215.4 105.565 214.96 104.045 214.08C102.551 213.2 101.365 212.013 100.485 210.52C99.6314 209 99.2047 207.32 99.2047 205.48C99.2047 203.613 99.6314 201.933 100.485 200.44C101.365 198.947 102.551 197.773 104.045 196.92C105.565 196.04 107.258 195.6 109.125 195.6C110.591 195.6 111.951 195.88 113.205 196.44C114.458 196.973 115.538 197.76 116.445 198.8L114.045 201.2C113.458 200.507 112.738 199.987 111.885 199.64C111.058 199.267 110.138 199.08 109.125 199.08C107.925 199.08 106.858 199.36 105.925 199.92C104.991 200.453 104.258 201.2 103.725 202.16C103.191 203.12 102.925 204.227 102.925 205.48C102.925 206.733 103.191 207.84 103.725 208.8C104.258 209.76 104.991 210.52 105.925 211.08C106.858 211.64 107.925 211.92 109.125 211.92C110.138 211.92 111.058 211.747 111.885 211.4C112.738 211.027 113.471 210.493 114.085 209.8L116.445 212.2C115.565 213.213 114.485 214 113.205 214.56C111.951 215.12 110.591 215.4 109.125 215.4ZM128.463 215.4C126.57 215.4 124.863 214.973 123.343 214.12C121.823 213.24 120.623 212.053 119.743 210.56C118.863 209.067 118.423 207.373 118.423 205.48C118.423 203.613 118.85 201.933 119.703 200.44C120.583 198.947 121.757 197.773 123.223 196.92C124.717 196.04 126.383 195.6 128.223 195.6C129.983 195.6 131.53 196 132.863 196.8C134.223 197.6 135.277 198.707 136.023 200.12C136.797 201.533 137.183 203.133 137.183 204.92C137.183 205.187 137.17 205.48 137.143 205.8C137.117 206.093 137.063 206.44 136.983 206.84H120.943V203.84H135.063L133.743 205C133.743 203.72 133.517 202.64 133.063 201.76C132.61 200.853 131.97 200.16 131.143 199.68C130.317 199.173 129.317 198.92 128.143 198.92C126.917 198.92 125.837 199.187 124.903 199.72C123.97 200.253 123.25 201 122.743 201.96C122.237 202.92 121.983 204.053 121.983 205.36C121.983 206.693 122.25 207.867 122.783 208.88C123.317 209.867 124.077 210.64 125.063 211.2C126.05 211.733 127.183 212 128.463 212C129.53 212 130.503 211.813 131.383 211.44C132.29 211.067 133.063 210.507 133.703 209.76L136.023 212.12C135.117 213.187 133.997 214 132.663 214.56C131.357 215.12 129.957 215.4 128.463 215.4ZM154.549 215V203.92C154.549 202.48 154.095 201.293 153.189 200.36C152.282 199.427 151.109 198.96 149.669 198.96C148.709 198.96 147.855 199.173 147.109 199.6C146.362 200.027 145.775 200.613 145.349 201.36C144.922 202.107 144.709 202.96 144.709 203.92L143.229 203.08C143.229 201.64 143.549 200.36 144.189 199.24C144.829 198.12 145.722 197.24 146.869 196.6C148.015 195.933 149.309 195.6 150.749 195.6C152.189 195.6 153.455 195.96 154.549 196.68C155.669 197.4 156.549 198.347 157.189 199.52C157.829 200.667 158.149 201.893 158.149 203.2V215H154.549ZM141.109 215V196H144.709V215H141.109ZM161.503 213.04L172.783 197.96H177.023L165.743 213.04H161.503ZM161.503 215V213.04L164.703 211.72H176.783V215H161.503ZM162.183 199.28V196H177.023V197.96L173.703 199.28H162.183ZM188.642 215.4C186.909 215.4 185.335 214.973 183.922 214.12C182.509 213.24 181.389 212.053 180.562 210.56C179.762 209.067 179.362 207.387 179.362 205.52C179.362 203.653 179.762 201.973 180.562 200.48C181.389 198.987 182.495 197.8 183.882 196.92C185.295 196.04 186.882 195.6 188.642 195.6C190.082 195.6 191.362 195.907 192.482 196.52C193.629 197.107 194.549 197.933 195.242 199C195.935 200.04 196.322 201.253 196.402 202.64V208.36C196.322 209.72 195.935 210.933 195.242 212C194.575 213.067 193.669 213.907 192.522 214.52C191.402 215.107 190.109 215.4 188.642 215.4ZM189.242 212C191.029 212 192.469 211.4 193.562 210.2C194.655 208.973 195.202 207.413 195.202 205.52C195.202 204.213 194.949 203.08 194.442 202.12C193.962 201.133 193.269 200.373 192.362 199.84C191.455 199.28 190.402 199 189.202 199C188.002 199 186.935 199.28 186.002 199.84C185.095 200.4 184.375 201.173 183.842 202.16C183.335 203.12 183.082 204.227 183.082 205.48C183.082 206.76 183.335 207.893 183.842 208.88C184.375 209.84 185.109 210.6 186.042 211.16C186.975 211.72 188.042 212 189.242 212ZM194.962 215V209.88L195.642 205.24L194.962 200.64V196H198.602V215H194.962Z" fill="white"/>
<path d="M45.96 256.2C44.9867 256.2 44.08 256.02 43.24 255.66C42.4133 255.287 41.6867 254.78 41.06 254.14C40.4333 253.487 39.94 252.733 39.58 251.88C39.2333 251.013 39.06 250.087 39.06 249.1C39.06 248.1 39.2333 247.173 39.58 246.32C39.9267 245.467 40.4133 244.72 41.04 244.08C41.6667 243.44 42.3933 242.94 43.22 242.58C44.0467 242.22 44.9467 242.04 45.92 242.04C46.8933 242.04 47.7933 242.22 48.62 242.58C49.46 242.94 50.1933 243.44 50.82 244.08C51.4467 244.72 51.9333 245.473 52.28 246.34C52.6267 247.193 52.8 248.12 52.8 249.12C52.8 250.107 52.6267 251.033 52.28 251.9C51.9333 252.753 51.4467 253.5 50.82 254.14C50.2067 254.78 49.4867 255.287 48.66 255.66C47.8333 256.02 46.9333 256.2 45.96 256.2ZM45.92 254.78C46.96 254.78 47.88 254.533 48.68 254.04C49.4933 253.547 50.1267 252.873 50.58 252.02C51.0467 251.167 51.28 250.193 51.28 249.1C51.28 248.287 51.1467 247.54 50.88 246.86C50.6133 246.167 50.24 245.567 49.76 245.06C49.28 244.54 48.7133 244.14 48.06 243.86C47.42 243.58 46.7067 243.44 45.92 243.44C44.8933 243.44 43.9733 243.687 43.16 244.18C42.36 244.66 41.7267 245.327 41.26 246.18C40.8067 247.033 40.58 248.007 40.58 249.1C40.58 249.913 40.7133 250.667 40.98 251.36C41.2467 252.053 41.62 252.66 42.1 253.18C42.58 253.687 43.1467 254.08 43.8 254.36C44.4533 254.64 45.16 254.78 45.92 254.78ZM59.1789 260.16C58.2322 260.16 57.3856 259.98 56.6389 259.62C55.9056 259.273 55.3122 258.78 54.8589 258.14L55.7789 257.22C56.1522 257.727 56.6256 258.12 57.1989 258.4C57.7722 258.68 58.4456 258.82 59.2189 258.82C60.2856 258.82 61.1322 258.533 61.7589 257.96C62.3989 257.387 62.7189 256.607 62.7189 255.62V253.28L62.9989 251.14L62.7189 249.02V246.6H64.1189V255.62C64.1189 256.527 63.9122 257.32 63.4989 258C63.0856 258.68 62.5056 259.207 61.7589 259.58C61.0256 259.967 60.1656 260.16 59.1789 260.16ZM59.2789 255.9C58.4122 255.9 57.6322 255.693 56.9389 255.28C56.2456 254.867 55.6989 254.3 55.2989 253.58C54.8989 252.86 54.6989 252.047 54.6989 251.14C54.6989 250.233 54.8922 249.427 55.2789 248.72C55.6789 248 56.2256 247.433 56.9189 247.02C57.6122 246.607 58.3922 246.4 59.2589 246.4C59.9922 246.4 60.6456 246.54 61.2189 246.82C61.8056 247.1 62.2722 247.5 62.6189 248.02C62.9789 248.527 63.1989 249.127 63.2789 249.82V252.48C63.1989 253.16 62.9789 253.76 62.6189 254.28C62.2589 254.787 61.7922 255.187 61.2189 255.48C60.6456 255.76 59.9989 255.9 59.2789 255.9ZM59.5389 254.56C60.1922 254.56 60.7589 254.42 61.2389 254.14C61.7322 253.86 62.1122 253.467 62.3789 252.96C62.6589 252.44 62.7989 251.833 62.7989 251.14C62.7989 250.46 62.6589 249.867 62.3789 249.36C62.1122 248.853 61.7322 248.453 61.2389 248.16C60.7456 247.867 60.1722 247.72 59.5189 247.72C58.8656 247.72 58.2789 247.867 57.7589 248.16C57.2522 248.453 56.8522 248.853 56.5589 249.36C56.2789 249.867 56.1389 250.46 56.1389 251.14C56.1389 251.807 56.2856 252.4 56.5789 252.92C56.8722 253.44 57.2722 253.847 57.7789 254.14C58.2856 254.42 58.8722 254.56 59.5389 254.56ZM73.7795 256V250.48C73.7795 249.653 73.5329 248.987 73.0395 248.48C72.5595 247.96 71.9195 247.7 71.1195 247.7C70.5729 247.7 70.0929 247.82 69.6795 248.06C69.2662 248.3 68.9395 248.627 68.6995 249.04C68.4595 249.453 68.3395 249.927 68.3395 250.46L67.6995 250.1C67.6995 249.393 67.8662 248.76 68.1995 248.2C68.5329 247.64 68.9795 247.2 69.5395 246.88C70.1129 246.56 70.7662 246.4 71.4995 246.4C72.2195 246.4 72.8595 246.573 73.4195 246.92C73.9795 247.267 74.4129 247.733 74.7195 248.32C75.0395 248.907 75.1995 249.547 75.1995 250.24V256H73.7795ZM66.9395 256V246.6H68.3395V256H66.9395ZM77.8184 256V246.6H79.2384V256H77.8184ZM78.5184 244.56C78.2518 244.56 78.0251 244.467 77.8384 244.28C77.6518 244.08 77.5584 243.847 77.5584 243.58C77.5584 243.3 77.6518 243.067 77.8384 242.88C78.0251 242.693 78.2518 242.6 78.5184 242.6C78.8118 242.6 79.0451 242.693 79.2184 242.88C79.4051 243.067 79.4984 243.3 79.4984 243.58C79.4984 243.847 79.4051 244.08 79.2184 244.28C79.0451 244.467 78.8118 244.56 78.5184 244.56ZM90.4531 256.2C89.5598 256.2 88.7598 255.987 88.0531 255.56C87.3465 255.12 86.7865 254.533 86.3731 253.8C85.9731 253.067 85.7731 252.24 85.7731 251.32C85.7731 250.387 85.9731 249.553 86.3731 248.82C86.7865 248.073 87.3465 247.487 88.0531 247.06C88.7598 246.62 89.5531 246.4 90.4331 246.4C91.1531 246.4 91.7931 246.547 92.3531 246.84C92.9265 247.12 93.3865 247.52 93.7331 248.04C94.0931 248.547 94.3131 249.14 94.3931 249.82V252.76C94.3131 253.44 94.0931 254.04 93.7331 254.56C93.3865 255.08 92.9265 255.487 92.3531 255.78C91.7931 256.06 91.1598 256.2 90.4531 256.2ZM90.6731 254.86C91.6465 254.86 92.4265 254.533 93.0131 253.88C93.6131 253.227 93.9131 252.367 93.9131 251.3C93.9131 250.593 93.7731 249.973 93.4931 249.44C93.2265 248.893 92.8465 248.473 92.3531 248.18C91.8731 247.873 91.3065 247.72 90.6531 247.72C89.9865 247.72 89.3931 247.873 88.8731 248.18C88.3665 248.487 87.9598 248.913 87.6531 249.46C87.3598 249.993 87.2131 250.607 87.2131 251.3C87.2131 251.993 87.3598 252.607 87.6531 253.14C87.9598 253.673 88.3731 254.093 88.8931 254.4C89.4131 254.707 90.0065 254.86 90.6731 254.86ZM93.8331 256V253.48L94.1131 251.16L93.8331 248.9V246.6H95.2331V256H93.8331ZM99.5323 256V242.64H100.952V256H99.5323ZM97.1523 247.86V246.6H108.832V247.86H97.1523ZM105.052 256V242.64H106.472V256H105.052ZM110.748 256V246.6H112.168V256H110.748ZM111.448 244.56C111.181 244.56 110.955 244.467 110.768 244.28C110.581 244.08 110.488 243.847 110.488 243.58C110.488 243.3 110.581 243.067 110.768 242.88C110.955 242.693 111.181 242.6 111.448 242.6C111.741 242.6 111.975 242.693 112.148 242.88C112.335 243.067 112.428 243.3 112.428 243.58C112.428 243.847 112.335 244.08 112.148 244.28C111.975 244.467 111.741 244.56 111.448 244.56ZM118.286 256L113.946 246.6H115.506L119.166 254.82H118.286L121.966 246.6H123.486L119.106 256H118.286ZM125.24 256V246.6H126.66V256H125.24ZM125.94 244.56C125.674 244.56 125.447 244.467 125.26 244.28C125.074 244.08 124.98 243.847 124.98 243.58C124.98 243.3 125.074 243.067 125.26 242.88C125.447 242.693 125.674 242.6 125.94 242.6C126.234 242.6 126.467 242.693 126.64 242.88C126.827 243.067 126.92 243.3 126.92 243.58C126.92 243.847 126.827 244.08 126.64 244.28C126.467 244.467 126.234 244.56 125.94 244.56ZM130.958 256V242.64H132.358V256H130.958ZM128.578 247.86V246.6H134.718V247.86H128.578ZM140.395 256.2C139.501 256.2 138.701 255.987 137.995 255.56C137.288 255.12 136.728 254.533 136.315 253.8C135.915 253.067 135.715 252.24 135.715 251.32C135.715 250.387 135.915 249.553 136.315 248.82C136.728 248.073 137.288 247.487 137.995 247.06C138.701 246.62 139.495 246.4 140.375 246.4C141.095 246.4 141.735 246.547 142.295 246.84C142.868 247.12 143.328 247.52 143.675 248.04C144.035 248.547 144.255 249.14 144.335 249.82V252.76C144.255 253.44 144.035 254.04 143.675 254.56C143.328 255.08 142.868 255.487 142.295 255.78C141.735 256.06 141.101 256.2 140.395 256.2ZM140.615 254.86C141.588 254.86 142.368 254.533 142.955 253.88C143.555 253.227 143.855 252.367 143.855 251.3C143.855 250.593 143.715 249.973 143.435 249.44C143.168 248.893 142.788 248.473 142.295 248.18C141.815 247.873 141.248 247.72 140.595 247.72C139.928 247.72 139.335 247.873 138.815 248.18C138.308 248.487 137.901 248.913 137.595 249.46C137.301 249.993 137.155 250.607 137.155 251.3C137.155 251.993 137.301 252.607 137.595 253.14C137.901 253.673 138.315 254.093 138.835 254.4C139.355 254.707 139.948 254.86 140.615 254.86ZM143.775 256V253.48L144.055 251.16L143.775 248.9V246.6H145.175V256H143.775ZM141.335 245.24L138.195 242.56L139.315 241.44L141.975 244.6L141.335 245.24ZM148.214 258.06L149.354 255.84L149.854 255.72C149.8 255.84 149.727 255.94 149.634 256.02C149.54 256.113 149.427 256.16 149.294 256.16C149.04 256.16 148.807 256.06 148.594 255.86C148.394 255.647 148.294 255.387 148.294 255.08C148.294 254.76 148.407 254.487 148.634 254.26C148.86 254.02 149.134 253.9 149.454 253.9C149.76 253.9 150.027 254.02 150.254 254.26C150.494 254.487 150.614 254.76 150.614 255.08C150.614 255.213 150.587 255.373 150.534 255.56C150.494 255.733 150.4 255.967 150.254 256.26L149.054 258.52L148.214 258.06ZM161.799 256.2C160.932 256.2 160.152 255.987 159.459 255.56C158.766 255.133 158.212 254.553 157.799 253.82C157.399 253.073 157.199 252.24 157.199 251.32C157.199 250.387 157.399 249.553 157.799 248.82C158.212 248.073 158.766 247.487 159.459 247.06C160.152 246.62 160.932 246.4 161.799 246.4C162.506 246.4 163.146 246.54 163.719 246.82C164.292 247.1 164.766 247.5 165.139 248.02C165.526 248.527 165.752 249.127 165.819 249.82V252.76C165.739 253.44 165.512 254.04 165.139 254.56C164.779 255.067 164.312 255.467 163.739 255.76C163.166 256.053 162.519 256.2 161.799 256.2ZM162.039 254.86C162.692 254.86 163.266 254.713 163.759 254.42C164.252 254.113 164.639 253.693 164.919 253.16C165.199 252.613 165.339 251.993 165.339 251.3C165.339 250.593 165.192 249.973 164.899 249.44C164.619 248.907 164.232 248.487 163.739 248.18C163.246 247.873 162.672 247.72 162.019 247.72C161.366 247.72 160.786 247.873 160.279 248.18C159.772 248.487 159.372 248.913 159.079 249.46C158.799 249.993 158.659 250.607 158.659 251.3C158.659 251.993 158.799 252.613 159.079 253.16C159.372 253.693 159.772 254.113 160.279 254.42C160.799 254.713 161.386 254.86 162.039 254.86ZM166.659 256H165.259V253.48L165.539 251.16L165.259 248.9V241.84H166.659V256ZM173.578 256.2C172.685 256.2 171.885 255.987 171.178 255.56C170.471 255.12 169.911 254.533 169.498 253.8C169.098 253.067 168.898 252.24 168.898 251.32C168.898 250.387 169.098 249.553 169.498 248.82C169.911 248.073 170.471 247.487 171.178 247.06C171.885 246.62 172.678 246.4 173.558 246.4C174.278 246.4 174.918 246.547 175.478 246.84C176.051 247.12 176.511 247.52 176.858 248.04C177.218 248.547 177.438 249.14 177.518 249.82V252.76C177.438 253.44 177.218 254.04 176.858 254.56C176.511 255.08 176.051 255.487 175.478 255.78C174.918 256.06 174.285 256.2 173.578 256.2ZM173.798 254.86C174.771 254.86 175.551 254.533 176.138 253.88C176.738 253.227 177.038 252.367 177.038 251.3C177.038 250.593 176.898 249.973 176.618 249.44C176.351 248.893 175.971 248.473 175.478 248.18C174.998 247.873 174.431 247.72 173.778 247.72C173.111 247.72 172.518 247.873 171.998 248.18C171.491 248.487 171.085 248.913 170.778 249.46C170.485 249.993 170.338 250.607 170.338 251.3C170.338 251.993 170.485 252.607 170.778 253.14C171.085 253.673 171.498 254.093 172.018 254.4C172.538 254.707 173.131 254.86 173.798 254.86ZM176.958 256V253.48L177.238 251.16L176.958 248.9V246.6H178.358V256H176.958ZM181.197 256V241.84H182.597V256H181.197ZM189.733 256V246.6H191.133V256H189.733ZM196.193 256V250.24C196.193 249.467 195.959 248.853 195.493 248.4C195.026 247.933 194.439 247.7 193.733 247.7C193.253 247.7 192.813 247.807 192.413 248.02C192.026 248.22 191.713 248.507 191.473 248.88C191.246 249.253 191.133 249.7 191.133 250.22L190.493 249.96C190.493 249.24 190.653 248.613 190.973 248.08C191.293 247.547 191.719 247.133 192.253 246.84C192.799 246.547 193.413 246.4 194.093 246.4C194.759 246.4 195.353 246.547 195.873 246.84C196.406 247.133 196.826 247.547 197.133 248.08C197.453 248.613 197.613 249.247 197.613 249.98V256H196.193ZM202.673 256V250.24C202.673 249.467 202.439 248.853 201.973 248.4C201.506 247.933 200.913 247.7 200.193 247.7C199.726 247.7 199.293 247.807 198.893 248.02C198.506 248.22 198.193 248.507 197.953 248.88C197.726 249.253 197.613 249.7 197.613 250.22L196.773 249.96C196.813 249.24 196.999 248.613 197.333 248.08C197.679 247.547 198.126 247.133 198.673 246.84C199.233 246.547 199.846 246.4 200.513 246.4C201.179 246.4 201.779 246.547 202.313 246.84C202.859 247.133 203.286 247.547 203.593 248.08C203.913 248.613 204.073 249.247 204.073 249.98V256H202.673ZM210.785 256.2C209.892 256.2 209.092 255.987 208.385 255.56C207.678 255.12 207.118 254.533 206.705 253.8C206.305 253.067 206.105 252.24 206.105 251.32C206.105 250.387 206.305 249.553 206.705 248.82C207.118 248.073 207.678 247.487 208.385 247.06C209.092 246.62 209.885 246.4 210.765 246.4C211.485 246.4 212.125 246.547 212.685 246.84C213.258 247.12 213.718 247.52 214.065 248.04C214.425 248.547 214.645 249.14 214.725 249.82V252.76C214.645 253.44 214.425 254.04 214.065 254.56C213.718 255.08 213.258 255.487 212.685 255.78C212.125 256.06 211.492 256.2 210.785 256.2ZM211.005 254.86C211.978 254.86 212.758 254.533 213.345 253.88C213.945 253.227 214.245 252.367 214.245 251.3C214.245 250.593 214.105 249.973 213.825 249.44C213.558 248.893 213.178 248.473 212.685 248.18C212.205 247.873 211.638 247.72 210.985 247.72C210.318 247.72 209.725 247.873 209.205 248.18C208.698 248.487 208.292 248.913 207.985 249.46C207.692 249.993 207.545 250.607 207.545 251.3C207.545 251.993 207.692 252.607 207.985 253.14C208.292 253.673 208.705 254.093 209.225 254.4C209.745 254.707 210.338 254.86 211.005 254.86ZM214.165 256V253.48L214.445 251.16L214.165 248.9V246.6H215.565V256H214.165ZM218.404 256V246.6H219.804V256H218.404ZM219.804 250.52L219.224 250.26C219.224 249.073 219.511 248.133 220.084 247.44C220.671 246.747 221.471 246.4 222.484 246.4C222.951 246.4 223.378 246.487 223.764 246.66C224.151 246.82 224.511 247.08 224.844 247.44L223.924 248.42C223.698 248.167 223.444 247.987 223.164 247.88C222.898 247.773 222.591 247.72 222.244 247.72C221.524 247.72 220.938 247.96 220.484 248.44C220.031 248.907 219.804 249.6 219.804 250.52ZM232.394 256L227.594 251.18L232.314 246.6H234.054L228.914 251.54L228.954 250.74L234.254 256H232.394ZM226.334 256V241.84H227.734V256H226.334ZM239.756 256.2C238.809 256.2 237.963 255.987 237.216 255.56C236.469 255.133 235.876 254.547 235.436 253.8C235.009 253.053 234.796 252.213 234.796 251.28C234.796 250.36 235.009 249.533 235.436 248.8C235.863 248.053 236.443 247.467 237.176 247.04C237.909 246.613 238.729 246.4 239.636 246.4C240.489 246.4 241.243 246.593 241.896 246.98C242.563 247.367 243.083 247.907 243.456 248.6C243.843 249.28 244.036 250.067 244.036 250.96C244.036 251.067 244.029 251.193 244.016 251.34C244.003 251.473 243.976 251.633 243.936 251.82H235.796V250.62H243.176L242.676 251.06C242.689 250.367 242.569 249.773 242.316 249.28C242.076 248.773 241.723 248.387 241.256 248.12C240.803 247.84 240.249 247.7 239.596 247.7C238.916 247.7 238.323 247.847 237.816 248.14C237.309 248.433 236.909 248.847 236.616 249.38C236.336 249.9 236.196 250.52 236.196 251.24C236.196 251.96 236.343 252.593 236.636 253.14C236.943 253.687 237.363 254.113 237.896 254.42C238.443 254.727 239.069 254.88 239.776 254.88C240.349 254.88 240.876 254.78 241.356 254.58C241.836 254.367 242.243 254.053 242.576 253.64L243.476 254.56C243.036 255.08 242.489 255.487 241.836 255.78C241.196 256.06 240.503 256.2 239.756 256.2ZM247.306 256V242.64H248.706V256H247.306ZM244.926 247.86V246.6H251.066V247.86H244.926ZM252.994 256V246.6H254.414V256H252.994ZM253.694 244.56C253.428 244.56 253.201 244.467 253.014 244.28C252.828 244.08 252.734 243.847 252.734 243.58C252.734 243.3 252.828 243.067 253.014 242.88C253.201 242.693 253.428 242.6 253.694 242.6C253.988 242.6 254.221 242.693 254.394 242.88C254.581 243.067 254.674 243.3 254.674 243.58C254.674 243.847 254.581 244.08 254.394 244.28C254.221 244.467 253.988 244.56 253.694 244.56ZM264.092 256V250.48C264.092 249.653 263.845 248.987 263.352 248.48C262.872 247.96 262.232 247.7 261.432 247.7C260.885 247.7 260.405 247.82 259.992 248.06C259.579 248.3 259.252 248.627 259.012 249.04C258.772 249.453 258.652 249.927 258.652 250.46L258.012 250.1C258.012 249.393 258.179 248.76 258.512 248.2C258.845 247.64 259.292 247.2 259.852 246.88C260.425 246.56 261.079 246.4 261.812 246.4C262.532 246.4 263.172 246.573 263.732 246.92C264.292 247.267 264.725 247.733 265.032 248.32C265.352 248.907 265.512 249.547 265.512 250.24V256H264.092ZM257.252 256V246.6H258.652V256H257.252ZM272.011 260.16C271.064 260.16 270.218 259.98 269.471 259.62C268.738 259.273 268.144 258.78 267.691 258.14L268.611 257.22C268.984 257.727 269.458 258.12 270.031 258.4C270.604 258.68 271.278 258.82 272.051 258.82C273.118 258.82 273.964 258.533 274.591 257.96C275.231 257.387 275.551 256.607 275.551 255.62V253.28L275.831 251.14L275.551 249.02V246.6H276.951V255.62C276.951 256.527 276.744 257.32 276.331 258C275.918 258.68 275.338 259.207 274.591 259.58C273.858 259.967 272.998 260.16 272.011 260.16ZM272.111 255.9C271.244 255.9 270.464 255.693 269.771 255.28C269.078 254.867 268.531 254.3 268.131 253.58C267.731 252.86 267.531 252.047 267.531 251.14C267.531 250.233 267.724 249.427 268.111 248.72C268.511 248 269.058 247.433 269.751 247.02C270.444 246.607 271.224 246.4 272.091 246.4C272.824 246.4 273.478 246.54 274.051 246.82C274.638 247.1 275.104 247.5 275.451 248.02C275.811 248.527 276.031 249.127 276.111 249.82V252.48C276.031 253.16 275.811 253.76 275.451 254.28C275.091 254.787 274.624 255.187 274.051 255.48C273.478 255.76 272.831 255.9 272.111 255.9ZM272.371 254.56C273.024 254.56 273.591 254.42 274.071 254.14C274.564 253.86 274.944 253.467 275.211 252.96C275.491 252.44 275.631 251.833 275.631 251.14C275.631 250.46 275.491 249.867 275.211 249.36C274.944 248.853 274.564 248.453 274.071 248.16C273.578 247.867 273.004 247.72 272.351 247.72C271.698 247.72 271.111 247.867 270.591 248.16C270.084 248.453 269.684 248.853 269.391 249.36C269.111 249.867 268.971 250.46 268.971 251.14C268.971 251.807 269.118 252.4 269.411 252.92C269.704 253.44 270.104 253.847 270.611 254.14C271.118 254.42 271.704 254.56 272.371 254.56ZM288.148 256.2C287.255 256.2 286.455 255.987 285.748 255.56C285.042 255.12 284.482 254.533 284.068 253.8C283.668 253.067 283.468 252.24 283.468 251.32C283.468 250.387 283.668 249.553 284.068 248.82C284.482 248.073 285.042 247.487 285.748 247.06C286.455 246.62 287.248 246.4 288.128 246.4C288.848 246.4 289.488 246.547 290.048 246.84C290.622 247.12 291.082 247.52 291.428 248.04C291.788 248.547 292.008 249.14 292.088 249.82V252.76C292.008 253.44 291.788 254.04 291.428 254.56C291.082 255.08 290.622 255.487 290.048 255.78C289.488 256.06 288.855 256.2 288.148 256.2ZM288.368 254.86C289.342 254.86 290.122 254.533 290.708 253.88C291.308 253.227 291.608 252.367 291.608 251.3C291.608 250.593 291.468 249.973 291.188 249.44C290.922 248.893 290.542 248.473 290.048 248.18C289.568 247.873 289.002 247.72 288.348 247.72C287.682 247.72 287.088 247.873 286.568 248.18C286.062 248.487 285.655 248.913 285.348 249.46C285.055 249.993 284.908 250.607 284.908 251.3C284.908 251.993 285.055 252.607 285.348 253.14C285.655 253.673 286.068 254.093 286.588 254.4C287.108 254.707 287.702 254.86 288.368 254.86ZM291.528 256V253.48L291.808 251.16L291.528 248.9V246.6H292.928V256H291.528ZM295.768 256V241.84H297.168V256H295.768ZM43.7 281.2C42.78 281.2 41.9467 280.987 41.2 280.56C40.4667 280.12 39.88 279.527 39.44 278.78C39.0133 278.033 38.8 277.2 38.8 276.28C38.8 275.36 39.0133 274.533 39.44 273.8C39.88 273.053 40.4667 272.467 41.2 272.04C41.9467 271.613 42.78 271.4 43.7 271.4C44.4067 271.4 45.0667 271.533 45.68 271.8C46.2933 272.067 46.8133 272.44 47.24 272.92L46.32 273.86C46 273.5 45.6133 273.227 45.16 273.04C44.7067 272.84 44.22 272.74 43.7 272.74C43.0333 272.74 42.44 272.893 41.92 273.2C41.4 273.507 40.9933 273.927 40.7 274.46C40.4067 274.98 40.26 275.587 40.26 276.28C40.26 276.96 40.4067 277.573 40.7 278.12C40.9933 278.653 41.4 279.073 41.92 279.38C42.44 279.687 43.0333 279.84 43.7 279.84C44.2333 279.84 44.7267 279.747 45.18 279.56C45.6333 279.36 46.02 279.08 46.34 278.72L47.28 279.66C46.84 280.153 46.3067 280.533 45.68 280.8C45.0667 281.067 44.4067 281.2 43.7 281.2ZM53.3284 281.2C52.4218 281.2 51.5951 280.98 50.8484 280.54C50.1151 280.1 49.5284 279.507 49.0884 278.76C48.6618 278.013 48.4484 277.18 48.4484 276.26C48.4484 275.353 48.6618 274.533 49.0884 273.8C49.5284 273.067 50.1151 272.487 50.8484 272.06C51.5951 271.62 52.4218 271.4 53.3284 271.4C54.2484 271.4 55.0751 271.613 55.8084 272.04C56.5418 272.467 57.1218 273.053 57.5484 273.8C57.9884 274.533 58.2084 275.353 58.2084 276.26C58.2084 277.193 57.9884 278.033 57.5484 278.78C57.1218 279.513 56.5418 280.1 55.8084 280.54C55.0751 280.98 54.2484 281.2 53.3284 281.2ZM53.3284 279.84C53.9951 279.84 54.5818 279.687 55.0884 279.38C55.6084 279.073 56.0151 278.647 56.3084 278.1C56.6151 277.553 56.7684 276.94 56.7684 276.26C56.7684 275.58 56.6151 274.98 56.3084 274.46C56.0151 273.927 55.6084 273.507 55.0884 273.2C54.5818 272.893 53.9951 272.74 53.3284 272.74C52.6751 272.74 52.0884 272.893 51.5684 273.2C51.0484 273.507 50.6418 273.927 50.3484 274.46C50.0551 274.98 49.9084 275.58 49.9084 276.26C49.9084 276.953 50.0551 277.573 50.3484 278.12C50.6418 278.653 51.0484 279.073 51.5684 279.38C52.0884 279.687 52.6751 279.84 53.3284 279.84ZM60.4356 281V271.6H61.8356V281H60.4356ZM66.8956 281V275.24C66.8956 274.467 66.6623 273.853 66.1956 273.4C65.729 272.933 65.1423 272.7 64.4356 272.7C63.9556 272.7 63.5156 272.807 63.1156 273.02C62.729 273.22 62.4156 273.507 62.1756 273.88C61.949 274.253 61.8356 274.7 61.8356 275.22L61.1956 274.96C61.1956 274.24 61.3556 273.613 61.6756 273.08C61.9956 272.547 62.4223 272.133 62.9556 271.84C63.5023 271.547 64.1156 271.4 64.7956 271.4C65.4623 271.4 66.0556 271.547 66.5756 271.84C67.109 272.133 67.529 272.547 67.8356 273.08C68.1556 273.613 68.3156 274.247 68.3156 274.98V281H66.8956ZM73.3756 281V275.24C73.3756 274.467 73.1423 273.853 72.6756 273.4C72.209 272.933 71.6156 272.7 70.8956 272.7C70.429 272.7 69.9956 272.807 69.5956 273.02C69.209 273.22 68.8956 273.507 68.6556 273.88C68.429 274.253 68.3156 274.7 68.3156 275.22L67.4756 274.96C67.5156 274.24 67.7023 273.613 68.0356 273.08C68.3823 272.547 68.829 272.133 69.3756 271.84C69.9356 271.547 70.549 271.4 71.2156 271.4C71.8823 271.4 72.4823 271.547 73.0156 271.84C73.5623 272.133 73.989 272.547 74.2956 273.08C74.6156 273.613 74.7756 274.247 74.7756 274.98V281H73.3756ZM77.4083 281V271.6H78.8083V281H77.4083ZM83.8683 281V275.24C83.8683 274.467 83.6349 273.853 83.1683 273.4C82.7016 272.933 82.1149 272.7 81.4083 272.7C80.9283 272.7 80.4883 272.807 80.0883 273.02C79.7016 273.22 79.3883 273.507 79.1483 273.88C78.9216 274.253 78.8083 274.7 78.8083 275.22L78.1683 274.96C78.1683 274.24 78.3283 273.613 78.6483 273.08C78.9683 272.547 79.3949 272.133 79.9283 271.84C80.4749 271.547 81.0883 271.4 81.7683 271.4C82.4349 271.4 83.0283 271.547 83.5483 271.84C84.0816 272.133 84.5016 272.547 84.8083 273.08C85.1283 273.613 85.2883 274.247 85.2883 274.98V281H83.8683ZM90.3483 281V275.24C90.3483 274.467 90.1149 273.853 89.6483 273.4C89.1816 272.933 88.5883 272.7 87.8683 272.7C87.4016 272.7 86.9683 272.807 86.5683 273.02C86.1816 273.22 85.8683 273.507 85.6283 273.88C85.4016 274.253 85.2883 274.7 85.2883 275.22L84.4483 274.96C84.4883 274.24 84.6749 273.613 85.0083 273.08C85.3549 272.547 85.8016 272.133 86.3483 271.84C86.9083 271.547 87.5216 271.4 88.1883 271.4C88.8549 271.4 89.4549 271.547 89.9883 271.84C90.5349 272.133 90.9616 272.547 91.2683 273.08C91.5883 273.613 91.7483 274.247 91.7483 274.98V281H90.3483ZM98.7209 281.2C97.7743 281.2 96.9276 280.987 96.1809 280.56C95.4343 280.133 94.8409 279.547 94.4009 278.8C93.9743 278.053 93.7609 277.213 93.7609 276.28C93.7609 275.36 93.9743 274.533 94.4009 273.8C94.8276 273.053 95.4076 272.467 96.1409 272.04C96.8743 271.613 97.6943 271.4 98.6009 271.4C99.4543 271.4 100.208 271.593 100.861 271.98C101.528 272.367 102.048 272.907 102.421 273.6C102.808 274.28 103.001 275.067 103.001 275.96C103.001 276.067 102.994 276.193 102.981 276.34C102.968 276.473 102.941 276.633 102.901 276.82H94.7609V275.62H102.141L101.641 276.06C101.654 275.367 101.534 274.773 101.281 274.28C101.041 273.773 100.688 273.387 100.221 273.12C99.7676 272.84 99.2143 272.7 98.5609 272.7C97.8809 272.7 97.2876 272.847 96.7809 273.14C96.2743 273.433 95.8743 273.847 95.5809 274.38C95.3009 274.9 95.1609 275.52 95.1609 276.24C95.1609 276.96 95.3076 277.593 95.6009 278.14C95.9076 278.687 96.3276 279.113 96.8609 279.42C97.4076 279.727 98.0343 279.88 98.7409 279.88C99.3143 279.88 99.8409 279.78 100.321 279.58C100.801 279.367 101.208 279.053 101.541 278.64L102.441 279.56C102.001 280.08 101.454 280.487 100.801 280.78C100.161 281.06 99.4676 281.2 98.7209 281.2ZM105.143 281V271.6H106.543V281H105.143ZM106.543 275.52L105.963 275.26C105.963 274.073 106.249 273.133 106.823 272.44C107.409 271.747 108.209 271.4 109.223 271.4C109.689 271.4 110.116 271.487 110.503 271.66C110.889 271.82 111.249 272.08 111.583 272.44L110.663 273.42C110.436 273.167 110.183 272.987 109.903 272.88C109.636 272.773 109.329 272.72 108.983 272.72C108.263 272.72 107.676 272.96 107.223 273.44C106.769 273.907 106.543 274.6 106.543 275.52ZM117.02 281.2C116.1 281.2 115.267 280.987 114.52 280.56C113.787 280.12 113.2 279.527 112.76 278.78C112.334 278.033 112.12 277.2 112.12 276.28C112.12 275.36 112.334 274.533 112.76 273.8C113.2 273.053 113.787 272.467 114.52 272.04C115.267 271.613 116.1 271.4 117.02 271.4C117.727 271.4 118.387 271.533 119 271.8C119.614 272.067 120.134 272.44 120.56 272.92L119.64 273.86C119.32 273.5 118.934 273.227 118.48 273.04C118.027 272.84 117.54 272.74 117.02 272.74C116.354 272.74 115.76 272.893 115.24 273.2C114.72 273.507 114.314 273.927 114.02 274.46C113.727 274.98 113.58 275.587 113.58 276.28C113.58 276.96 113.727 277.573 114.02 278.12C114.314 278.653 114.72 279.073 115.24 279.38C115.76 279.687 116.354 279.84 117.02 279.84C117.554 279.84 118.047 279.747 118.5 279.56C118.954 279.36 119.34 279.08 119.66 278.72L120.6 279.66C120.16 280.153 119.627 280.533 119 280.8C118.387 281.067 117.727 281.2 117.02 281.2ZM122.565 281V271.6H123.985V281H122.565ZM123.265 269.56C122.998 269.56 122.771 269.467 122.585 269.28C122.398 269.08 122.305 268.847 122.305 268.58C122.305 268.3 122.398 268.067 122.585 267.88C122.771 267.693 122.998 267.6 123.265 267.6C123.558 267.6 123.791 267.693 123.965 267.88C124.151 268.067 124.245 268.3 124.245 268.58C124.245 268.847 124.151 269.08 123.965 269.28C123.791 269.467 123.558 269.56 123.265 269.56ZM130.902 281.2C130.009 281.2 129.209 280.987 128.502 280.56C127.796 280.12 127.236 279.533 126.822 278.8C126.422 278.067 126.222 277.24 126.222 276.32C126.222 275.387 126.422 274.553 126.822 273.82C127.236 273.073 127.796 272.487 128.502 272.06C129.209 271.62 130.002 271.4 130.882 271.4C131.602 271.4 132.242 271.547 132.802 271.84C133.376 272.12 133.836 272.52 134.182 273.04C134.542 273.547 134.762 274.14 134.842 274.82V277.76C134.762 278.44 134.542 279.04 134.182 279.56C133.836 280.08 133.376 280.487 132.802 280.78C132.242 281.06 131.609 281.2 130.902 281.2ZM131.122 279.86C132.096 279.86 132.876 279.533 133.462 278.88C134.062 278.227 134.362 277.367 134.362 276.3C134.362 275.593 134.222 274.973 133.942 274.44C133.676 273.893 133.296 273.473 132.802 273.18C132.322 272.873 131.756 272.72 131.102 272.72C130.436 272.72 129.842 272.873 129.322 273.18C128.816 273.487 128.409 273.913 128.102 274.46C127.809 274.993 127.662 275.607 127.662 276.3C127.662 276.993 127.809 277.607 128.102 278.14C128.409 278.673 128.822 279.093 129.342 279.4C129.862 279.707 130.456 279.86 131.122 279.86ZM134.282 281V278.48L134.562 276.16L134.282 273.9V271.6H135.682V281H134.282ZM138.522 281V266.84H139.922V281H138.522ZM147.1 281.2C146.153 281.2 145.307 280.987 144.56 280.56C143.813 280.133 143.22 279.547 142.78 278.8C142.353 278.053 142.14 277.213 142.14 276.28C142.14 275.36 142.353 274.533 142.78 273.8C143.207 273.053 143.787 272.467 144.52 272.04C145.253 271.613 146.073 271.4 146.98 271.4C147.833 271.4 148.587 271.593 149.24 271.98C149.907 272.367 150.427 272.907 150.8 273.6C151.187 274.28 151.38 275.067 151.38 275.96C151.38 276.067 151.373 276.193 151.36 276.34C151.347 276.473 151.32 276.633 151.28 276.82H143.14V275.62H150.52L150.02 276.06C150.033 275.367 149.913 274.773 149.66 274.28C149.42 273.773 149.067 273.387 148.6 273.12C148.147 272.84 147.593 272.7 146.94 272.7C146.26 272.7 145.667 272.847 145.16 273.14C144.653 273.433 144.253 273.847 143.96 274.38C143.68 274.9 143.54 275.52 143.54 276.24C143.54 276.96 143.687 277.593 143.98 278.14C144.287 278.687 144.707 279.113 145.24 279.42C145.787 279.727 146.413 279.88 147.12 279.88C147.693 279.88 148.22 279.78 148.7 279.58C149.18 279.367 149.587 279.053 149.92 278.64L150.82 279.56C150.38 280.08 149.833 280.487 149.18 280.78C148.54 281.06 147.847 281.2 147.1 281.2ZM153.722 283.06L154.862 280.84L155.362 280.72C155.308 280.84 155.235 280.94 155.142 281.02C155.048 281.113 154.935 281.16 154.802 281.16C154.548 281.16 154.315 281.06 154.102 280.86C153.902 280.647 153.802 280.387 153.802 280.08C153.802 279.76 153.915 279.487 154.142 279.26C154.368 279.02 154.642 278.9 154.962 278.9C155.268 278.9 155.535 279.02 155.762 279.26C156.002 279.487 156.122 279.76 156.122 280.08C156.122 280.213 156.095 280.373 156.042 280.56C156.002 280.733 155.908 280.967 155.762 281.26L154.562 283.52L153.722 283.06ZM167.187 285.16C166.24 285.16 165.393 284.98 164.647 284.62C163.913 284.273 163.32 283.78 162.867 283.14L163.787 282.22C164.16 282.727 164.633 283.12 165.207 283.4C165.78 283.68 166.453 283.82 167.227 283.82C168.293 283.82 169.14 283.533 169.767 282.96C170.407 282.387 170.727 281.607 170.727 280.62V278.28L171.007 276.14L170.727 274.02V271.6H172.127V280.62C172.127 281.527 171.92 282.32 171.507 283C171.093 283.68 170.513 284.207 169.767 284.58C169.033 284.967 168.173 285.16 167.187 285.16ZM167.287 280.9C166.42 280.9 165.64 280.693 164.947 280.28C164.253 279.867 163.707 279.3 163.307 278.58C162.907 277.86 162.707 277.047 162.707 276.14C162.707 275.233 162.9 274.427 163.287 273.72C163.687 273 164.233 272.433 164.927 272.02C165.62 271.607 166.4 271.4 167.267 271.4C168 271.4 168.653 271.54 169.227 271.82C169.813 272.1 170.28 272.5 170.627 273.02C170.987 273.527 171.207 274.127 171.287 274.82V277.48C171.207 278.16 170.987 278.76 170.627 279.28C170.267 279.787 169.8 280.187 169.227 280.48C168.653 280.76 168.007 280.9 167.287 280.9ZM167.547 279.56C168.2 279.56 168.767 279.42 169.247 279.14C169.74 278.86 170.12 278.467 170.387 277.96C170.667 277.44 170.807 276.833 170.807 276.14C170.807 275.46 170.667 274.867 170.387 274.36C170.12 273.853 169.74 273.453 169.247 273.16C168.753 272.867 168.18 272.72 167.527 272.72C166.873 272.72 166.287 272.867 165.767 273.16C165.26 273.453 164.86 273.853 164.567 274.36C164.287 274.867 164.147 275.46 164.147 276.14C164.147 276.807 164.293 277.4 164.587 277.92C164.88 278.44 165.28 278.847 165.787 279.14C166.293 279.42 166.88 279.56 167.547 279.56ZM179.287 281.2C178.341 281.2 177.494 280.987 176.747 280.56C176.001 280.133 175.407 279.547 174.967 278.8C174.541 278.053 174.327 277.213 174.327 276.28C174.327 275.36 174.541 274.533 174.967 273.8C175.394 273.053 175.974 272.467 176.707 272.04C177.441 271.613 178.261 271.4 179.167 271.4C180.021 271.4 180.774 271.593 181.427 271.98C182.094 272.367 182.614 272.907 182.987 273.6C183.374 274.28 183.567 275.067 183.567 275.96C183.567 276.067 183.561 276.193 183.547 276.34C183.534 276.473 183.507 276.633 183.467 276.82H175.327V275.62H182.707L182.207 276.06C182.221 275.367 182.101 274.773 181.847 274.28C181.607 273.773 181.254 273.387 180.787 273.12C180.334 272.84 179.781 272.7 179.127 272.7C178.447 272.7 177.854 272.847 177.347 273.14C176.841 273.433 176.441 273.847 176.147 274.38C175.867 274.9 175.727 275.52 175.727 276.24C175.727 276.96 175.874 277.593 176.167 278.14C176.474 278.687 176.894 279.113 177.427 279.42C177.974 279.727 178.601 279.88 179.307 279.88C179.881 279.88 180.407 279.78 180.887 279.58C181.367 279.367 181.774 279.053 182.107 278.64L183.007 279.56C182.567 280.08 182.021 280.487 181.367 280.78C180.727 281.06 180.034 281.2 179.287 281.2ZM188.589 281.2C188.082 281.2 187.596 281.133 187.129 281C186.662 280.853 186.236 280.653 185.849 280.4C185.476 280.147 185.149 279.847 184.869 279.5L185.769 278.58C186.142 279.033 186.562 279.373 187.029 279.6C187.509 279.813 188.042 279.92 188.629 279.92C189.256 279.92 189.742 279.8 190.089 279.56C190.449 279.32 190.629 278.987 190.629 278.56C190.629 278.16 190.502 277.847 190.249 277.62C189.996 277.393 189.669 277.213 189.269 277.08C188.882 276.947 188.469 276.82 188.029 276.7C187.589 276.567 187.169 276.407 186.769 276.22C186.369 276.02 186.042 275.747 185.789 275.4C185.549 275.053 185.429 274.6 185.429 274.04C185.429 273.507 185.556 273.047 185.809 272.66C186.076 272.26 186.449 271.953 186.929 271.74C187.422 271.513 188.002 271.4 188.669 271.4C189.376 271.4 190.016 271.527 190.589 271.78C191.162 272.033 191.622 272.407 191.969 272.9L191.069 273.8C190.789 273.44 190.436 273.167 190.009 272.98C189.596 272.78 189.129 272.68 188.609 272.68C188.009 272.68 187.549 272.8 187.229 273.04C186.922 273.267 186.769 273.567 186.769 273.94C186.769 274.3 186.896 274.587 187.149 274.8C187.402 275 187.722 275.167 188.109 275.3C188.509 275.42 188.929 275.547 189.369 275.68C189.809 275.8 190.229 275.967 190.629 276.18C191.029 276.38 191.349 276.66 191.589 277.02C191.842 277.367 191.969 277.84 191.969 278.44C191.969 279.28 191.662 279.953 191.049 280.46C190.449 280.953 189.629 281.2 188.589 281.2ZM195.646 281V267.64H197.046V281H195.646ZM193.266 272.86V271.6H199.406V272.86H193.266ZM201.334 281V271.6H202.754V281H201.334ZM202.034 269.56C201.767 269.56 201.541 269.467 201.354 269.28C201.167 269.08 201.074 268.847 201.074 268.58C201.074 268.3 201.167 268.067 201.354 267.88C201.541 267.693 201.767 267.6 202.034 267.6C202.327 267.6 202.561 267.693 202.734 267.88C202.921 268.067 203.014 268.3 203.014 268.58C203.014 268.847 202.921 269.08 202.734 269.28C202.561 269.467 202.327 269.56 202.034 269.56ZM207.052 281V267.64H208.452V281H207.052ZM204.672 272.86V271.6H210.812V272.86H204.672ZM216.488 281.2C215.595 281.2 214.795 280.987 214.088 280.56C213.382 280.12 212.822 279.533 212.408 278.8C212.008 278.067 211.808 277.24 211.808 276.32C211.808 275.387 212.008 274.553 212.408 273.82C212.822 273.073 213.382 272.487 214.088 272.06C214.795 271.62 215.588 271.4 216.468 271.4C217.188 271.4 217.828 271.547 218.388 271.84C218.962 272.12 219.422 272.52 219.768 273.04C220.128 273.547 220.348 274.14 220.428 274.82V277.76C220.348 278.44 220.128 279.04 219.768 279.56C219.422 280.08 218.962 280.487 218.388 280.78C217.828 281.06 217.195 281.2 216.488 281.2ZM216.708 279.86C217.682 279.86 218.462 279.533 219.048 278.88C219.648 278.227 219.948 277.367 219.948 276.3C219.948 275.593 219.808 274.973 219.528 274.44C219.262 273.893 218.882 273.473 218.388 273.18C217.908 272.873 217.342 272.72 216.688 272.72C216.022 272.72 215.428 272.873 214.908 273.18C214.402 273.487 213.995 273.913 213.688 274.46C213.395 274.993 213.248 275.607 213.248 276.3C213.248 276.993 213.395 277.607 213.688 278.14C213.995 278.673 214.408 279.093 214.928 279.4C215.448 279.707 216.042 279.86 216.708 279.86ZM219.868 281V278.48L220.148 276.16L219.868 273.9V271.6H221.268V281H219.868ZM228.404 281V271.6H229.824V281H228.404ZM229.104 269.56C228.838 269.56 228.611 269.467 228.424 269.28C228.238 269.08 228.144 268.847 228.144 268.58C228.144 268.3 228.238 268.067 228.424 267.88C228.611 267.693 228.838 267.6 229.104 267.6C229.398 267.6 229.631 267.693 229.804 267.88C229.991 268.067 230.084 268.3 230.084 268.58C230.084 268.847 229.991 269.08 229.804 269.28C229.631 269.467 229.398 269.56 229.104 269.56ZM239.502 281V275.48C239.502 274.653 239.256 273.987 238.762 273.48C238.282 272.96 237.642 272.7 236.842 272.7C236.296 272.7 235.816 272.82 235.402 273.06C234.989 273.3 234.662 273.627 234.422 274.04C234.182 274.453 234.062 274.927 234.062 275.46L233.422 275.1C233.422 274.393 233.589 273.76 233.922 273.2C234.256 272.64 234.702 272.2 235.262 271.88C235.836 271.56 236.489 271.4 237.222 271.4C237.942 271.4 238.582 271.573 239.142 271.92C239.702 272.267 240.136 272.733 240.442 273.32C240.762 273.907 240.922 274.547 240.922 275.24V281H239.502ZM232.662 281V271.6H234.062V281H232.662ZM251.558 281.2C250.798 281.2 250.118 281.027 249.518 280.68C248.918 280.32 248.445 279.833 248.098 279.22C247.765 278.607 247.598 277.887 247.598 277.06V271.6H249.018V277C249.018 277.573 249.118 278.073 249.318 278.5C249.531 278.927 249.831 279.26 250.218 279.5C250.605 279.74 251.051 279.86 251.558 279.86C252.345 279.86 252.965 279.6 253.418 279.08C253.885 278.56 254.118 277.867 254.118 277V271.6H255.518V277.06C255.518 277.873 255.351 278.593 255.018 279.22C254.685 279.847 254.218 280.333 253.618 280.68C253.018 281.027 252.331 281.2 251.558 281.2ZM264.971 281V275.48C264.971 274.653 264.724 273.987 264.231 273.48C263.751 272.96 263.111 272.7 262.311 272.7C261.764 272.7 261.284 272.82 260.871 273.06C260.458 273.3 260.131 273.627 259.891 274.04C259.651 274.453 259.531 274.927 259.531 275.46L258.891 275.1C258.891 274.393 259.058 273.76 259.391 273.2C259.724 272.64 260.171 272.2 260.731 271.88C261.304 271.56 261.958 271.4 262.691 271.4C263.411 271.4 264.051 271.573 264.611 271.92C265.171 272.267 265.604 272.733 265.911 273.32C266.231 273.907 266.391 274.547 266.391 275.24V281H264.971ZM258.131 281V271.6H259.531V281H258.131ZM276.187 281.2C275.68 281.2 275.193 281.133 274.727 281C274.26 280.853 273.833 280.653 273.447 280.4C273.073 280.147 272.747 279.847 272.467 279.5L273.367 278.58C273.74 279.033 274.16 279.373 274.627 279.6C275.107 279.813 275.64 279.92 276.227 279.92C276.853 279.92 277.34 279.8 277.687 279.56C278.047 279.32 278.227 278.987 278.227 278.56C278.227 278.16 278.1 277.847 277.847 277.62C277.593 277.393 277.267 277.213 276.867 277.08C276.48 276.947 276.067 276.82 275.627 276.7C275.187 276.567 274.767 276.407 274.367 276.22C273.967 276.02 273.64 275.747 273.387 275.4C273.147 275.053 273.027 274.6 273.027 274.04C273.027 273.507 273.153 273.047 273.407 272.66C273.673 272.26 274.047 271.953 274.527 271.74C275.02 271.513 275.6 271.4 276.267 271.4C276.973 271.4 277.613 271.527 278.187 271.78C278.76 272.033 279.22 272.407 279.567 272.9L278.667 273.8C278.387 273.44 278.033 273.167 277.607 272.98C277.193 272.78 276.727 272.68 276.207 272.68C275.607 272.68 275.147 272.8 274.827 273.04C274.52 273.267 274.367 273.567 274.367 273.94C274.367 274.3 274.493 274.587 274.747 274.8C275 275 275.32 275.167 275.707 275.3C276.107 275.42 276.527 275.547 276.967 275.68C277.407 275.8 277.827 275.967 278.227 276.18C278.627 276.38 278.947 276.66 279.187 277.02C279.44 277.367 279.567 277.84 279.567 278.44C279.567 279.28 279.26 279.953 278.647 280.46C278.047 280.953 277.227 281.2 276.187 281.2ZM286.043 281.2C285.137 281.2 284.31 280.98 283.563 280.54C282.83 280.1 282.243 279.507 281.803 278.76C281.377 278.013 281.163 277.18 281.163 276.26C281.163 275.353 281.377 274.533 281.803 273.8C282.243 273.067 282.83 272.487 283.563 272.06C284.31 271.62 285.137 271.4 286.043 271.4C286.963 271.4 287.79 271.613 288.523 272.04C289.257 272.467 289.837 273.053 290.263 273.8C290.703 274.533 290.923 275.353 290.923 276.26C290.923 277.193 290.703 278.033 290.263 278.78C289.837 279.513 289.257 280.1 288.523 280.54C287.79 280.98 286.963 281.2 286.043 281.2ZM286.043 279.84C286.71 279.84 287.297 279.687 287.803 279.38C288.323 279.073 288.73 278.647 289.023 278.1C289.33 277.553 289.483 276.94 289.483 276.26C289.483 275.58 289.33 274.98 289.023 274.46C288.73 273.927 288.323 273.507 287.803 273.2C287.297 272.893 286.71 272.74 286.043 272.74C285.39 272.74 284.803 272.893 284.283 273.2C283.763 273.507 283.357 273.927 283.063 274.46C282.77 274.98 282.623 275.58 282.623 276.26C282.623 276.953 282.77 277.573 283.063 278.12C283.357 278.653 283.763 279.073 284.283 279.38C284.803 279.687 285.39 279.84 286.043 279.84ZM293.15 281V266.84H294.55V281H293.15ZM301.649 281.2C300.742 281.2 299.915 280.98 299.169 280.54C298.435 280.1 297.849 279.507 297.409 278.76C296.982 278.013 296.769 277.18 296.769 276.26C296.769 275.353 296.982 274.533 297.409 273.8C297.849 273.067 298.435 272.487 299.169 272.06C299.915 271.62 300.742 271.4 301.649 271.4C302.569 271.4 303.395 271.613 304.129 272.04C304.862 272.467 305.442 273.053 305.869 273.8C306.309 274.533 306.529 275.353 306.529 276.26C306.529 277.193 306.309 278.033 305.869 278.78C305.442 279.513 304.862 280.1 304.129 280.54C303.395 280.98 302.569 281.2 301.649 281.2ZM301.649 279.84C302.315 279.84 302.902 279.687 303.409 279.38C303.929 279.073 304.335 278.647 304.629 278.1C304.935 277.553 305.089 276.94 305.089 276.26C305.089 275.58 304.935 274.98 304.629 274.46C304.335 273.927 303.929 273.507 303.409 273.2C302.902 272.893 302.315 272.74 301.649 272.74C300.995 272.74 300.409 272.893 299.889 273.2C299.369 273.507 298.962 273.927 298.669 274.46C298.375 274.98 298.229 275.58 298.229 276.26C298.229 276.953 298.375 277.573 298.669 278.12C298.962 278.653 299.369 279.073 299.889 279.38C300.409 279.687 300.995 279.84 301.649 279.84ZM43.76 306.2C42.8133 306.2 41.9667 305.987 41.22 305.56C40.4733 305.133 39.88 304.547 39.44 303.8C39.0133 303.053 38.8 302.213 38.8 301.28C38.8 300.36 39.0133 299.533 39.44 298.8C39.8667 298.053 40.4467 297.467 41.18 297.04C41.9133 296.613 42.7333 296.4 43.64 296.4C44.4933 296.4 45.2467 296.593 45.9 296.98C46.5667 297.367 47.0867 297.907 47.46 298.6C47.8467 299.28 48.04 300.067 48.04 300.96C48.04 301.067 48.0333 301.193 48.02 301.34C48.0067 301.473 47.98 301.633 47.94 301.82H39.8V300.62H47.18L46.68 301.06C46.6933 300.367 46.5733 299.773 46.32 299.28C46.08 298.773 45.7267 298.387 45.26 298.12C44.8067 297.84 44.2533 297.7 43.6 297.7C42.92 297.7 42.3267 297.847 41.82 298.14C41.3133 298.433 40.9133 298.847 40.62 299.38C40.34 299.9 40.2 300.52 40.2 301.24C40.2 301.96 40.3467 302.593 40.64 303.14C40.9467 303.687 41.3667 304.113 41.9 304.42C42.4467 304.727 43.0733 304.88 43.78 304.88C44.3533 304.88 44.88 304.78 45.36 304.58C45.84 304.367 46.2467 304.053 46.58 303.64L47.48 304.56C47.04 305.08 46.4933 305.487 45.84 305.78C45.2 306.06 44.5067 306.2 43.76 306.2ZM54.4617 306.2C53.5417 306.2 52.7084 305.987 51.9617 305.56C51.2284 305.12 50.6417 304.527 50.2017 303.78C49.7751 303.033 49.5617 302.2 49.5617 301.28C49.5617 300.36 49.7751 299.533 50.2017 298.8C50.6417 298.053 51.2284 297.467 51.9617 297.04C52.7084 296.613 53.5417 296.4 54.4617 296.4C55.1684 296.4 55.8284 296.533 56.4417 296.8C57.0551 297.067 57.5751 297.44 58.0017 297.92L57.0817 298.86C56.7617 298.5 56.3751 298.227 55.9217 298.04C55.4684 297.84 54.9817 297.74 54.4617 297.74C53.7951 297.74 53.2017 297.893 52.6817 298.2C52.1617 298.507 51.7551 298.927 51.4617 299.46C51.1684 299.98 51.0217 300.587 51.0217 301.28C51.0217 301.96 51.1684 302.573 51.4617 303.12C51.7551 303.653 52.1617 304.073 52.6817 304.38C53.2017 304.687 53.7951 304.84 54.4617 304.84C54.9951 304.84 55.4884 304.747 55.9417 304.56C56.3951 304.36 56.7817 304.08 57.1017 303.72L58.0417 304.66C57.6017 305.153 57.0684 305.533 56.4417 305.8C55.8284 306.067 55.1684 306.2 54.4617 306.2ZM64.0902 306.2C63.1835 306.2 62.3568 305.98 61.6102 305.54C60.8768 305.1 60.2902 304.507 59.8502 303.76C59.4235 303.013 59.2102 302.18 59.2102 301.26C59.2102 300.353 59.4235 299.533 59.8502 298.8C60.2902 298.067 60.8768 297.487 61.6102 297.06C62.3568 296.62 63.1835 296.4 64.0902 296.4C65.0102 296.4 65.8368 296.613 66.5702 297.04C67.3035 297.467 67.8835 298.053 68.3102 298.8C68.7502 299.533 68.9702 300.353 68.9702 301.26C68.9702 302.193 68.7502 303.033 68.3102 303.78C67.8835 304.513 67.3035 305.1 66.5702 305.54C65.8368 305.98 65.0102 306.2 64.0902 306.2ZM64.0902 304.84C64.7568 304.84 65.3435 304.687 65.8502 304.38C66.3702 304.073 66.7768 303.647 67.0702 303.1C67.3768 302.553 67.5302 301.94 67.5302 301.26C67.5302 300.58 67.3768 299.98 67.0702 299.46C66.7768 298.927 66.3702 298.507 65.8502 298.2C65.3435 297.893 64.7568 297.74 64.0902 297.74C63.4368 297.74 62.8502 297.893 62.3302 298.2C61.8102 298.507 61.4035 298.927 61.1102 299.46C60.8168 299.98 60.6702 300.58 60.6702 301.26C60.6702 301.953 60.8168 302.573 61.1102 303.12C61.4035 303.653 61.8102 304.073 62.3302 304.38C62.8502 304.687 63.4368 304.84 64.0902 304.84ZM74.0773 306.2C73.5707 306.2 73.084 306.133 72.6173 306C72.1507 305.853 71.724 305.653 71.3373 305.4C70.964 305.147 70.6373 304.847 70.3573 304.5L71.2573 303.58C71.6307 304.033 72.0507 304.373 72.5173 304.6C72.9973 304.813 73.5307 304.92 74.1173 304.92C74.744 304.92 75.2307 304.8 75.5773 304.56C75.9373 304.32 76.1173 303.987 76.1173 303.56C76.1173 303.16 75.9907 302.847 75.7373 302.62C75.484 302.393 75.1573 302.213 74.7573 302.08C74.3707 301.947 73.9573 301.82 73.5173 301.7C73.0773 301.567 72.6573 301.407 72.2573 301.22C71.8573 301.02 71.5307 300.747 71.2773 300.4C71.0373 300.053 70.9173 299.6 70.9173 299.04C70.9173 298.507 71.044 298.047 71.2973 297.66C71.564 297.26 71.9373 296.953 72.4173 296.74C72.9107 296.513 73.4907 296.4 74.1573 296.4C74.864 296.4 75.504 296.527 76.0773 296.78C76.6507 297.033 77.1107 297.407 77.4573 297.9L76.5573 298.8C76.2773 298.44 75.924 298.167 75.4973 297.98C75.084 297.78 74.6173 297.68 74.0973 297.68C73.4973 297.68 73.0373 297.8 72.7173 298.04C72.4107 298.267 72.2573 298.567 72.2573 298.94C72.2573 299.3 72.384 299.587 72.6373 299.8C72.8907 300 73.2107 300.167 73.5973 300.3C73.9973 300.42 74.4173 300.547 74.8573 300.68C75.2973 300.8 75.7173 300.967 76.1173 301.18C76.5173 301.38 76.8373 301.66 77.0773 302.02C77.3307 302.367 77.4573 302.84 77.4573 303.44C77.4573 304.28 77.1507 304.953 76.5373 305.46C75.9373 305.953 75.1173 306.2 74.0773 306.2ZM79.6739 306V296.6H81.0939V306H79.6739ZM80.3739 294.56C80.1072 294.56 79.8806 294.467 79.6939 294.28C79.5072 294.08 79.4139 293.847 79.4139 293.58C79.4139 293.3 79.5072 293.067 79.6939 292.88C79.8806 292.693 80.1072 292.6 80.3739 292.6C80.6672 292.6 80.9006 292.693 81.0739 292.88C81.2606 293.067 81.3539 293.3 81.3539 293.58C81.3539 293.847 81.2606 294.08 81.0739 294.28C80.9006 294.467 80.6672 294.56 80.3739 294.56ZM86.8117 306.2C86.3051 306.2 85.8184 306.133 85.3517 306C84.8851 305.853 84.4584 305.653 84.0717 305.4C83.6984 305.147 83.3717 304.847 83.0917 304.5L83.9917 303.58C84.3651 304.033 84.7851 304.373 85.2517 304.6C85.7317 304.813 86.2651 304.92 86.8517 304.92C87.4784 304.92 87.9651 304.8 88.3117 304.56C88.6717 304.32 88.8517 303.987 88.8517 303.56C88.8517 303.16 88.7251 302.847 88.4717 302.62C88.2184 302.393 87.8917 302.213 87.4917 302.08C87.1051 301.947 86.6917 301.82 86.2517 301.7C85.8117 301.567 85.3917 301.407 84.9917 301.22C84.5917 301.02 84.2651 300.747 84.0117 300.4C83.7717 300.053 83.6517 299.6 83.6517 299.04C83.6517 298.507 83.7784 298.047 84.0317 297.66C84.2984 297.26 84.6717 296.953 85.1517 296.74C85.6451 296.513 86.2251 296.4 86.8917 296.4C87.5984 296.4 88.2384 296.527 88.8117 296.78C89.3851 297.033 89.8451 297.407 90.1917 297.9L89.2917 298.8C89.0117 298.44 88.6584 298.167 88.2317 297.98C87.8184 297.78 87.3517 297.68 86.8317 297.68C86.2317 297.68 85.7717 297.8 85.4517 298.04C85.1451 298.267 84.9917 298.567 84.9917 298.94C84.9917 299.3 85.1184 299.587 85.3717 299.8C85.6251 300 85.9451 300.167 86.3317 300.3C86.7317 300.42 87.1517 300.547 87.5917 300.68C88.0317 300.8 88.4517 300.967 88.8517 301.18C89.2517 301.38 89.5717 301.66 89.8117 302.02C90.0651 302.367 90.1917 302.84 90.1917 303.44C90.1917 304.28 89.8851 304.953 89.2717 305.46C88.6717 305.953 87.8517 306.2 86.8117 306.2ZM93.8683 306V292.64H95.2683V306H93.8683ZM91.4883 297.86V296.6H97.6283V297.86H91.4883ZM103.565 306.2C102.618 306.2 101.771 305.987 101.025 305.56C100.278 305.133 99.6847 304.547 99.2447 303.8C98.818 303.053 98.6047 302.213 98.6047 301.28C98.6047 300.36 98.818 299.533 99.2447 298.8C99.6714 298.053 100.251 297.467 100.985 297.04C101.718 296.613 102.538 296.4 103.445 296.4C104.298 296.4 105.051 296.593 105.705 296.98C106.371 297.367 106.891 297.907 107.265 298.6C107.651 299.28 107.845 300.067 107.845 300.96C107.845 301.067 107.838 301.193 107.825 301.34C107.811 301.473 107.785 301.633 107.745 301.82H99.6047V300.62H106.985L106.485 301.06C106.498 300.367 106.378 299.773 106.125 299.28C105.885 298.773 105.531 298.387 105.065 298.12C104.611 297.84 104.058 297.7 103.405 297.7C102.725 297.7 102.131 297.847 101.625 298.14C101.118 298.433 100.718 298.847 100.425 299.38C100.145 299.9 100.005 300.52 100.005 301.24C100.005 301.96 100.151 302.593 100.445 303.14C100.751 303.687 101.171 304.113 101.705 304.42C102.251 304.727 102.878 304.88 103.585 304.88C104.158 304.88 104.685 304.78 105.165 304.58C105.645 304.367 106.051 304.053 106.385 303.64L107.285 304.56C106.845 305.08 106.298 305.487 105.645 305.78C105.005 306.06 104.311 306.2 103.565 306.2ZM109.986 306V296.6H111.386V306H109.986ZM116.446 306V300.24C116.446 299.467 116.213 298.853 115.746 298.4C115.28 297.933 114.693 297.7 113.986 297.7C113.506 297.7 113.066 297.807 112.666 298.02C112.28 298.22 111.966 298.507 111.726 298.88C111.5 299.253 111.386 299.7 111.386 300.22L110.746 299.96C110.746 299.24 110.906 298.613 111.226 298.08C111.546 297.547 111.973 297.133 112.506 296.84C113.053 296.547 113.666 296.4 114.346 296.4C115.013 296.4 115.606 296.547 116.126 296.84C116.66 297.133 117.08 297.547 117.386 298.08C117.706 298.613 117.866 299.247 117.866 299.98V306H116.446ZM122.926 306V300.24C122.926 299.467 122.693 298.853 122.226 298.4C121.76 297.933 121.166 297.7 120.446 297.7C119.98 297.7 119.546 297.807 119.146 298.02C118.76 298.22 118.446 298.507 118.206 298.88C117.98 299.253 117.866 299.7 117.866 300.22L117.026 299.96C117.066 299.24 117.253 298.613 117.586 298.08C117.933 297.547 118.38 297.133 118.926 296.84C119.486 296.547 120.1 296.4 120.766 296.4C121.433 296.4 122.033 296.547 122.566 296.84C123.113 297.133 123.54 297.547 123.846 298.08C124.166 298.613 124.326 299.247 124.326 299.98V306H122.926ZM131.039 306.2C130.146 306.2 129.346 305.987 128.639 305.56C127.932 305.12 127.372 304.533 126.959 303.8C126.559 303.067 126.359 302.24 126.359 301.32C126.359 300.387 126.559 299.553 126.959 298.82C127.372 298.073 127.932 297.487 128.639 297.06C129.346 296.62 130.139 296.4 131.019 296.4C131.739 296.4 132.379 296.547 132.939 296.84C133.512 297.12 133.972 297.52 134.319 298.04C134.679 298.547 134.899 299.14 134.979 299.82V302.76C134.899 303.44 134.679 304.04 134.319 304.56C133.972 305.08 133.512 305.487 132.939 305.78C132.379 306.06 131.746 306.2 131.039 306.2ZM131.259 304.86C132.232 304.86 133.012 304.533 133.599 303.88C134.199 303.227 134.499 302.367 134.499 301.3C134.499 300.593 134.359 299.973 134.079 299.44C133.812 298.893 133.432 298.473 132.939 298.18C132.459 297.873 131.892 297.72 131.239 297.72C130.572 297.72 129.979 297.873 129.459 298.18C128.952 298.487 128.546 298.913 128.239 299.46C127.946 299.993 127.799 300.607 127.799 301.3C127.799 301.993 127.946 302.607 128.239 303.14C128.546 303.673 128.959 304.093 129.479 304.4C129.999 304.707 130.592 304.86 131.259 304.86ZM134.419 306V303.48L134.699 301.16L134.419 298.9V296.6H135.819V306H134.419ZM140.138 306.2C139.805 306.2 139.532 306.087 139.318 305.86C139.105 305.633 138.998 305.36 138.998 305.04C138.998 304.72 139.105 304.453 139.318 304.24C139.532 304.013 139.805 303.9 140.138 303.9C140.458 303.9 140.725 304.013 140.938 304.24C141.152 304.453 141.258 304.72 141.258 305.04C141.258 305.36 141.152 305.633 140.938 305.86C140.725 306.087 140.458 306.2 140.138 306.2Z" fill="white"/>
</g>
<defs>
<radialGradient id="paint0_radial_307_876" cx="0" cy="0" r="1" gradientUnits="userSpaceOnUse" gradientTransform="translate(184 97.7308) rotate(90) scale(252.269 265.243)">
<stop offset="0.100962" stop-color="#901D6B"/>
<stop offset="1" stop-color="#2A081F"/>
</radialGradient>
<clipPath id="clip0_307_876">
<rect width="368" height="350" rx="50" fill="white"/>
</clipPath>
</defs>
</svg>
