<svg width="972" height="116" viewBox="0 0 972 116" fill="none" xmlns="http://www.w3.org/2000/svg">
<path d="M12.4578 25.8518C10.6816 25.8518 9.0253 25.5277 7.48906 24.8796C5.97683 24.2315 4.65662 23.3194 3.52845 22.1432C2.40028 20.967 1.52414 19.6108 0.900047 18.0746C0.299954 16.5143 -9.17606e-05 14.8461 -9.17606e-05 13.0698C-9.17606e-05 11.2935 0.299954 9.63727 0.900047 8.10104C1.52414 6.5408 2.38828 5.18459 3.49245 4.03241C4.62062 2.88023 5.94082 1.9801 7.45305 1.332C8.96529 0.683898 10.5975 0.359848 12.3498 0.359848C14.2461 0.359848 15.9384 0.695899 17.4266 1.368C18.9388 2.04011 20.259 2.96425 21.3872 4.14043L19.5869 5.9407C18.7228 4.98056 17.6786 4.23644 16.4544 3.70836C15.2303 3.15628 13.862 2.88023 12.3498 2.88023C10.9576 2.88023 9.6734 3.13227 8.49722 3.63635C7.34504 4.14043 6.32488 4.86054 5.43674 5.79668C4.57261 6.70882 3.90051 7.78899 3.42043 9.03718C2.96436 10.2614 2.73633 11.6056 2.73633 13.0698C2.73633 14.534 2.97637 15.8902 3.45644 17.1384C3.93651 18.3866 4.60862 19.4788 5.47275 20.4149C6.33688 21.3271 7.35704 22.0352 8.53322 22.5393C9.7094 23.0433 10.9936 23.2954 12.3858 23.2954C13.9701 23.2954 15.3743 23.0193 16.5985 22.4672C17.8467 21.9152 18.9028 21.159 19.7669 20.1989L21.5672 22.0352C20.4631 23.2114 19.1429 24.1475 17.6066 24.8436C16.0704 25.5157 14.3541 25.8518 12.4578 25.8518ZM32.613 25.8518C30.9808 25.8518 29.4926 25.4557 28.1484 24.6636C26.8282 23.8715 25.772 22.8033 24.9799 21.4591C24.2118 20.1149 23.8277 18.6147 23.8277 16.9584C23.8277 15.3261 24.2118 13.8499 24.9799 12.5297C25.772 11.2095 26.8282 10.1654 28.1484 9.39724C29.4926 8.60511 30.9808 8.20905 32.613 8.20905C34.2693 8.20905 35.7575 8.59311 37.0777 9.36123C38.3979 10.1293 39.4421 11.1855 40.2102 12.5297C41.0023 13.8499 41.3984 15.3261 41.3984 16.9584C41.3984 18.6387 41.0023 20.1509 40.2102 21.4951C39.4421 22.8153 38.3979 23.8715 37.0777 24.6636C35.7575 25.4557 34.2693 25.8518 32.613 25.8518ZM32.613 23.4034C33.8132 23.4034 34.8694 23.1273 35.7815 22.5753C36.7177 22.0232 37.4498 21.2551 37.9779 20.2709C38.53 19.2868 38.806 18.1826 38.806 16.9584C38.806 15.7342 38.53 14.654 37.9779 13.7179C37.4498 12.7578 36.7177 12.0016 35.7815 11.4496C34.8694 10.8975 33.8132 10.6214 32.613 10.6214C31.4369 10.6214 30.3807 10.8975 29.4446 11.4496C28.5084 12.0016 27.7763 12.7578 27.2482 13.7179C26.7201 14.654 26.4561 15.7342 26.4561 16.9584C26.4561 18.2066 26.7201 19.3228 27.2482 20.3069C27.7763 21.2671 28.5084 22.0232 29.4446 22.5753C30.3807 23.1273 31.4369 23.4034 32.613 23.4034ZM57.7218 25.4917V15.5542C57.7218 14.066 57.2778 12.8658 56.3896 11.9536C55.5255 11.0175 54.3733 10.5494 52.9331 10.5494C51.949 10.5494 51.0848 10.7654 50.3407 11.1975C49.5966 11.6296 49.0085 12.2177 48.5764 12.9618C48.1444 13.7059 47.9283 14.558 47.9283 15.5182L46.7762 14.8701C46.7762 13.5979 47.0762 12.4577 47.6763 11.4496C48.2764 10.4414 49.0805 9.64928 50.0887 9.07319C51.1208 8.4971 52.297 8.20905 53.6172 8.20905C54.9134 8.20905 56.0656 8.5211 57.0737 9.1452C58.0819 9.76929 58.862 10.6094 59.4141 11.6656C59.9902 12.7217 60.2782 13.8739 60.2782 15.1221V25.4917H57.7218ZM45.408 25.4917V8.56911H47.9283V25.4917H45.408ZM72.7286 25.4917V8.56911H75.2849V25.4917H72.7286ZM73.9888 4.89654C73.5087 4.89654 73.1006 4.72852 72.7646 4.39247C72.4285 4.03241 72.2605 3.61235 72.2605 3.13227C72.2605 2.6282 72.4285 2.20813 72.7646 1.87208C73.1006 1.53603 73.5087 1.368 73.9888 1.368C74.5168 1.368 74.9369 1.53603 75.2489 1.87208C75.585 2.20813 75.753 2.6282 75.753 3.13227C75.753 3.61235 75.585 4.03241 75.2489 4.39247C74.9369 4.72852 74.5168 4.89654 73.9888 4.89654ZM80.3938 25.4917V-0.000207218H82.9142V25.4917H80.3938ZM108.073 25.4917V15.5542C108.073 14.066 107.629 12.8658 106.741 11.9536C105.877 11.0175 104.725 10.5494 103.285 10.5494C102.3 10.5494 101.436 10.7654 100.692 11.1975C99.9481 11.6296 99.36 12.2177 98.9279 12.9618C98.4959 13.7059 98.2798 14.558 98.2798 15.5182L97.1277 14.8701C97.1277 13.5979 97.4277 12.4577 98.0278 11.4496C98.6279 10.4414 99.432 9.64928 100.44 9.07319C101.472 8.4971 102.649 8.20905 103.969 8.20905C105.265 8.20905 106.417 8.5211 107.425 9.1452C108.433 9.76929 109.214 10.6094 109.766 11.6656C110.342 12.7217 110.63 13.8739 110.63 15.1221V25.4917H108.073ZM95.7594 25.4917V8.56911H98.2798V25.4917H95.7594ZM123.014 25.8518C121.381 25.8518 119.893 25.4557 118.549 24.6636C117.229 23.8715 116.173 22.8033 115.38 21.4591C114.612 20.1149 114.228 18.6147 114.228 16.9584C114.228 15.3261 114.612 13.8499 115.38 12.5297C116.173 11.2095 117.229 10.1654 118.549 9.39724C119.893 8.60511 121.381 8.20905 123.014 8.20905C124.67 8.20905 126.158 8.59311 127.478 9.36123C128.799 10.1293 129.843 11.1855 130.611 12.5297C131.403 13.8499 131.799 15.3261 131.799 16.9584C131.799 18.6387 131.403 20.1509 130.611 21.4951C129.843 22.8153 128.799 23.8715 127.478 24.6636C126.158 25.4557 124.67 25.8518 123.014 25.8518ZM123.014 23.4034C124.214 23.4034 125.27 23.1273 126.182 22.5753C127.118 22.0232 127.85 21.2551 128.378 20.2709C128.931 19.2868 129.207 18.1826 129.207 16.9584C129.207 15.7342 128.931 14.654 128.378 13.7179C127.85 12.7578 127.118 12.0016 126.182 11.4496C125.27 10.8975 124.214 10.6214 123.014 10.6214C121.837 10.6214 120.781 10.8975 119.845 11.4496C118.909 12.0016 118.177 12.7578 117.649 13.7179C117.121 14.654 116.857 15.7342 116.857 16.9584C116.857 18.2066 117.121 19.3228 117.649 20.3069C118.177 21.2671 118.909 22.0232 119.845 22.5753C120.781 23.1273 121.837 23.4034 123.014 23.4034ZM140.993 25.8518C140.081 25.8518 139.205 25.7317 138.365 25.4917C137.525 25.2277 136.757 24.8676 136.061 24.4115C135.389 23.9555 134.8 23.4154 134.296 22.7913L135.917 21.135C136.589 21.9512 137.345 22.5633 138.185 22.9713C139.049 23.3554 140.009 23.5474 141.065 23.5474C142.194 23.5474 143.07 23.3314 143.694 22.8993C144.342 22.4672 144.666 21.8672 144.666 21.099C144.666 20.3789 144.438 19.8148 143.982 19.4068C143.526 18.9987 142.938 18.6747 142.218 18.4346C141.521 18.1946 140.777 17.9666 139.985 17.7505C139.193 17.5105 138.437 17.2224 137.717 16.8864C136.997 16.5263 136.409 16.0343 135.953 15.4102C135.521 14.7861 135.304 13.9699 135.304 12.9618C135.304 12.0016 135.533 11.1735 135.989 10.4774C136.469 9.75729 137.141 9.20521 138.005 8.82115C138.893 8.41309 139.937 8.20905 141.137 8.20905C142.41 8.20905 143.562 8.43709 144.594 8.89316C145.626 9.34923 146.454 10.0213 147.078 10.9095L145.458 12.5297C144.954 11.8816 144.318 11.3895 143.55 11.0535C142.806 10.6934 141.966 10.5134 141.029 10.5134C139.949 10.5134 139.121 10.7294 138.545 11.1615C137.993 11.5696 137.717 12.1097 137.717 12.7818C137.717 13.4299 137.945 13.9459 138.401 14.33C138.857 14.6901 139.433 14.9901 140.129 15.2301C140.849 15.4462 141.605 15.6742 142.398 15.9142C143.19 16.1303 143.946 16.4303 144.666 16.8144C145.386 17.1744 145.962 17.6785 146.394 18.3266C146.85 18.9507 147.078 19.8028 147.078 20.883C147.078 22.3952 146.526 23.6074 145.422 24.5196C144.342 25.4077 142.866 25.8518 140.993 25.8518ZM153.697 25.4917V1.44001H156.218V25.4917H153.697ZM149.412 10.8375V8.56911H160.466V10.8375H149.412ZM163.938 25.4917V8.56911H166.458V25.4917H163.938ZM166.458 15.6262L165.414 15.1581C165.414 13.0218 165.93 11.3295 166.962 10.0813C168.019 8.83315 169.459 8.20905 171.283 8.20905C172.123 8.20905 172.891 8.36508 173.587 8.67713C174.283 8.96517 174.932 9.43324 175.532 10.0813L173.875 11.8456C173.467 11.3895 173.011 11.0655 172.507 10.8735C172.027 10.6814 171.475 10.5854 170.851 10.5854C169.555 10.5854 168.499 11.0175 167.682 11.8816C166.866 12.7217 166.458 13.9699 166.458 15.6262ZM185.285 25.8518C183.653 25.8518 182.164 25.4557 180.82 24.6636C179.5 23.8715 178.444 22.8033 177.652 21.4591C176.884 20.1149 176.5 18.6147 176.5 16.9584C176.5 15.3261 176.884 13.8499 177.652 12.5297C178.444 11.2095 179.5 10.1654 180.82 9.39724C182.164 8.60511 183.653 8.20905 185.285 8.20905C186.941 8.20905 188.429 8.59311 189.75 9.36123C191.07 10.1293 192.114 11.1855 192.882 12.5297C193.674 13.8499 194.07 15.3261 194.07 16.9584C194.07 18.6387 193.674 20.1509 192.882 21.4951C192.114 22.8153 191.07 23.8715 189.75 24.6636C188.429 25.4557 186.941 25.8518 185.285 25.8518ZM185.285 23.4034C186.485 23.4034 187.541 23.1273 188.453 22.5753C189.39 22.0232 190.122 21.2551 190.65 20.2709C191.202 19.2868 191.478 18.1826 191.478 16.9584C191.478 15.7342 191.202 14.654 190.65 13.7179C190.122 12.7578 189.39 12.0016 188.453 11.4496C187.541 10.8975 186.485 10.6214 185.285 10.6214C184.109 10.6214 183.053 10.8975 182.116 11.4496C181.18 12.0016 180.448 12.7578 179.92 13.7179C179.392 14.654 179.128 15.7342 179.128 16.9584C179.128 18.2066 179.392 19.3228 179.92 20.3069C180.448 21.2671 181.18 22.0232 182.116 22.5753C183.053 23.1273 184.109 23.4034 185.285 23.4034ZM205.815 25.4917V8.56911H208.336V25.4917H205.815ZM217.445 25.4917V15.1221C217.445 13.7299 217.025 12.6257 216.185 11.8096C215.345 10.9695 214.289 10.5494 213.017 10.5494C212.152 10.5494 211.36 10.7414 210.64 11.1255C209.944 11.4856 209.38 12.0016 208.948 12.6737C208.54 13.3458 208.336 14.15 208.336 15.0861L207.184 14.618C207.184 13.3218 207.472 12.1937 208.048 11.2335C208.624 10.2734 209.392 9.52926 210.352 9.00118C211.336 8.47309 212.44 8.20905 213.665 8.20905C214.865 8.20905 215.933 8.47309 216.869 9.00118C217.829 9.52926 218.585 10.2734 219.137 11.2335C219.714 12.1937 220.002 13.3338 220.002 14.654V25.4917H217.445ZM229.111 25.4917V15.1221C229.111 13.7299 228.691 12.6257 227.851 11.8096C227.011 10.9695 225.943 10.5494 224.646 10.5494C223.806 10.5494 223.026 10.7414 222.306 11.1255C221.61 11.4856 221.046 12.0016 220.614 12.6737C220.206 13.3458 220.002 14.15 220.002 15.0861L218.489 14.618C218.561 13.3218 218.897 12.1937 219.498 11.2335C220.122 10.2734 220.926 9.52926 221.91 9.00118C222.918 8.47309 224.022 8.20905 225.222 8.20905C226.423 8.20905 227.503 8.47309 228.463 9.00118C229.447 9.52926 230.215 10.2734 230.767 11.2335C231.343 12.1937 231.631 13.3338 231.631 14.654V25.4917H229.111ZM243.716 25.8518C242.108 25.8518 240.668 25.4677 239.395 24.6996C238.123 23.9075 237.115 22.8513 236.371 21.5311C235.651 20.2109 235.291 18.7227 235.291 17.0664C235.291 15.3862 235.651 13.8859 236.371 12.5657C237.115 11.2215 238.123 10.1654 239.395 9.39724C240.668 8.60511 242.096 8.20905 243.68 8.20905C244.976 8.20905 246.128 8.47309 247.137 9.00118C248.169 9.50525 248.997 10.2254 249.621 11.1615C250.269 12.0736 250.665 13.1418 250.809 14.366V19.6588C250.665 20.883 250.269 21.9632 249.621 22.8993C248.997 23.8355 248.169 24.5676 247.137 25.0957C246.128 25.5997 244.988 25.8518 243.716 25.8518ZM244.112 23.4394C245.864 23.4394 247.269 22.8513 248.325 21.6751C249.405 20.4989 249.945 18.9507 249.945 17.0304C249.945 15.7582 249.693 14.642 249.189 13.6819C248.709 12.6977 248.025 11.9416 247.137 11.4135C246.272 10.8615 245.252 10.5854 244.076 10.5854C242.876 10.5854 241.808 10.8615 240.872 11.4135C239.959 11.9656 239.227 12.7337 238.675 13.7179C238.147 14.678 237.883 15.7822 237.883 17.0304C237.883 18.2786 238.147 19.3828 238.675 20.3429C239.227 21.3031 239.971 22.0592 240.908 22.6113C241.844 23.1634 242.912 23.4394 244.112 23.4394ZM249.801 25.4917V20.955L250.305 16.7784L249.801 12.7097V8.56911H252.321V25.4917H249.801ZM257.433 25.4917V8.56911H259.953V25.4917H257.433ZM259.953 15.6262L258.909 15.1581C258.909 13.0218 259.425 11.3295 260.457 10.0813C261.513 8.83315 262.954 8.20905 264.778 8.20905C265.618 8.20905 266.386 8.36508 267.082 8.67713C267.778 8.96517 268.426 9.43324 269.027 10.0813L267.37 11.8456C266.962 11.3895 266.506 11.0655 266.002 10.8735C265.522 10.6814 264.97 10.5854 264.346 10.5854C263.05 10.5854 261.993 11.0175 261.177 11.8816C260.361 12.7217 259.953 13.9699 259.953 15.6262ZM282.618 25.4917L273.977 16.8144L282.474 8.56911H285.606L276.353 17.4625L276.425 16.0223L285.967 25.4917H282.618ZM271.708 25.4917V-0.000207218H274.229V25.4917H271.708ZM295.872 25.8518C294.167 25.8518 292.643 25.4677 291.299 24.6996C289.955 23.9315 288.887 22.8753 288.095 21.5311C287.326 20.1869 286.942 18.6747 286.942 16.9944C286.942 15.3382 287.326 13.8499 288.095 12.5297C288.863 11.1855 289.907 10.1293 291.227 9.36123C292.547 8.59311 294.023 8.20905 295.656 8.20905C297.192 8.20905 298.548 8.55711 299.724 9.25321C300.925 9.94932 301.861 10.9215 302.533 12.1697C303.229 13.3939 303.577 14.8101 303.577 16.4183C303.577 16.6103 303.565 16.8384 303.541 17.1024C303.517 17.3425 303.469 17.6305 303.397 17.9666H288.743V15.8062H302.029L301.129 16.5983C301.153 15.3502 300.937 14.282 300.48 13.3939C300.048 12.4817 299.412 11.7856 298.572 11.3055C297.756 10.8015 296.76 10.5494 295.584 10.5494C294.36 10.5494 293.291 10.8135 292.379 11.3415C291.467 11.8696 290.747 12.6137 290.219 13.5739C289.715 14.51 289.463 15.6262 289.463 16.9224C289.463 18.2186 289.727 19.3588 290.255 20.3429C290.807 21.3271 291.563 22.0952 292.523 22.6473C293.507 23.1994 294.636 23.4754 295.908 23.4754C296.94 23.4754 297.888 23.2954 298.752 22.9353C299.616 22.5513 300.348 21.9872 300.949 21.2431L302.569 22.8993C301.777 23.8355 300.792 24.5676 299.616 25.0957C298.464 25.5997 297.216 25.8518 295.872 25.8518ZM309.463 25.4917V1.44001H311.984V25.4917H309.463ZM305.179 10.8375V8.56911H316.232V10.8375H305.179ZM328.453 25.8518C327.157 25.8518 325.993 25.5877 324.961 25.0596C323.929 24.5316 323.077 23.8115 322.404 22.8993C321.756 21.9632 321.36 20.883 321.216 19.6588V14.366C321.36 13.1178 321.768 12.0376 322.44 11.1255C323.113 10.1894 323.965 9.46925 324.997 8.96517C326.053 8.46109 327.205 8.20905 328.453 8.20905C330.014 8.20905 331.418 8.60511 332.666 9.39724C333.914 10.1654 334.898 11.2215 335.618 12.5657C336.363 13.8859 336.735 15.3862 336.735 17.0664C336.735 18.7227 336.375 20.2109 335.654 21.5311C334.934 22.8513 333.938 23.9075 332.666 24.6996C331.418 25.4677 330.014 25.8518 328.453 25.8518ZM328.021 23.4394C329.221 23.4394 330.278 23.1754 331.19 22.6473C332.102 22.0952 332.81 21.3391 333.314 20.3789C333.842 19.3948 334.106 18.2786 334.106 17.0304C334.106 15.7582 333.842 14.642 333.314 13.6819C332.81 12.7217 332.102 11.9656 331.19 11.4135C330.278 10.8615 329.233 10.5854 328.057 10.5854C326.881 10.5854 325.837 10.8615 324.925 11.4135C324.037 11.9656 323.341 12.7217 322.837 13.6819C322.332 14.642 322.08 15.7582 322.08 17.0304C322.08 18.2786 322.332 19.3948 322.837 20.3789C323.341 21.3391 324.037 22.0952 324.925 22.6473C325.813 23.1754 326.845 23.4394 328.021 23.4394ZM319.704 32.6208V8.56911H322.224V12.8898L321.72 16.9944L322.224 21.135V32.6208H319.704ZM340.766 25.4917V-0.000207218H343.286V25.4917H340.766ZM355.741 25.8518C354.133 25.8518 352.693 25.4677 351.42 24.6996C350.148 23.9075 349.14 22.8513 348.396 21.5311C347.676 20.2109 347.316 18.7227 347.316 17.0664C347.316 15.3862 347.676 13.8859 348.396 12.5657C349.14 11.2215 350.148 10.1654 351.42 9.39724C352.693 8.60511 354.121 8.20905 355.705 8.20905C357.001 8.20905 358.153 8.47309 359.162 9.00118C360.194 9.50525 361.022 10.2254 361.646 11.1615C362.294 12.0736 362.69 13.1418 362.834 14.366V19.6588C362.69 20.883 362.294 21.9632 361.646 22.8993C361.022 23.8355 360.194 24.5676 359.162 25.0957C358.153 25.5997 357.013 25.8518 355.741 25.8518ZM356.137 23.4394C357.889 23.4394 359.294 22.8513 360.35 21.6751C361.43 20.4989 361.97 18.9507 361.97 17.0304C361.97 15.7582 361.718 14.642 361.214 13.6819C360.734 12.6977 360.05 11.9416 359.162 11.4135C358.297 10.8615 357.277 10.5854 356.101 10.5854C354.901 10.5854 353.833 10.8615 352.897 11.4135C351.984 11.9656 351.252 12.7337 350.7 13.7179C350.172 14.678 349.908 15.7822 349.908 17.0304C349.908 18.2786 350.172 19.3828 350.7 20.3429C351.252 21.3031 351.996 22.0592 352.933 22.6113C353.869 23.1634 354.937 23.4394 356.137 23.4394ZM361.826 25.4917V20.955L362.33 16.7784L361.826 12.7097V8.56911H364.346V25.4917H361.826ZM377.163 25.8518C375.507 25.8518 374.006 25.4677 372.662 24.6996C371.342 23.9075 370.286 22.8393 369.494 21.4951C368.726 20.1509 368.342 18.6507 368.342 16.9944C368.342 15.3382 368.726 13.8499 369.494 12.5297C370.286 11.1855 371.342 10.1293 372.662 9.36123C374.006 8.59311 375.507 8.20905 377.163 8.20905C378.435 8.20905 379.623 8.44909 380.727 8.92917C381.832 9.40924 382.768 10.0813 383.536 10.9455L381.88 12.6377C381.304 11.9896 380.607 11.4976 379.791 11.1615C378.975 10.8015 378.099 10.6214 377.163 10.6214C375.963 10.6214 374.895 10.8975 373.958 11.4496C373.022 12.0016 372.29 12.7578 371.762 13.7179C371.234 14.654 370.97 15.7462 370.97 16.9944C370.97 18.2186 371.234 19.3228 371.762 20.3069C372.29 21.2671 373.022 22.0232 373.958 22.5753C374.895 23.1273 375.963 23.4034 377.163 23.4034C378.123 23.4034 379.011 23.2354 379.827 22.8993C380.643 22.5393 381.34 22.0352 381.916 21.3871L383.608 23.0793C382.816 23.9675 381.856 24.6516 380.727 25.1317C379.623 25.6117 378.435 25.8518 377.163 25.8518ZM394.641 25.8518C392.937 25.8518 391.412 25.4677 390.068 24.6996C388.724 23.9315 387.656 22.8753 386.864 21.5311C386.096 20.1869 385.711 18.6747 385.711 16.9944C385.711 15.3382 386.096 13.8499 386.864 12.5297C387.632 11.1855 388.676 10.1293 389.996 9.36123C391.316 8.59311 392.793 8.20905 394.425 8.20905C395.961 8.20905 397.317 8.55711 398.493 9.25321C399.694 9.94932 400.63 10.9215 401.302 12.1697C401.998 13.3939 402.346 14.8101 402.346 16.4183C402.346 16.6103 402.334 16.8384 402.31 17.1024C402.286 17.3425 402.238 17.6305 402.166 17.9666H387.512V15.8062H400.798L399.898 16.5983C399.922 15.3502 399.706 14.282 399.25 13.3939C398.817 12.4817 398.181 11.7856 397.341 11.3055C396.525 10.8015 395.529 10.5494 394.353 10.5494C393.129 10.5494 392.06 10.8135 391.148 11.3415C390.236 11.8696 389.516 12.6137 388.988 13.5739C388.484 14.51 388.232 15.6262 388.232 16.9224C388.232 18.2186 388.496 19.3588 389.024 20.3429C389.576 21.3271 390.332 22.0952 391.292 22.6473C392.276 23.1994 393.405 23.4754 394.677 23.4754C395.709 23.4754 396.657 23.2954 397.521 22.9353C398.385 22.5513 399.118 21.9872 399.718 21.2431L401.338 22.8993C400.546 23.8355 399.562 24.5676 398.385 25.0957C397.233 25.5997 395.985 25.8518 394.641 25.8518ZM413.937 25.4917V8.56911H416.494V25.4917H413.937ZM415.197 4.89654C414.717 4.89654 414.309 4.72852 413.973 4.39247C413.637 4.03241 413.469 3.61235 413.469 3.13227C413.469 2.6282 413.637 2.20813 413.973 1.87208C414.309 1.53603 414.717 1.368 415.197 1.368C415.726 1.368 416.146 1.53603 416.458 1.87208C416.794 2.20813 416.962 2.6282 416.962 3.13227C416.962 3.61235 416.794 4.03241 416.458 4.39247C416.146 4.72852 415.726 4.89654 415.197 4.89654ZM433.916 25.4917V15.5542C433.916 14.066 433.472 12.8658 432.584 11.9536C431.72 11.0175 430.568 10.5494 429.128 10.5494C428.144 10.5494 427.279 10.7654 426.535 11.1975C425.791 11.6296 425.203 12.2177 424.771 12.9618C424.339 13.7059 424.123 14.558 424.123 15.5182L422.971 14.8701C422.971 13.5979 423.271 12.4577 423.871 11.4496C424.471 10.4414 425.275 9.64928 426.283 9.07319C427.315 8.4971 428.492 8.20905 429.812 8.20905C431.108 8.20905 432.26 8.5211 433.268 9.1452C434.276 9.76929 435.057 10.6094 435.609 11.6656C436.185 12.7217 436.473 13.8739 436.473 15.1221V25.4917H433.916ZM421.602 25.4917V8.56911H424.123V25.4917H421.602ZM443.605 25.4917V1.44001H446.125V25.4917H443.605ZM439.32 10.8375V8.56911H450.374V10.8375H439.32ZM461.061 25.8518C459.357 25.8518 457.833 25.4677 456.488 24.6996C455.144 23.9315 454.076 22.8753 453.284 21.5311C452.516 20.1869 452.132 18.6747 452.132 16.9944C452.132 15.3382 452.516 13.8499 453.284 12.5297C454.052 11.1855 455.096 10.1293 456.416 9.36123C457.737 8.59311 459.213 8.20905 460.845 8.20905C462.381 8.20905 463.738 8.55711 464.914 9.25321C466.114 9.94932 467.05 10.9215 467.722 12.1697C468.418 13.3939 468.766 14.8101 468.766 16.4183C468.766 16.6103 468.754 16.8384 468.73 17.1024C468.706 17.3425 468.658 17.6305 468.586 17.9666H453.932V15.8062H467.218L466.318 16.5983C466.342 15.3502 466.126 14.282 465.67 13.3939C465.238 12.4817 464.602 11.7856 463.762 11.3055C462.945 10.8015 461.949 10.5494 460.773 10.5494C459.549 10.5494 458.481 10.8135 457.569 11.3415C456.657 11.8696 455.936 12.6137 455.408 13.5739C454.904 14.51 454.652 15.6262 454.652 16.9224C454.652 18.2186 454.916 19.3588 455.444 20.3429C455.996 21.3271 456.753 22.0952 457.713 22.6473C458.697 23.1994 459.825 23.4754 461.097 23.4754C462.129 23.4754 463.077 23.2954 463.942 22.9353C464.806 22.5513 465.538 21.9872 466.138 21.2431L467.758 22.8993C466.966 23.8355 465.982 24.5676 464.806 25.0957C463.654 25.5997 462.405 25.8518 461.061 25.8518ZM472.622 25.4917V8.56911H475.142V25.4917H472.622ZM475.142 15.6262L474.098 15.1581C474.098 13.0218 474.614 11.3295 475.647 10.0813C476.703 8.83315 478.143 8.20905 479.967 8.20905C480.807 8.20905 481.575 8.36508 482.272 8.67713C482.968 8.96517 483.616 9.43324 484.216 10.0813L482.56 11.8456C482.152 11.3895 481.695 11.0655 481.191 10.8735C480.711 10.6814 480.159 10.5854 479.535 10.5854C478.239 10.5854 477.183 11.0175 476.367 11.8816C475.551 12.7217 475.142 13.9699 475.142 15.6262ZM499.352 25.4917V15.5542C499.352 14.066 498.908 12.8658 498.02 11.9536C497.156 11.0175 496.004 10.5494 494.563 10.5494C493.579 10.5494 492.715 10.7654 491.971 11.1975C491.227 11.6296 490.639 12.2177 490.207 12.9618C489.775 13.7059 489.559 14.558 489.559 15.5182L488.407 14.8701C488.407 13.5979 488.707 12.4577 489.307 11.4496C489.907 10.4414 490.711 9.64928 491.719 9.07319C492.751 8.4971 493.927 8.20905 495.248 8.20905C496.544 8.20905 497.696 8.5211 498.704 9.1452C499.712 9.76929 500.492 10.6094 501.044 11.6656C501.621 12.7217 501.909 13.8739 501.909 15.1221V25.4917H499.352ZM487.038 25.4917V8.56911H489.559V25.4917H487.038ZM514.293 25.8518C512.66 25.8518 511.172 25.4557 509.828 24.6636C508.508 23.8715 507.452 22.8033 506.659 21.4591C505.891 20.1149 505.507 18.6147 505.507 16.9584C505.507 15.3261 505.891 13.8499 506.659 12.5297C507.452 11.2095 508.508 10.1654 509.828 9.39724C511.172 8.60511 512.66 8.20905 514.293 8.20905C515.949 8.20905 517.437 8.59311 518.757 9.36123C520.077 10.1293 521.122 11.1855 521.89 12.5297C522.682 13.8499 523.078 15.3261 523.078 16.9584C523.078 18.6387 522.682 20.1509 521.89 21.4951C521.122 22.8153 520.077 23.8715 518.757 24.6636C517.437 25.4557 515.949 25.8518 514.293 25.8518ZM514.293 23.4034C515.493 23.4034 516.549 23.1273 517.461 22.5753C518.397 22.0232 519.129 21.2551 519.657 20.2709C520.209 19.2868 520.486 18.1826 520.486 16.9584C520.486 15.7342 520.209 14.654 519.657 13.7179C519.129 12.7578 518.397 12.0016 517.461 11.4496C516.549 10.8975 515.493 10.6214 514.293 10.6214C513.116 10.6214 512.06 10.8975 511.124 11.4496C510.188 12.0016 509.456 12.7578 508.928 13.7179C508.4 14.654 508.136 15.7342 508.136 16.9584C508.136 18.2066 508.4 19.3228 508.928 20.3069C509.456 21.2671 510.188 22.0232 511.124 22.5753C512.06 23.1273 513.116 23.4034 514.293 23.4034ZM543.572 25.8518C542.276 25.8518 541.112 25.5877 540.08 25.0596C539.048 24.5316 538.196 23.8115 537.523 22.8993C536.875 21.9632 536.479 20.883 536.335 19.6588V14.366C536.479 13.1178 536.887 12.0376 537.559 11.1255C538.232 10.1894 539.084 9.46925 540.116 8.96517C541.172 8.46109 542.324 8.20905 543.572 8.20905C545.133 8.20905 546.537 8.60511 547.785 9.39724C549.033 10.1654 550.017 11.2215 550.737 12.5657C551.482 13.8859 551.854 15.3862 551.854 17.0664C551.854 18.7227 551.494 20.2109 550.773 21.5311C550.053 22.8513 549.057 23.9075 547.785 24.6996C546.537 25.4677 545.133 25.8518 543.572 25.8518ZM543.14 23.4394C544.34 23.4394 545.397 23.1754 546.309 22.6473C547.221 22.0952 547.929 21.3391 548.433 20.3789C548.961 19.3948 549.225 18.2786 549.225 17.0304C549.225 15.7582 548.961 14.642 548.433 13.6819C547.929 12.7217 547.221 11.9656 546.309 11.4135C545.397 10.8615 544.352 10.5854 543.176 10.5854C542 10.5854 540.956 10.8615 540.044 11.4135C539.156 11.9656 538.46 12.7217 537.956 13.6819C537.451 14.642 537.199 15.7582 537.199 17.0304C537.199 18.2786 537.451 19.3948 537.956 20.3789C538.46 21.3391 539.156 22.0952 540.044 22.6473C540.932 23.1754 541.964 23.4394 543.14 23.4394ZM534.823 32.6208V8.56911H537.343V12.8898L536.839 16.9944L537.343 21.135V32.6208H534.823ZM562.582 25.8518C561.214 25.8518 559.989 25.5397 558.909 24.9156C557.829 24.2675 556.977 23.3914 556.353 22.2872C555.753 21.183 555.453 19.8868 555.453 18.3986V8.56911H558.009V18.2906C558.009 19.3228 558.189 20.2229 558.549 20.991C558.933 21.7591 559.473 22.3592 560.17 22.7913C560.866 23.2234 561.67 23.4394 562.582 23.4394C563.998 23.4394 565.114 22.9713 565.93 22.0352C566.771 21.099 567.191 19.8508 567.191 18.2906V8.56911H569.711V18.3986C569.711 19.8628 569.411 21.159 568.811 22.2872C568.211 23.4154 567.371 24.2915 566.29 24.9156C565.21 25.5397 563.974 25.8518 562.582 25.8518ZM582.084 25.8518C580.452 25.8518 578.964 25.4557 577.62 24.6636C576.299 23.8715 575.243 22.8033 574.451 21.4591C573.683 20.1149 573.299 18.6147 573.299 16.9584C573.299 15.3261 573.683 13.8499 574.451 12.5297C575.243 11.2095 576.299 10.1654 577.62 9.39724C578.964 8.60511 580.452 8.20905 582.084 8.20905C583.74 8.20905 585.229 8.59311 586.549 9.36123C587.869 10.1293 588.913 11.1855 589.681 12.5297C590.474 13.8499 590.87 15.3261 590.87 16.9584C590.87 18.6387 590.474 20.1509 589.681 21.4951C588.913 22.8153 587.869 23.8715 586.549 24.6636C585.229 25.4557 583.74 25.8518 582.084 25.8518ZM582.084 23.4034C583.284 23.4034 584.341 23.1273 585.253 22.5753C586.189 22.0232 586.921 21.2551 587.449 20.2709C588.001 19.2868 588.277 18.1826 588.277 16.9584C588.277 15.7342 588.001 14.654 587.449 13.7179C586.921 12.7578 586.189 12.0016 585.253 11.4496C584.341 10.8975 583.284 10.6214 582.084 10.6214C580.908 10.6214 579.852 10.8975 578.916 11.4496C577.98 12.0016 577.247 12.7578 576.719 13.7179C576.191 14.654 575.927 15.7342 575.927 16.9584C575.927 18.2066 576.191 19.3228 576.719 20.3069C577.247 21.2671 577.98 22.0232 578.916 22.5753C579.852 23.1273 580.908 23.4034 582.084 23.4034ZM594.879 25.4917V8.56911H597.436V25.4917H594.879ZM596.139 4.89654C595.659 4.89654 595.251 4.72852 594.915 4.39247C594.579 4.03241 594.411 3.61235 594.411 3.13227C594.411 2.6282 594.579 2.20813 594.915 1.87208C595.251 1.53603 595.659 1.368 596.139 1.368C596.667 1.368 597.087 1.53603 597.4 1.87208C597.736 2.20813 597.904 2.6282 597.904 3.13227C597.904 3.61235 597.736 4.03241 597.4 4.39247C597.087 4.72852 596.667 4.89654 596.139 4.89654ZM617.625 25.8518C616.017 25.8518 614.577 25.4677 613.304 24.6996C612.032 23.9075 611.024 22.8513 610.28 21.5311C609.56 20.2109 609.2 18.7227 609.2 17.0664C609.2 15.3862 609.56 13.8859 610.28 12.5657C611.024 11.2215 612.032 10.1654 613.304 9.39724C614.577 8.60511 616.005 8.20905 617.589 8.20905C618.885 8.20905 620.037 8.47309 621.046 9.00118C622.078 9.50525 622.906 10.2254 623.53 11.1615C624.178 12.0736 624.574 13.1418 624.718 14.366V19.6588C624.574 20.883 624.178 21.9632 623.53 22.8993C622.906 23.8355 622.078 24.5676 621.046 25.0957C620.037 25.5997 618.897 25.8518 617.625 25.8518ZM618.021 23.4394C619.773 23.4394 621.178 22.8513 622.234 21.6751C623.314 20.4989 623.854 18.9507 623.854 17.0304C623.854 15.7582 623.602 14.642 623.098 13.6819C622.618 12.6977 621.934 11.9416 621.046 11.4135C620.181 10.8615 619.161 10.5854 617.985 10.5854C616.785 10.5854 615.717 10.8615 614.781 11.4135C613.868 11.9656 613.136 12.7337 612.584 13.7179C612.056 14.678 611.792 15.7822 611.792 17.0304C611.792 18.2786 612.056 19.3828 612.584 20.3429C613.136 21.3031 613.88 22.0592 614.817 22.6113C615.753 23.1634 616.821 23.4394 618.021 23.4394ZM623.71 25.4917V20.955L624.214 16.7784L623.71 12.7097V8.56911H626.23V25.4917H623.71ZM639.047 25.8518C637.391 25.8518 635.89 25.4677 634.546 24.6996C633.226 23.9075 632.17 22.8393 631.378 21.4951C630.61 20.1509 630.226 18.6507 630.226 16.9944C630.226 15.3382 630.61 13.8499 631.378 12.5297C632.17 11.1855 633.226 10.1293 634.546 9.36123C635.89 8.59311 637.391 8.20905 639.047 8.20905C640.319 8.20905 641.507 8.44909 642.612 8.92917C643.716 9.40924 644.652 10.0813 645.42 10.9455L643.764 12.6377C643.188 11.9896 642.491 11.4976 641.675 11.1615C640.859 10.8015 639.983 10.6214 639.047 10.6214C637.847 10.6214 636.779 10.8975 635.842 11.4496C634.906 12.0016 634.174 12.7578 633.646 13.7179C633.118 14.654 632.854 15.7462 632.854 16.9944C632.854 18.2186 633.118 19.3228 633.646 20.3069C634.174 21.2671 634.906 22.0232 635.842 22.5753C636.779 23.1273 637.847 23.4034 639.047 23.4034C640.007 23.4034 640.895 23.2354 641.711 22.8993C642.527 22.5393 643.224 22.0352 643.8 21.3871L645.492 23.0793C644.7 23.9675 643.74 24.6516 642.612 25.1317C641.507 25.6117 640.319 25.8518 639.047 25.8518ZM656.057 25.8518C654.473 25.8518 653.044 25.4677 651.772 24.6996C650.5 23.9075 649.492 22.8513 648.748 21.5311C648.004 20.2109 647.631 18.7227 647.631 17.0664C647.631 15.3862 648.004 13.8859 648.748 12.5657C649.492 11.2215 650.488 10.1654 651.736 9.39724C653.008 8.60511 654.437 8.20905 656.021 8.20905C657.317 8.20905 658.469 8.47309 659.477 9.00118C660.509 9.50525 661.35 10.2254 661.998 11.1615C662.646 12.0736 663.03 13.1418 663.15 14.366V19.6588C663.006 20.883 662.61 21.9632 661.962 22.8993C661.338 23.8355 660.521 24.5676 659.513 25.0957C658.505 25.5997 657.353 25.8518 656.057 25.8518ZM656.453 23.4394C658.229 23.4394 659.645 22.8513 660.701 21.6751C661.758 20.4989 662.286 18.9507 662.286 17.0304C662.286 15.7582 662.046 14.642 661.566 13.6819C661.086 12.6977 660.401 11.9416 659.513 11.4135C658.625 10.8615 657.593 10.5854 656.417 10.5854C655.217 10.5854 654.148 10.8615 653.212 11.4135C652.3 11.9656 651.58 12.7337 651.052 13.7179C650.524 14.678 650.26 15.7822 650.26 17.0304C650.26 18.2786 650.524 19.3828 651.052 20.3429C651.58 21.3031 652.312 22.0592 653.248 22.6113C654.184 23.1634 655.253 23.4394 656.453 23.4394ZM662.142 32.6208V21.135L662.646 16.9944L662.142 12.8898V8.56911H664.698V32.6208H662.142ZM676.47 25.8518C675.102 25.8518 673.878 25.5397 672.798 24.9156C671.718 24.2675 670.866 23.3914 670.242 22.2872C669.641 21.183 669.341 19.8868 669.341 18.3986V8.56911H671.898V18.2906C671.898 19.3228 672.078 20.2229 672.438 20.991C672.822 21.7591 673.362 22.3592 674.058 22.7913C674.754 23.2234 675.558 23.4394 676.47 23.4394C677.887 23.4394 679.003 22.9713 679.819 22.0352C680.659 21.099 681.079 19.8508 681.079 18.2906V8.56911H683.6V18.3986C683.6 19.8628 683.3 21.159 682.699 22.2872C682.099 23.4154 681.259 24.2915 680.179 24.9156C679.099 25.5397 677.863 25.8518 676.47 25.8518ZM688.304 25.4917V8.56911H690.86V25.4917H688.304ZM689.564 4.89654C689.084 4.89654 688.676 4.72852 688.34 4.39247C688.004 4.03241 687.836 3.61235 687.836 3.13227C687.836 2.6282 688.004 2.20813 688.34 1.87208C688.676 1.53603 689.084 1.368 689.564 1.368C690.092 1.368 690.512 1.53603 690.824 1.87208C691.16 2.20813 691.328 2.6282 691.328 3.13227C691.328 3.61235 691.16 4.03241 690.824 4.39247C690.512 4.72852 690.092 4.89654 689.564 4.89654ZM701.154 25.8518C700.242 25.8518 699.365 25.7317 698.525 25.4917C697.685 25.2277 696.917 24.8676 696.221 24.4115C695.549 23.9555 694.961 23.4154 694.457 22.7913L696.077 21.135C696.749 21.9512 697.505 22.5633 698.345 22.9713C699.209 23.3554 700.17 23.5474 701.226 23.5474C702.354 23.5474 703.23 23.3314 703.854 22.8993C704.502 22.4672 704.826 21.8672 704.826 21.099C704.826 20.3789 704.598 19.8148 704.142 19.4068C703.686 18.9987 703.098 18.6747 702.378 18.4346C701.682 18.1946 700.938 17.9666 700.146 17.7505C699.353 17.5105 698.597 17.2224 697.877 16.8864C697.157 16.5263 696.569 16.0343 696.113 15.4102C695.681 14.7861 695.465 13.9699 695.465 12.9618C695.465 12.0016 695.693 11.1735 696.149 10.4774C696.629 9.75729 697.301 9.20521 698.165 8.82115C699.053 8.41309 700.098 8.20905 701.298 8.20905C702.57 8.20905 703.722 8.43709 704.754 8.89316C705.786 9.34923 706.615 10.0213 707.239 10.9095L705.618 12.5297C705.114 11.8816 704.478 11.3895 703.71 11.0535C702.966 10.6934 702.126 10.5134 701.19 10.5134C700.11 10.5134 699.281 10.7294 698.705 11.1615C698.153 11.5696 697.877 12.1097 697.877 12.7818C697.877 13.4299 698.105 13.9459 698.561 14.33C699.017 14.6901 699.593 14.9901 700.29 15.2301C701.01 15.4462 701.766 15.6742 702.558 15.9142C703.35 16.1303 704.106 16.4303 704.826 16.8144C705.546 17.1744 706.122 17.6785 706.555 18.3266C707.011 18.9507 707.239 19.8028 707.239 20.883C707.239 22.3952 706.687 23.6074 705.582 24.5196C704.502 25.4077 703.026 25.8518 701.154 25.8518ZM713.857 25.4917V1.44001H716.378V25.4917H713.857ZM709.573 10.8375V8.56911H720.626V10.8375H709.573ZM730.846 25.8518C729.237 25.8518 727.797 25.4677 726.525 24.6996C725.253 23.9075 724.245 22.8513 723.5 21.5311C722.78 20.2109 722.42 18.7227 722.42 17.0664C722.42 15.3862 722.78 13.8859 723.5 12.5657C724.245 11.2215 725.253 10.1654 726.525 9.39724C727.797 8.60511 729.225 8.20905 730.81 8.20905C732.106 8.20905 733.258 8.47309 734.266 9.00118C735.298 9.50525 736.126 10.2254 736.751 11.1615C737.399 12.0736 737.795 13.1418 737.939 14.366V19.6588C737.795 20.883 737.399 21.9632 736.751 22.8993C736.126 23.8355 735.298 24.5676 734.266 25.0957C733.258 25.5997 732.118 25.8518 730.846 25.8518ZM731.242 23.4394C732.994 23.4394 734.398 22.8513 735.454 21.6751C736.534 20.4989 737.075 18.9507 737.075 17.0304C737.075 15.7582 736.823 14.642 736.318 13.6819C735.838 12.6977 735.154 11.9416 734.266 11.4135C733.402 10.8615 732.382 10.5854 731.206 10.5854C730.005 10.5854 728.937 10.8615 728.001 11.4135C727.089 11.9656 726.357 12.7337 725.805 13.7179C725.277 14.678 725.013 15.7822 725.013 17.0304C725.013 18.2786 725.277 19.3828 725.805 20.3429C726.357 21.3031 727.101 22.0592 728.037 22.6113C728.973 23.1634 730.041 23.4394 731.242 23.4394ZM736.931 25.4917V20.955L737.435 16.7784L736.931 12.7097V8.56911H739.451V25.4917H736.931ZM744.562 25.4917V8.56911H747.083V25.4917H744.562ZM747.083 15.6262L746.039 15.1581C746.039 13.0218 746.555 11.3295 747.587 10.0813C748.643 8.83315 750.083 8.20905 751.907 8.20905C752.748 8.20905 753.516 8.36508 754.212 8.67713C754.908 8.96517 755.556 9.43324 756.156 10.0813L754.5 11.8456C754.092 11.3895 753.636 11.0655 753.132 10.8735C752.652 10.6814 752.099 10.5854 751.475 10.5854C750.179 10.5854 749.123 11.0175 748.307 11.8816C747.491 12.7217 747.083 13.9699 747.083 15.6262ZM766.053 25.8518C764.349 25.8518 762.825 25.4677 761.481 24.6996C760.136 23.9315 759.068 22.8753 758.276 21.5311C757.508 20.1869 757.124 18.6747 757.124 16.9944C757.124 15.3382 757.508 13.8499 758.276 12.5297C759.044 11.1855 760.088 10.1293 761.409 9.36123C762.729 8.59311 764.205 8.20905 765.837 8.20905C767.374 8.20905 768.73 8.55711 769.906 9.25321C771.106 9.94932 772.042 10.9215 772.714 12.1697C773.411 13.3939 773.759 14.8101 773.759 16.4183C773.759 16.6103 773.747 16.8384 773.723 17.1024C773.699 17.3425 773.651 17.6305 773.579 17.9666H758.924V15.8062H772.21L771.31 16.5983C771.334 15.3502 771.118 14.282 770.662 13.3939C770.23 12.4817 769.594 11.7856 768.754 11.3055C767.938 10.8015 766.942 10.5494 765.765 10.5494C764.541 10.5494 763.473 10.8135 762.561 11.3415C761.649 11.8696 760.929 12.6137 760.401 13.5739C759.896 14.51 759.644 15.6262 759.644 16.9224C759.644 18.2186 759.908 19.3588 760.437 20.3429C760.989 21.3271 761.745 22.0952 762.705 22.6473C763.689 23.1994 764.817 23.4754 766.089 23.4754C767.122 23.4754 768.07 23.2954 768.934 22.9353C769.798 22.5513 770.53 21.9872 771.13 21.2431L772.75 22.8993C771.958 23.8355 770.974 24.5676 769.798 25.0957C768.646 25.5997 767.398 25.8518 766.053 25.8518ZM792.695 25.8518C791.087 25.8518 789.646 25.4677 788.374 24.6996C787.102 23.9075 786.094 22.8513 785.35 21.5311C784.63 20.2109 784.27 18.7227 784.27 17.0664C784.27 15.3862 784.63 13.8859 785.35 12.5657C786.094 11.2215 787.102 10.1654 788.374 9.39724C789.646 8.60511 791.075 8.20905 792.659 8.20905C793.955 8.20905 795.107 8.47309 796.115 9.00118C797.148 9.50525 797.976 10.2254 798.6 11.1615C799.248 12.0736 799.644 13.1418 799.788 14.366V19.6588C799.644 20.883 799.248 21.9632 798.6 22.8993C797.976 23.8355 797.148 24.5676 796.115 25.0957C795.107 25.5997 793.967 25.8518 792.695 25.8518ZM793.091 23.4394C794.843 23.4394 796.247 22.8513 797.304 21.6751C798.384 20.4989 798.924 18.9507 798.924 17.0304C798.924 15.7582 798.672 14.642 798.168 13.6819C797.688 12.6977 797.004 11.9416 796.115 11.4135C795.251 10.8615 794.231 10.5854 793.055 10.5854C791.855 10.5854 790.787 10.8615 789.851 11.4135C788.938 11.9656 788.206 12.7337 787.654 13.7179C787.126 14.678 786.862 15.7822 786.862 17.0304C786.862 18.2786 787.126 19.3828 787.654 20.3429C788.206 21.3031 788.95 22.0592 789.887 22.6113C790.823 23.1634 791.891 23.4394 793.091 23.4394ZM798.78 25.4917V20.955L799.284 16.7784L798.78 12.7097V8.56911H801.3V25.4917H798.78ZM815.161 25.8518C813.865 25.8518 812.701 25.5877 811.668 25.0596C810.636 24.5316 809.784 23.8115 809.112 22.8993C808.464 21.9632 808.068 20.883 807.924 19.6588V14.366C808.068 13.1178 808.476 12.0376 809.148 11.1255C809.82 10.1894 810.672 9.46925 811.704 8.96517C812.761 8.46109 813.913 8.20905 815.161 8.20905C816.721 8.20905 818.125 8.60511 819.374 9.39724C820.622 10.1654 821.606 11.2215 822.326 12.5657C823.07 13.8859 823.442 15.3862 823.442 17.0664C823.442 18.7227 823.082 20.2109 822.362 21.5311C821.642 22.8513 820.646 23.9075 819.374 24.6996C818.125 25.4677 816.721 25.8518 815.161 25.8518ZM814.729 23.4394C815.929 23.4394 816.985 23.1754 817.897 22.6473C818.81 22.0952 819.518 21.3391 820.022 20.3789C820.55 19.3948 820.814 18.2786 820.814 17.0304C820.814 15.7582 820.55 14.642 820.022 13.6819C819.518 12.7217 818.81 11.9656 817.897 11.4135C816.985 10.8615 815.941 10.5854 814.765 10.5854C813.589 10.5854 812.545 10.8615 811.632 11.4135C810.744 11.9656 810.048 12.7217 809.544 13.6819C809.04 14.642 808.788 15.7582 808.788 17.0304C808.788 18.2786 809.04 19.3948 809.544 20.3789C810.048 21.3391 810.744 22.0952 811.632 22.6473C812.521 23.1754 813.553 23.4394 814.729 23.4394ZM806.412 32.6208V8.56911H808.932V12.8898L808.428 16.9944L808.932 21.135V32.6208H806.412ZM836.223 25.8518C834.927 25.8518 833.762 25.5877 832.73 25.0596C831.698 24.5316 830.846 23.8115 830.174 22.8993C829.526 21.9632 829.13 20.883 828.986 19.6588V14.366C829.13 13.1178 829.538 12.0376 830.21 11.1255C830.882 10.1894 831.734 9.46925 832.766 8.96517C833.822 8.46109 834.975 8.20905 836.223 8.20905C837.783 8.20905 839.187 8.60511 840.435 9.39724C841.684 10.1654 842.668 11.2215 843.388 12.5657C844.132 13.8859 844.504 15.3862 844.504 17.0664C844.504 18.7227 844.144 20.2109 843.424 21.5311C842.704 22.8513 841.708 23.9075 840.435 24.6996C839.187 25.4677 837.783 25.8518 836.223 25.8518ZM835.791 23.4394C836.991 23.4394 838.047 23.1754 838.959 22.6473C839.871 22.0952 840.579 21.3391 841.084 20.3789C841.612 19.3948 841.876 18.2786 841.876 17.0304C841.876 15.7582 841.612 14.642 841.084 13.6819C840.579 12.7217 839.871 11.9656 838.959 11.4135C838.047 10.8615 837.003 10.5854 835.827 10.5854C834.651 10.5854 833.606 10.8615 832.694 11.4135C831.806 11.9656 831.11 12.7217 830.606 13.6819C830.102 14.642 829.85 15.7582 829.85 17.0304C829.85 18.2786 830.102 19.3948 830.606 20.3789C831.11 21.3391 831.806 22.0952 832.694 22.6473C833.582 23.1754 834.615 23.4394 835.791 23.4394ZM827.473 32.6208V8.56911H829.994V12.8898L829.49 16.9944L829.994 21.135V32.6208H827.473ZM848.535 25.4917V-0.000207218H851.056V25.4917H848.535ZM856.165 25.4917V8.56911H858.722V25.4917H856.165ZM857.426 4.89654C856.946 4.89654 856.537 4.72852 856.201 4.39247C855.865 4.03241 855.697 3.61235 855.697 3.13227C855.697 2.6282 855.865 2.20813 856.201 1.87208C856.537 1.53603 856.946 1.368 857.426 1.368C857.954 1.368 858.374 1.53603 858.686 1.87208C859.022 2.20813 859.19 2.6282 859.19 3.13227C859.19 3.61235 859.022 4.03241 858.686 4.39247C858.374 4.72852 857.954 4.89654 857.426 4.89654ZM871.536 25.8518C869.88 25.8518 868.379 25.4677 867.035 24.6996C865.715 23.9075 864.659 22.8393 863.867 21.4951C863.099 20.1509 862.714 18.6507 862.714 16.9944C862.714 15.3382 863.099 13.8499 863.867 12.5297C864.659 11.1855 865.715 10.1293 867.035 9.36123C868.379 8.59311 869.88 8.20905 871.536 8.20905C872.808 8.20905 873.996 8.44909 875.1 8.92917C876.205 9.40924 877.141 10.0813 877.909 10.9455L876.253 12.6377C875.676 11.9896 874.98 11.4976 874.164 11.1615C873.348 10.8015 872.472 10.6214 871.536 10.6214C870.336 10.6214 869.267 10.8975 868.331 11.4496C867.395 12.0016 866.663 12.7578 866.135 13.7179C865.607 14.654 865.343 15.7462 865.343 16.9944C865.343 18.2186 865.607 19.3228 866.135 20.3069C866.663 21.2671 867.395 22.0232 868.331 22.5753C869.267 23.1273 870.336 23.4034 871.536 23.4034C872.496 23.4034 873.384 23.2354 874.2 22.8993C875.016 22.5393 875.712 22.0352 876.289 21.3871L877.981 23.0793C877.189 23.9675 876.229 24.6516 875.1 25.1317C873.996 25.6117 872.808 25.8518 871.536 25.8518ZM888.546 25.8518C886.937 25.8518 885.497 25.4677 884.225 24.6996C882.953 23.9075 881.945 22.8513 881.2 21.5311C880.48 20.2109 880.12 18.7227 880.12 17.0664C880.12 15.3862 880.48 13.8859 881.2 12.5657C881.945 11.2215 882.953 10.1654 884.225 9.39724C885.497 8.60511 886.925 8.20905 888.51 8.20905C889.806 8.20905 890.958 8.47309 891.966 9.00118C892.998 9.50525 893.826 10.2254 894.451 11.1615C895.099 12.0736 895.495 13.1418 895.639 14.366V19.6588C895.495 20.883 895.099 21.9632 894.451 22.8993C893.826 23.8355 892.998 24.5676 891.966 25.0957C890.958 25.5997 889.818 25.8518 888.546 25.8518ZM888.942 23.4394C890.694 23.4394 892.098 22.8513 893.154 21.6751C894.234 20.4989 894.775 18.9507 894.775 17.0304C894.775 15.7582 894.523 14.642 894.018 13.6819C893.538 12.6977 892.854 11.9416 891.966 11.4135C891.102 10.8615 890.082 10.5854 888.906 10.5854C887.705 10.5854 886.637 10.8615 885.701 11.4135C884.789 11.9656 884.057 12.7337 883.505 13.7179C882.977 14.678 882.713 15.7822 882.713 17.0304C882.713 18.2786 882.977 19.3828 883.505 20.3429C884.057 21.3031 884.801 22.0592 885.737 22.6113C886.673 23.1634 887.741 23.4394 888.942 23.4394ZM894.631 25.4917V20.955L895.135 16.7784L894.631 12.7097V8.56911H897.151V25.4917H894.631ZM904.75 25.4917V1.44001H907.27V25.4917H904.75ZM900.465 10.8375V8.56911H911.519V10.8375H900.465ZM914.991 25.4917V8.56911H917.547V25.4917H914.991ZM916.251 4.89654C915.771 4.89654 915.363 4.72852 915.027 4.39247C914.691 4.03241 914.523 3.61235 914.523 3.13227C914.523 2.6282 914.691 2.20813 915.027 1.87208C915.363 1.53603 915.771 1.368 916.251 1.368C916.779 1.368 917.199 1.53603 917.511 1.87208C917.847 2.20813 918.015 2.6282 918.015 3.13227C918.015 3.61235 917.847 4.03241 917.511 4.39247C917.199 4.72852 916.779 4.89654 916.251 4.89654ZM928.561 25.4917L920.748 8.56911H923.556L930.145 23.3674H928.561L935.186 8.56911H937.922L930.037 25.4917H928.561ZM941.081 25.4917V8.56911H943.637V25.4917H941.081ZM942.341 4.89654C941.861 4.89654 941.453 4.72852 941.117 4.39247C940.781 4.03241 940.613 3.61235 940.613 3.13227C940.613 2.6282 940.781 2.20813 941.117 1.87208C941.453 1.53603 941.861 1.368 942.341 1.368C942.869 1.368 943.289 1.53603 943.601 1.87208C943.937 2.20813 944.105 2.6282 944.105 3.13227C944.105 3.61235 943.937 4.03241 943.601 4.39247C943.289 4.72852 942.869 4.89654 942.341 4.89654ZM964.295 25.8518C962.591 25.8518 961.066 25.4677 959.722 24.6996C958.378 23.9315 957.31 22.8753 956.518 21.5311C955.749 20.1869 955.365 18.6747 955.365 16.9944C955.365 15.3382 955.749 13.8499 956.518 12.5297C957.286 11.1855 958.33 10.1293 959.65 9.36123C960.97 8.59311 962.447 8.20905 964.079 8.20905C965.615 8.20905 966.971 8.55711 968.147 9.25321C969.348 9.94932 970.284 10.9215 970.956 12.1697C971.652 13.3939 972 14.8101 972 16.4183C972 16.6103 971.988 16.8384 971.964 17.1024C971.94 17.3425 971.892 17.6305 971.82 17.9666H957.166V15.8062H970.452L969.552 16.5983C969.576 15.3502 969.36 14.282 968.904 13.3939C968.471 12.4817 967.835 11.7856 966.995 11.3055C966.179 10.8015 965.183 10.5494 964.007 10.5494C962.783 10.5494 961.714 10.8135 960.802 11.3415C959.89 11.8696 959.17 12.6137 958.642 13.5739C958.138 14.51 957.886 15.6262 957.886 16.9224C957.886 18.2186 958.15 19.3588 958.678 20.3429C959.23 21.3271 959.986 22.0952 960.946 22.6473C961.93 23.1994 963.059 23.4754 964.331 23.4754C965.363 23.4754 966.311 23.2954 967.175 22.9353C968.039 22.5513 968.771 21.9872 969.372 21.2431L970.992 22.8993C970.2 23.8355 969.216 24.5676 968.039 25.0957C966.887 25.5997 965.639 25.8518 964.295 25.8518ZM62.2488 70.8587C61.3367 70.8587 60.4606 70.7387 59.6204 70.4986C58.7803 70.2346 58.0122 69.8745 57.3161 69.4185C56.644 68.9624 56.0559 68.4223 55.5518 67.7982L57.1721 66.142C57.8442 66.9581 58.6003 67.5702 59.4404 67.9782C60.3045 68.3623 61.2647 68.5543 62.3208 68.5543C63.449 68.5543 64.3252 68.3383 64.9493 67.9062C65.5974 67.4742 65.9214 66.8741 65.9214 66.106C65.9214 65.3858 65.6934 64.8218 65.2373 64.4137C64.7812 64.0056 64.1931 63.6816 63.473 63.4415C62.7769 63.2015 62.0328 62.9735 61.2407 62.7574C60.4486 62.5174 59.6924 62.2294 58.9723 61.8933C58.2522 61.5333 57.6641 61.0412 57.2081 60.4171C56.776 59.793 56.56 58.9769 56.56 57.9687C56.56 57.0086 56.788 56.1804 57.2441 55.4843C57.7241 54.7642 58.3962 54.2121 59.2604 53.8281C60.1485 53.42 61.1927 53.216 62.3929 53.216C63.6651 53.216 64.8172 53.444 65.8494 53.9001C66.8815 54.3561 67.7097 55.0283 68.3338 55.9164L66.7135 57.5366C66.2094 56.8885 65.5733 56.3965 64.8052 56.0604C64.0611 55.7004 63.221 55.5203 62.2848 55.5203C61.2047 55.5203 60.3765 55.7364 59.8005 56.1684C59.2484 56.5765 58.9723 57.1166 58.9723 57.7887C58.9723 58.4368 59.2004 58.9529 59.6564 59.3369C60.1125 59.697 60.6886 59.997 61.3847 60.2371C62.1048 60.4531 62.8609 60.6811 63.6531 60.9212C64.4452 61.1372 65.2013 61.4372 65.9214 61.8213C66.6415 62.1814 67.2176 62.6854 67.6497 63.3335C68.1057 63.9576 68.3338 64.8098 68.3338 65.8899C68.3338 67.4022 67.7817 68.6143 66.6775 69.5265C65.5974 70.4146 64.1211 70.8587 62.2488 70.8587ZM80.1374 70.8587C78.4331 70.8587 76.9089 70.4746 75.5647 69.7065C74.2205 68.9384 73.1523 67.8822 72.3602 66.538C71.5921 65.1938 71.208 63.6816 71.208 62.0013C71.208 60.3451 71.5921 58.8568 72.3602 57.5366C73.1283 56.1924 74.1725 55.1363 75.4927 54.3681C76.8129 53.6 78.2891 53.216 79.9214 53.216C81.4576 53.216 82.8138 53.564 83.99 54.2601C85.1902 54.9562 86.1263 55.9284 86.7984 57.1766C87.4945 58.4008 87.8426 59.817 87.8426 61.4252C87.8426 61.6173 87.8306 61.8453 87.8066 62.1093C87.7826 62.3494 87.7346 62.6374 87.6626 62.9735H73.0083V60.8131H86.2943L85.3942 61.6053C85.4182 60.3571 85.2022 59.2889 84.7461 58.4008C84.314 57.4886 83.6779 56.7925 82.8378 56.3124C82.0217 55.8084 81.0255 55.5563 79.8494 55.5563C78.6252 55.5563 77.557 55.8204 76.6449 56.3485C75.7327 56.8765 75.0126 57.6206 74.4845 58.5808C73.9805 59.5169 73.7284 60.6331 73.7284 61.9293C73.7284 63.2255 73.9925 64.3657 74.5205 65.3498C75.0726 66.334 75.8287 67.1021 76.7889 67.6542C77.773 68.2063 78.9012 68.4823 80.1734 68.4823C81.2056 68.4823 82.1537 68.3023 83.0178 67.9422C83.882 67.5582 84.6141 66.9941 85.2142 66.25L86.8344 67.9062C86.0423 68.8424 85.0582 69.5745 83.882 70.1026C82.7298 70.6066 81.4816 70.8587 80.1374 70.8587ZM91.6983 70.4986V53.576H94.2187V70.4986H91.6983ZM94.2187 60.6331L93.1745 60.165C93.1745 58.0287 93.6906 56.3365 94.7227 55.0883C95.7789 53.8401 97.2191 53.216 99.0434 53.216C99.8835 53.216 100.652 53.372 101.348 53.684C102.044 53.9721 102.692 54.4402 103.292 55.0883L101.636 56.8525C101.228 56.3965 100.772 56.0724 100.268 55.8804C99.7875 55.6884 99.2354 55.5923 98.6113 55.5923C97.3151 55.5923 96.259 56.0244 95.4428 56.8885C94.6267 57.7287 94.2187 58.9769 94.2187 60.6331ZM111.492 70.4986L103.679 53.576H106.487L113.076 68.3743H111.492L118.117 53.576H120.853L112.968 70.4986H111.492ZM124.012 70.4986V53.576H126.568V70.4986H124.012ZM125.272 49.9035C124.792 49.9035 124.384 49.7354 124.048 49.3994C123.712 49.0393 123.544 48.6193 123.544 48.1392C123.544 47.6351 123.712 47.2151 124.048 46.879C124.384 46.5429 124.792 46.3749 125.272 46.3749C125.8 46.3749 126.22 46.5429 126.532 46.879C126.868 47.2151 127.036 47.6351 127.036 48.1392C127.036 48.6193 126.868 49.0393 126.532 49.3994C126.22 49.7354 125.8 49.9035 125.272 49.9035ZM130.201 69.0944L140.894 54.9442H143.883L133.189 69.0944H130.201ZM130.201 70.4986V69.0944L132.397 68.1943H143.667V70.4986H130.201ZM130.813 55.8444V53.576H143.883V54.9442L141.507 55.8444H130.813ZM147.605 70.4986V53.576H150.162V70.4986H147.605ZM148.865 49.9035C148.385 49.9035 147.977 49.7354 147.641 49.3994C147.305 49.0393 147.137 48.6193 147.137 48.1392C147.137 47.6351 147.305 47.2151 147.641 46.879C147.977 46.5429 148.385 46.3749 148.865 46.3749C149.394 46.3749 149.814 46.5429 150.126 46.879C150.462 47.2151 150.63 47.6351 150.63 48.1392C150.63 48.6193 150.462 49.0393 150.126 49.3994C149.814 49.7354 149.394 49.9035 148.865 49.9035ZM415.44 74.2072L417.492 70.2106L418.393 69.9946C418.297 70.2106 418.164 70.3906 417.996 70.5346C417.828 70.7027 417.624 70.7867 417.384 70.7867C416.928 70.7867 416.508 70.6066 416.124 70.2466C415.764 69.8625 415.584 69.3945 415.584 68.8424C415.584 68.2663 415.788 67.7742 416.196 67.3661C416.604 66.9341 417.096 66.718 417.672 66.718C418.224 66.718 418.705 66.9341 419.113 67.3661C419.545 67.7742 419.761 68.2663 419.761 68.8424C419.761 69.0824 419.713 69.3705 419.617 69.7065C419.545 70.0186 419.377 70.4386 419.113 70.9667L416.952 75.0353L415.44 74.2072ZM437.881 70.8587C436.969 70.8587 436.093 70.7387 435.252 70.4986C434.412 70.2346 433.644 69.8745 432.948 69.4185C432.276 68.9624 431.688 68.4223 431.184 67.7982L432.804 66.142C433.476 66.9581 434.232 67.5702 435.072 67.9782C435.936 68.3623 436.897 68.5543 437.953 68.5543C439.081 68.5543 439.957 68.3383 440.581 67.9062C441.229 67.4742 441.553 66.8741 441.553 66.106C441.553 65.3858 441.325 64.8218 440.869 64.4137C440.413 64.0056 439.825 63.6816 439.105 63.4415C438.409 63.2015 437.665 62.9735 436.873 62.7574C436.081 62.5174 435.324 62.2294 434.604 61.8933C433.884 61.5333 433.296 61.0412 432.84 60.4171C432.408 59.793 432.192 58.9769 432.192 57.9687C432.192 57.0086 432.42 56.1804 432.876 55.4843C433.356 54.7642 434.028 54.2121 434.892 53.8281C435.78 53.42 436.825 53.216 438.025 53.216C439.297 53.216 440.449 53.444 441.481 53.9001C442.514 54.3561 443.342 55.0283 443.966 55.9164L442.345 57.5366C441.841 56.8885 441.205 56.3965 440.437 56.0604C439.693 55.7004 438.853 55.5203 437.917 55.5203C436.837 55.5203 436.009 55.7364 435.432 56.1684C434.88 56.5765 434.604 57.1166 434.604 57.7887C434.604 58.4368 434.832 58.9529 435.288 59.3369C435.744 59.697 436.321 59.997 437.017 60.2371C437.737 60.4531 438.493 60.6811 439.285 60.9212C440.077 61.1372 440.833 61.4372 441.553 61.8213C442.273 62.1814 442.85 62.6854 443.282 63.3335C443.738 63.9576 443.966 64.8098 443.966 65.8899C443.966 67.4022 443.414 68.6143 442.309 69.5265C441.229 70.4146 439.753 70.8587 437.881 70.8587ZM455.769 70.8587C454.065 70.8587 452.541 70.4746 451.197 69.7065C449.852 68.9384 448.784 67.8822 447.992 66.538C447.224 65.1938 446.84 63.6816 446.84 62.0013C446.84 60.3451 447.224 58.8568 447.992 57.5366C448.76 56.1924 449.804 55.1363 451.125 54.3681C452.445 53.6 453.921 53.216 455.553 53.216C457.09 53.216 458.446 53.564 459.622 54.2601C460.822 54.9562 461.758 55.9284 462.43 57.1766C463.126 58.4008 463.475 59.817 463.475 61.4252C463.475 61.6173 463.463 61.8453 463.439 62.1093C463.415 62.3494 463.367 62.6374 463.295 62.9735H448.64V60.8131H461.926L461.026 61.6053C461.05 60.3571 460.834 59.2889 460.378 58.4008C459.946 57.4886 459.31 56.7925 458.47 56.3124C457.654 55.8084 456.657 55.5563 455.481 55.5563C454.257 55.5563 453.189 55.8204 452.277 56.3485C451.365 56.8765 450.645 57.6206 450.116 58.5808C449.612 59.5169 449.36 60.6331 449.36 61.9293C449.36 63.2255 449.624 64.3657 450.152 65.3498C450.705 66.334 451.461 67.1021 452.421 67.6542C453.405 68.2063 454.533 68.4823 455.805 68.4823C456.838 68.4823 457.786 68.3023 458.65 67.9422C459.514 67.5582 460.246 66.9941 460.846 66.25L462.466 67.9062C461.674 68.8424 460.69 69.5745 459.514 70.1026C458.362 70.6066 457.114 70.8587 455.769 70.8587ZM479.644 70.4986V60.5611C479.644 59.0729 479.2 57.8727 478.312 56.9605C477.448 56.0244 476.296 55.5563 474.855 55.5563C473.871 55.5563 473.007 55.7724 472.263 56.2044C471.519 56.6365 470.931 57.2246 470.499 57.9687C470.067 58.7128 469.851 59.5649 469.851 60.5251L468.698 59.877C468.698 58.6048 468.998 57.4646 469.599 56.4565C470.199 55.4483 471.003 54.6562 472.011 54.0801C473.043 53.504 474.219 53.216 475.539 53.216C476.836 53.216 477.988 53.528 478.996 54.1521C480.004 54.7762 480.784 55.6163 481.336 56.6725C481.912 57.7287 482.201 58.8808 482.201 60.129V70.4986H479.644ZM467.33 70.4986V53.576H469.851V70.4986H467.33ZM485.439 69.0944L496.133 54.9442H499.121L488.428 69.0944H485.439ZM485.439 70.4986V69.0944L487.635 68.1943H498.905V70.4986H485.439ZM486.051 55.8444V53.576H499.121V54.9442L496.745 55.8444H486.051ZM509.837 70.8587C508.229 70.8587 506.789 70.4746 505.516 69.7065C504.244 68.9144 503.236 67.8582 502.492 66.538C501.772 65.2178 501.412 63.7296 501.412 62.0733C501.412 60.3931 501.772 58.8928 502.492 57.5726C503.236 56.2284 504.244 55.1723 505.516 54.4042C506.789 53.612 508.217 53.216 509.801 53.216C511.097 53.216 512.249 53.48 513.258 54.0081C514.29 54.5122 515.118 55.2323 515.742 56.1684C516.39 57.0806 516.786 58.1487 516.93 59.3729V64.6657C516.786 65.8899 516.39 66.9701 515.742 67.9062C515.118 68.8424 514.29 69.5745 513.258 70.1026C512.249 70.6066 511.109 70.8587 509.837 70.8587ZM510.233 68.4463C511.985 68.4463 513.39 67.8582 514.446 66.682C515.526 65.5059 516.066 63.9576 516.066 62.0373C516.066 60.7651 515.814 59.649 515.31 58.6888C514.83 57.7047 514.146 56.9485 513.258 56.4205C512.393 55.8684 511.373 55.5923 510.197 55.5923C508.997 55.5923 507.929 55.8684 506.993 56.4205C506.08 56.9725 505.348 57.7407 504.796 58.7248C504.268 59.685 504.004 60.7891 504.004 62.0373C504.004 63.2855 504.268 64.3897 504.796 65.3498C505.348 66.31 506.092 67.0661 507.029 67.6182C507.965 68.1703 509.033 68.4463 510.233 68.4463ZM515.922 70.4986V65.9619L516.426 61.7853L515.922 57.7167V53.576H518.442V70.4986H515.922ZM540.039 70.8587C538.742 70.8587 537.578 70.5946 536.546 70.0666C535.514 69.5385 534.662 68.8184 533.99 67.9062C533.342 66.9701 532.946 65.8899 532.802 64.6657V59.3729C532.946 58.1247 533.354 57.0446 534.026 56.1324C534.698 55.1963 535.55 54.4762 536.582 53.9721C537.638 53.468 538.79 53.216 540.039 53.216C541.599 53.216 543.003 53.612 544.251 54.4042C545.499 55.1723 546.484 56.2284 547.204 57.5726C547.948 58.8928 548.32 60.3931 548.32 62.0733C548.32 63.7296 547.96 65.2178 547.24 66.538C546.52 67.8582 545.523 68.9144 544.251 69.7065C543.003 70.4746 541.599 70.8587 540.039 70.8587ZM539.607 68.4463C540.807 68.4463 541.863 68.1823 542.775 67.6542C543.687 67.1021 544.395 66.346 544.899 65.3858C545.427 64.4017 545.691 63.2855 545.691 62.0373C545.691 60.7651 545.427 59.649 544.899 58.6888C544.395 57.7287 543.687 56.9725 542.775 56.4205C541.863 55.8684 540.819 55.5923 539.643 55.5923C538.466 55.5923 537.422 55.8684 536.51 56.4205C535.622 56.9725 534.926 57.7287 534.422 58.6888C533.918 59.649 533.666 60.7651 533.666 62.0373C533.666 63.2855 533.918 64.4017 534.422 65.3858C534.926 66.346 535.622 67.1021 536.51 67.6542C537.398 68.1823 538.43 68.4463 539.607 68.4463ZM531.289 77.6277V53.576H533.81V57.8967L533.306 62.0013L533.81 66.142V77.6277H531.289ZM560.164 70.8587C558.46 70.8587 556.936 70.4746 555.592 69.7065C554.247 68.9384 553.179 67.8822 552.387 66.538C551.619 65.1938 551.235 63.6816 551.235 62.0013C551.235 60.3451 551.619 58.8568 552.387 57.5366C553.155 56.1924 554.199 55.1363 555.52 54.3681C556.84 53.6 558.316 53.216 559.948 53.216C561.485 53.216 562.841 53.564 564.017 54.2601C565.217 54.9562 566.153 55.9284 566.825 57.1766C567.521 58.4008 567.869 59.817 567.869 61.4252C567.869 61.6173 567.857 61.8453 567.833 62.1093C567.809 62.3494 567.761 62.6374 567.689 62.9735H553.035V60.8131H566.321L565.421 61.6053C565.445 60.3571 565.229 59.2889 564.773 58.4008C564.341 57.4886 563.705 56.7925 562.865 56.3124C562.049 55.8084 561.052 55.5563 559.876 55.5563C558.652 55.5563 557.584 55.8204 556.672 56.3485C555.76 56.8765 555.04 57.6206 554.511 58.5808C554.007 59.5169 553.755 60.6331 553.755 61.9293C553.755 63.2255 554.019 64.3657 554.547 65.3498C555.1 66.334 555.856 67.1021 556.816 67.6542C557.8 68.2063 558.928 68.4823 560.2 68.4823C561.232 68.4823 562.181 68.3023 563.045 67.9422C563.909 67.5582 564.641 66.9941 565.241 66.25L566.861 67.9062C566.069 68.8424 565.085 69.5745 563.909 70.1026C562.757 70.6066 561.509 70.8587 560.164 70.8587ZM571.725 70.4986V53.576H574.246V70.4986H571.725ZM574.246 60.6331L573.201 60.165C573.201 58.0287 573.717 56.3365 574.75 55.0883C575.806 53.8401 577.246 53.216 579.07 53.216C579.91 53.216 580.679 53.372 581.375 53.684C582.071 53.9721 582.719 54.4402 583.319 55.0883L581.663 56.8525C581.255 56.3965 580.799 56.0724 580.295 55.8804C579.814 55.6884 579.262 55.5923 578.638 55.5923C577.342 55.5923 576.286 56.0244 575.47 56.8885C574.654 57.7287 574.246 58.9769 574.246 60.6331ZM592.604 70.8587C591.044 70.8587 589.64 70.4746 588.392 69.7065C587.143 68.9384 586.147 67.8942 585.403 66.574C584.683 65.2298 584.323 63.7296 584.323 62.0733C584.323 60.3931 584.683 58.8928 585.403 57.5726C586.147 56.2284 587.143 55.1723 588.392 54.4042C589.64 53.612 591.044 53.216 592.604 53.216C593.876 53.216 595.029 53.468 596.061 53.9721C597.093 54.4762 597.945 55.1963 598.617 56.1324C599.313 57.0446 599.721 58.1247 599.841 59.3729V64.6657C599.697 65.8899 599.289 66.9701 598.617 67.9062C597.969 68.8184 597.129 69.5385 596.097 70.0666C595.065 70.5946 593.9 70.8587 592.604 70.8587ZM593.036 68.4463C594.212 68.4463 595.245 68.1823 596.133 67.6542C597.021 67.1021 597.717 66.346 598.221 65.3858C598.725 64.4017 598.977 63.2855 598.977 62.0373C598.977 60.7651 598.713 59.649 598.185 58.6888C597.681 57.7287 596.985 56.9725 596.097 56.4205C595.209 55.8684 594.176 55.5923 593 55.5923C591.824 55.5923 590.78 55.8684 589.868 56.4205C588.956 56.9725 588.236 57.7407 587.707 58.7248C587.203 59.685 586.951 60.7891 586.951 62.0373C586.951 63.2855 587.203 64.4017 587.707 65.3858C588.236 66.346 588.956 67.1021 589.868 67.6542C590.804 68.1823 591.86 68.4463 593.036 68.4463ZM601.354 70.4986H598.833V65.9619L599.337 61.7853L598.833 57.7167V45.0067H601.354V70.4986ZM606.465 70.4986V53.576H609.021V70.4986H606.465ZM607.725 49.9035C607.245 49.9035 606.837 49.7354 606.501 49.3994C606.165 49.0393 605.997 48.6193 605.997 48.1392C605.997 47.6351 606.165 47.2151 606.501 46.879C606.837 46.5429 607.245 46.3749 607.725 46.3749C608.253 46.3749 608.673 46.5429 608.985 46.879C609.321 47.2151 609.489 47.6351 609.489 48.1392C609.489 48.6193 609.321 49.0393 608.985 49.3994C608.673 49.7354 608.253 49.9035 607.725 49.9035ZM616.759 70.4986V46.4469H619.279V70.4986H616.759ZM612.474 55.8444V53.576H623.528V55.8444H612.474ZM634.215 70.8587C632.51 70.8587 630.986 70.4746 629.642 69.7065C628.298 68.9384 627.23 67.8822 626.438 66.538C625.669 65.1938 625.285 63.6816 625.285 62.0013C625.285 60.3451 625.669 58.8568 626.438 57.5366C627.206 56.1924 628.25 55.1363 629.57 54.3681C630.89 53.6 632.366 53.216 633.999 53.216C635.535 53.216 636.891 53.564 638.067 54.2601C639.268 54.9562 640.204 55.9284 640.876 57.1766C641.572 58.4008 641.92 59.817 641.92 61.4252C641.92 61.6173 641.908 61.8453 641.884 62.1093C641.86 62.3494 641.812 62.6374 641.74 62.9735H627.086V60.8131H640.372L639.472 61.6053C639.496 60.3571 639.28 59.2889 638.823 58.4008C638.391 57.4886 637.755 56.7925 636.915 56.3124C636.099 55.8084 635.103 55.5563 633.927 55.5563C632.703 55.5563 631.634 55.8204 630.722 56.3485C629.81 56.8765 629.09 57.6206 628.562 58.5808C628.058 59.5169 627.806 60.6331 627.806 61.9293C627.806 63.2255 628.07 64.3657 628.598 65.3498C629.15 66.334 629.906 67.1021 630.866 67.6542C631.85 68.2063 632.979 68.4823 634.251 68.4823C635.283 68.4823 636.231 68.3023 637.095 67.9422C637.959 67.5582 638.691 66.9941 639.292 66.25L640.912 67.9062C640.12 68.8424 639.136 69.5745 637.959 70.1026C636.807 70.6066 635.559 70.8587 634.215 70.8587ZM660.712 70.8587C659.152 70.8587 657.748 70.4746 656.5 69.7065C655.251 68.9384 654.255 67.8942 653.511 66.574C652.791 65.2298 652.431 63.7296 652.431 62.0733C652.431 60.3931 652.791 58.8928 653.511 57.5726C654.255 56.2284 655.251 55.1723 656.5 54.4042C657.748 53.612 659.152 53.216 660.712 53.216C661.984 53.216 663.137 53.468 664.169 53.9721C665.201 54.4762 666.053 55.1963 666.725 56.1324C667.421 57.0446 667.829 58.1247 667.949 59.3729V64.6657C667.805 65.8899 667.397 66.9701 666.725 67.9062C666.077 68.8184 665.237 69.5385 664.205 70.0666C663.173 70.5946 662.008 70.8587 660.712 70.8587ZM661.144 68.4463C662.321 68.4463 663.353 68.1823 664.241 67.6542C665.129 67.1021 665.825 66.346 666.329 65.3858C666.833 64.4017 667.085 63.2855 667.085 62.0373C667.085 60.7651 666.821 59.649 666.293 58.6888C665.789 57.7287 665.093 56.9725 664.205 56.4205C663.317 55.8684 662.285 55.5923 661.108 55.5923C659.932 55.5923 658.888 55.8684 657.976 56.4205C657.064 56.9725 656.344 57.7407 655.816 58.7248C655.311 59.685 655.059 60.7891 655.059 62.0373C655.059 63.2855 655.311 64.4017 655.816 65.3858C656.344 66.346 657.064 67.1021 657.976 67.6542C658.912 68.1823 659.968 68.4463 661.144 68.4463ZM669.462 70.4986H666.941V65.9619L667.445 61.7853L666.941 57.7167V45.0067H669.462V70.4986ZM674.573 70.4986V53.576H677.129V70.4986H674.573ZM675.833 49.9035C675.353 49.9035 674.945 49.7354 674.609 49.3994C674.273 49.0393 674.105 48.6193 674.105 48.1392C674.105 47.6351 674.273 47.2151 674.609 46.879C674.945 46.5429 675.353 46.3749 675.833 46.3749C676.361 46.3749 676.781 46.5429 677.093 46.879C677.429 47.2151 677.597 47.6351 677.597 48.1392C677.597 48.6193 677.429 49.0393 677.093 49.3994C676.781 49.7354 676.361 49.9035 675.833 49.9035ZM692.602 70.4986V46.4469H695.123V70.4986H692.602ZM688.318 55.8444V53.576H699.371V55.8444H688.318ZM710.058 70.8587C708.354 70.8587 706.83 70.4746 705.486 69.7065C704.142 68.9384 703.073 67.8822 702.281 66.538C701.513 65.1938 701.129 63.6816 701.129 62.0013C701.129 60.3451 701.513 58.8568 702.281 57.5366C703.049 56.1924 704.094 55.1363 705.414 54.3681C706.734 53.6 708.21 53.216 709.842 53.216C711.379 53.216 712.735 53.564 713.911 54.2601C715.111 54.9562 716.047 55.9284 716.719 57.1766C717.416 58.4008 717.764 59.817 717.764 61.4252C717.764 61.6173 717.752 61.8453 717.728 62.1093C717.704 62.3494 717.656 62.6374 717.584 62.9735H702.929V60.8131H716.215L715.315 61.6053C715.339 60.3571 715.123 59.2889 714.667 58.4008C714.235 57.4886 713.599 56.7925 712.759 56.3124C711.943 55.8084 710.947 55.5563 709.77 55.5563C708.546 55.5563 707.478 55.8204 706.566 56.3485C705.654 56.8765 704.934 57.6206 704.406 58.5808C703.902 59.5169 703.649 60.6331 703.649 61.9293C703.649 63.2255 703.914 64.3657 704.442 65.3498C704.994 66.334 705.75 67.1021 706.71 67.6542C707.694 68.2063 708.822 68.4823 710.094 68.4823C711.127 68.4823 712.075 68.3023 712.939 67.9422C713.803 67.5582 714.535 66.9941 715.135 66.25L716.755 67.9062C715.963 68.8424 714.979 69.5745 713.803 70.1026C712.651 70.6066 711.403 70.8587 710.058 70.8587ZM721.619 70.4986V53.576H724.14V70.4986H721.619ZM733.249 70.4986V60.129C733.249 58.7368 732.829 57.6327 731.989 56.8165C731.149 55.9764 730.093 55.5563 728.82 55.5563C727.956 55.5563 727.164 55.7484 726.444 56.1324C725.748 56.4925 725.184 57.0086 724.752 57.6807C724.344 58.3528 724.14 59.1569 724.14 60.093L722.988 59.625C722.988 58.3288 723.276 57.2006 723.852 56.2404C724.428 55.2803 725.196 54.5362 726.156 54.0081C727.14 53.48 728.244 53.216 729.469 53.216C730.669 53.216 731.737 53.48 732.673 54.0081C733.633 54.5362 734.389 55.2803 734.941 56.2404C735.517 57.2006 735.806 58.3408 735.806 59.661V70.4986H733.249ZM744.915 70.4986V60.129C744.915 58.7368 744.495 57.6327 743.655 56.8165C742.815 55.9764 741.746 55.5563 740.45 55.5563C739.61 55.5563 738.83 55.7484 738.11 56.1324C737.414 56.4925 736.85 57.0086 736.418 57.6807C736.01 58.3528 735.806 59.1569 735.806 60.093L734.293 59.625C734.365 58.3288 734.701 57.2006 735.301 56.2404C735.926 55.2803 736.73 54.5362 737.714 54.0081C738.722 53.48 739.826 53.216 741.026 53.216C742.226 53.216 743.307 53.48 744.267 54.0081C745.251 54.5362 746.019 55.2803 746.571 56.2404C747.147 57.2006 747.435 58.3408 747.435 59.661V70.4986H744.915ZM760.924 70.8587C759.628 70.8587 758.464 70.5946 757.432 70.0666C756.399 69.5385 755.547 68.8184 754.875 67.9062C754.227 66.9701 753.831 65.8899 753.687 64.6657V59.3729C753.831 58.1247 754.239 57.0446 754.911 56.1324C755.583 55.1963 756.435 54.4762 757.468 53.9721C758.524 53.468 759.676 53.216 760.924 53.216C762.484 53.216 763.889 53.612 765.137 54.4042C766.385 55.1723 767.369 56.2284 768.089 57.5726C768.833 58.8928 769.205 60.3931 769.205 62.0733C769.205 63.7296 768.845 65.2178 768.125 66.538C767.405 67.8582 766.409 68.9144 765.137 69.7065C763.889 70.4746 762.484 70.8587 760.924 70.8587ZM760.492 68.4463C761.692 68.4463 762.748 68.1823 763.661 67.6542C764.573 67.1021 765.281 66.346 765.785 65.3858C766.313 64.4017 766.577 63.2855 766.577 62.0373C766.577 60.7651 766.313 59.649 765.785 58.6888C765.281 57.7287 764.573 56.9725 763.661 56.4205C762.748 55.8684 761.704 55.5923 760.528 55.5923C759.352 55.5923 758.308 55.8684 757.396 56.4205C756.507 56.9725 755.811 57.7287 755.307 58.6888C754.803 59.649 754.551 60.7651 754.551 62.0373C754.551 63.2855 754.803 64.4017 755.307 65.3858C755.811 66.346 756.507 67.1021 757.396 67.6542C758.284 68.1823 759.316 68.4463 760.492 68.4463ZM752.175 77.6277V53.576H754.695V57.8967L754.191 62.0013L754.695 66.142V77.6277H752.175ZM780.906 70.8587C779.274 70.8587 777.785 70.4626 776.441 69.6705C775.121 68.8784 774.065 67.8102 773.273 66.466C772.505 65.1218 772.12 63.6216 772.12 61.9653C772.12 60.3331 772.505 58.8568 773.273 57.5366C774.065 56.2164 775.121 55.1723 776.441 54.4042C777.785 53.612 779.274 53.216 780.906 53.216C782.562 53.216 784.05 53.6 785.37 54.3681C786.691 55.1363 787.735 56.1924 788.503 57.5366C789.295 58.8568 789.691 60.3331 789.691 61.9653C789.691 63.6456 789.295 65.1578 788.503 66.502C787.735 67.8222 786.691 68.8784 785.37 69.6705C784.05 70.4626 782.562 70.8587 780.906 70.8587ZM780.906 68.4103C782.106 68.4103 783.162 68.1343 784.074 67.5822C785.01 67.0301 785.743 66.262 786.271 65.2778C786.823 64.2937 787.099 63.1895 787.099 61.9653C787.099 60.7411 786.823 59.661 786.271 58.7248C785.743 57.7647 785.01 57.0086 784.074 56.4565C783.162 55.9044 782.106 55.6283 780.906 55.6283C779.73 55.6283 778.673 55.9044 777.737 56.4565C776.801 57.0086 776.069 57.7647 775.541 58.7248C775.013 59.661 774.749 60.7411 774.749 61.9653C774.749 63.2135 775.013 64.3297 775.541 65.3138C776.069 66.274 776.801 67.0301 777.737 67.5822C778.673 68.1343 779.73 68.4103 780.906 68.4103ZM809.249 70.8587C807.545 70.8587 806.021 70.4746 804.677 69.7065C803.333 68.9384 802.264 67.8822 801.472 66.538C800.704 65.1938 800.32 63.6816 800.32 62.0013C800.32 60.3451 800.704 58.8568 801.472 57.5366C802.24 56.1924 803.285 55.1363 804.605 54.3681C805.925 53.6 807.401 53.216 809.033 53.216C810.57 53.216 811.926 53.564 813.102 54.2601C814.302 54.9562 815.238 55.9284 815.911 57.1766C816.607 58.4008 816.955 59.817 816.955 61.4252C816.955 61.6173 816.943 61.8453 816.919 62.1093C816.895 62.3494 816.847 62.6374 816.775 62.9735H802.12V60.8131H815.406L814.506 61.6053C814.53 60.3571 814.314 59.2889 813.858 58.4008C813.426 57.4886 812.79 56.7925 811.95 56.3124C811.134 55.8084 810.138 55.5563 808.961 55.5563C807.737 55.5563 806.669 55.8204 805.757 56.3485C804.845 56.8765 804.125 57.6206 803.597 58.5808C803.093 59.5169 802.84 60.6331 802.84 61.9293C802.84 63.2255 803.105 64.3657 803.633 65.3498C804.185 66.334 804.941 67.1021 805.901 67.6542C806.885 68.2063 808.013 68.4823 809.285 68.4823C810.318 68.4823 811.266 68.3023 812.13 67.9422C812.994 67.5582 813.726 66.9941 814.326 66.25L815.947 67.9062C815.154 68.8424 814.17 69.5745 812.994 70.1026C811.842 70.6066 810.594 70.8587 809.249 70.8587ZM833.731 70.8587C832.819 70.8587 831.942 70.7387 831.102 70.4986C830.262 70.2346 829.494 69.8745 828.798 69.4185C828.126 68.9624 827.538 68.4223 827.034 67.7982L828.654 66.142C829.326 66.9581 830.082 67.5702 830.922 67.9782C831.786 68.3623 832.747 68.5543 833.803 68.5543C834.931 68.5543 835.807 68.3383 836.431 67.9062C837.079 67.4742 837.403 66.8741 837.403 66.106C837.403 65.3858 837.175 64.8218 836.719 64.4137C836.263 64.0056 835.675 63.6816 834.955 63.4415C834.259 63.2015 833.515 62.9735 832.723 62.7574C831.93 62.5174 831.174 62.2294 830.454 61.8933C829.734 61.5333 829.146 61.0412 828.69 60.4171C828.258 59.793 828.042 58.9769 828.042 57.9687C828.042 57.0086 828.27 56.1804 828.726 55.4843C829.206 54.7642 829.878 54.2121 830.742 53.8281C831.63 53.42 832.675 53.216 833.875 53.216C835.147 53.216 836.299 53.444 837.331 53.9001C838.363 54.3561 839.192 55.0283 839.816 55.9164L838.195 57.5366C837.691 56.8885 837.055 56.3965 836.287 56.0604C835.543 55.7004 834.703 55.5203 833.767 55.5203C832.687 55.5203 831.858 55.7364 831.282 56.1684C830.73 56.5765 830.454 57.1166 830.454 57.7887C830.454 58.4368 830.682 58.9529 831.138 59.3369C831.594 59.697 832.17 59.997 832.867 60.2371C833.587 60.4531 834.343 60.6811 835.135 60.9212C835.927 61.1372 836.683 61.4372 837.403 61.8213C838.123 62.1814 838.699 62.6854 839.132 63.3335C839.588 63.9576 839.816 64.8098 839.816 65.8899C839.816 67.4022 839.264 68.6143 838.159 69.5265C837.079 70.4146 835.603 70.8587 833.731 70.8587ZM851.619 70.8587C849.915 70.8587 848.391 70.4746 847.047 69.7065C845.702 68.9384 844.634 67.8822 843.842 66.538C843.074 65.1938 842.69 63.6816 842.69 62.0013C842.69 60.3451 843.074 58.8568 843.842 57.5366C844.61 56.1924 845.654 55.1363 846.975 54.3681C848.295 53.6 849.771 53.216 851.403 53.216C852.939 53.216 854.296 53.564 855.472 54.2601C856.672 54.9562 857.608 55.9284 858.28 57.1766C858.976 58.4008 859.324 59.817 859.324 61.4252C859.324 61.6173 859.312 61.8453 859.288 62.1093C859.264 62.3494 859.216 62.6374 859.144 62.9735H844.49V60.8131H857.776L856.876 61.6053C856.9 60.3571 856.684 59.2889 856.228 58.4008C855.796 57.4886 855.16 56.7925 854.32 56.3124C853.504 55.8084 852.507 55.5563 851.331 55.5563C850.107 55.5563 849.039 55.8204 848.127 56.3485C847.215 56.8765 846.494 57.6206 845.966 58.5808C845.462 59.5169 845.21 60.6331 845.21 61.9293C845.21 63.2255 845.474 64.3657 846.002 65.3498C846.554 66.334 847.311 67.1021 848.271 67.6542C849.255 68.2063 850.383 68.4823 851.655 68.4823C852.687 68.4823 853.636 68.3023 854.5 67.9422C855.364 67.5582 856.096 66.9941 856.696 66.25L858.316 67.9062C857.524 68.8424 856.54 69.5745 855.364 70.1026C854.212 70.6066 852.963 70.8587 851.619 70.8587ZM875.494 70.4986V60.5611C875.494 59.0729 875.05 57.8727 874.162 56.9605C873.298 56.0244 872.146 55.5563 870.705 55.5563C869.721 55.5563 868.857 55.7724 868.113 56.2044C867.369 56.6365 866.781 57.2246 866.349 57.9687C865.917 58.7128 865.701 59.5649 865.701 60.5251L864.548 59.877C864.548 58.6048 864.848 57.4646 865.448 56.4565C866.049 55.4483 866.853 54.6562 867.861 54.0801C868.893 53.504 870.069 53.216 871.389 53.216C872.686 53.216 873.838 53.528 874.846 54.1521C875.854 54.7762 876.634 55.6163 877.186 56.6725C877.762 57.7287 878.05 58.8808 878.05 60.129V70.4986H875.494ZM863.18 70.4986V53.576H865.701V70.4986H863.18ZM881.289 69.0944L891.983 54.9442H894.971L884.277 69.0944H881.289ZM881.289 70.4986V69.0944L883.485 68.1943H894.755V70.4986H881.289ZM881.901 55.8444V53.576H894.971V54.9442L892.595 55.8444H881.901ZM905.687 70.8587C904.079 70.8587 902.638 70.4746 901.366 69.7065C900.094 68.9144 899.086 67.8582 898.342 66.538C897.622 65.2178 897.262 63.7296 897.262 62.0733C897.262 60.3931 897.622 58.8928 898.342 57.5726C899.086 56.2284 900.094 55.1723 901.366 54.4042C902.638 53.612 904.067 53.216 905.651 53.216C906.947 53.216 908.099 53.48 909.107 54.0081C910.14 54.5122 910.968 55.2323 911.592 56.1684C912.24 57.0806 912.636 58.1487 912.78 59.3729V64.6657C912.636 65.8899 912.24 66.9701 911.592 67.9062C910.968 68.8424 910.14 69.5745 909.107 70.1026C908.099 70.6066 906.959 70.8587 905.687 70.8587ZM906.083 68.4463C907.835 68.4463 909.239 67.8582 910.296 66.682C911.376 65.5059 911.916 63.9576 911.916 62.0373C911.916 60.7651 911.664 59.649 911.16 58.6888C910.68 57.7047 909.996 56.9485 909.107 56.4205C908.243 55.8684 907.223 55.5923 906.047 55.5923C904.847 55.5923 903.779 55.8684 902.842 56.4205C901.93 56.9725 901.198 57.7407 900.646 58.7248C900.118 59.685 899.854 60.7891 899.854 62.0373C899.854 63.2855 900.118 64.3897 900.646 65.3498C901.198 66.31 901.942 67.0661 902.878 67.6182C903.815 68.1703 904.883 68.4463 906.083 68.4463ZM911.772 70.4986V65.9619L912.276 61.7853L911.772 57.7167V53.576H914.292V70.4986H911.772ZM362.73 115.506V95.7025C362.73 94.5263 362.982 93.4822 363.486 92.57C364.014 91.6579 364.734 90.9498 365.646 90.4457C366.582 89.9176 367.639 89.6536 368.815 89.6536C369.727 89.6536 370.531 89.8216 371.227 90.1576C371.923 90.4697 372.559 90.9138 373.135 91.4899L371.479 93.1461C371.095 92.7621 370.687 92.486 370.255 92.318C369.847 92.126 369.367 92.0299 368.815 92.0299C367.687 92.0299 366.81 92.366 366.186 93.0381C365.586 93.6862 365.286 94.5983 365.286 95.7745V115.506H362.73ZM358.481 100.851V98.5829H370.939V100.851H358.481ZM380.995 115.866C379.362 115.866 377.874 115.47 376.53 114.677C375.21 113.885 374.154 112.817 373.362 111.473C372.593 110.129 372.209 108.628 372.209 106.972C372.209 105.34 372.593 103.864 373.362 102.544C374.154 101.223 375.21 100.179 376.53 99.4111C377.874 98.619 379.362 98.2229 380.995 98.2229C382.651 98.2229 384.139 98.607 385.459 99.3751C386.78 100.143 387.824 101.199 388.592 102.544C389.384 103.864 389.78 105.34 389.78 106.972C389.78 108.652 389.384 110.165 388.592 111.509C387.824 112.829 386.78 113.885 385.459 114.677C384.139 115.47 382.651 115.866 380.995 115.866ZM380.995 113.417C382.195 113.417 383.251 113.141 384.163 112.589C385.099 112.037 385.831 111.269 386.36 110.285C386.912 109.301 387.188 108.196 387.188 106.972C387.188 105.748 386.912 104.668 386.36 103.732C385.831 102.772 385.099 102.015 384.163 101.463C383.251 100.911 382.195 100.635 380.995 100.635C379.819 100.635 378.762 100.911 377.826 101.463C376.89 102.015 376.158 102.772 375.63 103.732C375.102 104.668 374.838 105.748 374.838 106.972C374.838 108.22 375.102 109.337 375.63 110.321C376.158 111.281 376.89 112.037 377.826 112.589C378.762 113.141 379.819 113.417 380.995 113.417ZM393.79 115.506V98.5829H396.31V115.506H393.79ZM396.31 105.64L395.266 105.172C395.266 103.036 395.782 101.343 396.814 100.095C397.87 98.847 399.31 98.2229 401.135 98.2229C401.975 98.2229 402.743 98.3789 403.439 98.691C404.135 98.979 404.783 99.4471 405.383 100.095L403.727 101.859C403.319 101.403 402.863 101.079 402.359 100.887C401.879 100.695 401.327 100.599 400.703 100.599C399.406 100.599 398.35 101.031 397.534 101.895C396.718 102.736 396.31 103.984 396.31 105.64ZM420.52 115.506V105.568C420.52 104.08 420.076 102.88 419.188 101.967C418.323 101.031 417.171 100.563 415.731 100.563C414.747 100.563 413.883 100.779 413.139 101.211C412.395 101.643 411.806 102.232 411.374 102.976C410.942 103.72 410.726 104.572 410.726 105.532L409.574 104.884C409.574 103.612 409.874 102.472 410.474 101.463C411.074 100.455 411.878 99.6631 412.887 99.087C413.919 98.5109 415.095 98.2229 416.415 98.2229C417.711 98.2229 418.864 98.5349 419.872 99.159C420.88 99.7831 421.66 100.623 422.212 101.679C422.788 102.736 423.076 103.888 423.076 105.136V115.506H420.52ZM408.206 115.506V98.5829H410.726V115.506H408.206ZM427.791 115.506V98.5829H430.347V115.506H427.791ZM429.051 94.9104C428.571 94.9104 428.163 94.7424 427.827 94.4063C427.491 94.0462 427.323 93.6262 427.323 93.1461C427.323 92.642 427.491 92.222 427.827 91.8859C428.163 91.5499 428.571 91.3818 429.051 91.3818C429.579 91.3818 429.999 91.5499 430.311 91.8859C430.647 92.222 430.815 92.642 430.815 93.1461C430.815 93.6262 430.647 94.0462 430.311 94.4063C429.999 94.7424 429.579 94.9104 429.051 94.9104ZM438.085 115.506V91.4538H440.605V115.506H438.085ZM433.8 100.851V98.5829H444.854V100.851H433.8ZM455.397 115.866C453.765 115.866 452.276 115.47 450.932 114.677C449.612 113.885 448.556 112.817 447.764 111.473C446.995 110.129 446.611 108.628 446.611 106.972C446.611 105.34 446.995 103.864 447.764 102.544C448.556 101.223 449.612 100.179 450.932 99.4111C452.276 98.619 453.765 98.2229 455.397 98.2229C457.053 98.2229 458.541 98.607 459.861 99.3751C461.182 100.143 462.226 101.199 462.994 102.544C463.786 103.864 464.182 105.34 464.182 106.972C464.182 108.652 463.786 110.165 462.994 111.509C462.226 112.829 461.182 113.885 459.861 114.677C458.541 115.47 457.053 115.866 455.397 115.866ZM455.397 113.417C456.597 113.417 457.653 113.141 458.565 112.589C459.501 112.037 460.234 111.269 460.762 110.285C461.314 109.301 461.59 108.196 461.59 106.972C461.59 105.748 461.314 104.668 460.762 103.732C460.234 102.772 459.501 102.015 458.565 101.463C457.653 100.911 456.597 100.635 455.397 100.635C454.221 100.635 453.164 100.911 452.228 101.463C451.292 102.015 450.56 102.772 450.032 103.732C449.504 104.668 449.24 105.748 449.24 106.972C449.24 108.22 449.504 109.337 450.032 110.321C450.56 111.281 451.292 112.037 452.228 112.589C453.164 113.141 454.221 113.417 455.397 113.417ZM468.192 115.506V98.5829H470.712V115.506H468.192ZM470.712 105.64L469.668 105.172C469.668 103.036 470.184 101.343 471.216 100.095C472.272 98.847 473.713 98.2229 475.537 98.2229C476.377 98.2229 477.145 98.3789 477.841 98.691C478.537 98.979 479.185 99.4471 479.785 100.095L478.129 101.859C477.721 101.403 477.265 101.079 476.761 100.887C476.281 100.695 475.729 100.599 475.105 100.599C473.809 100.599 472.752 101.031 471.936 101.895C471.12 102.736 470.712 103.984 470.712 105.64ZM482.467 115.506V98.5829H485.024V115.506H482.467ZM483.728 94.9104C483.247 94.9104 482.839 94.7424 482.503 94.4063C482.167 94.0462 481.999 93.6262 481.999 93.1461C481.999 92.642 482.167 92.222 482.503 91.8859C482.839 91.5499 483.247 91.3818 483.728 91.3818C484.256 91.3818 484.676 91.5499 484.988 91.8859C485.324 92.222 485.492 92.642 485.492 93.1461C485.492 93.6262 485.324 94.0462 484.988 94.4063C484.676 94.7424 484.256 94.9104 483.728 94.9104ZM505.681 115.866C503.977 115.866 502.453 115.482 501.109 114.713C499.764 113.945 498.696 112.889 497.904 111.545C497.136 110.201 496.752 108.688 496.752 107.008C496.752 105.352 497.136 103.864 497.904 102.544C498.672 101.199 499.716 100.143 501.037 99.3751C502.357 98.607 503.833 98.2229 505.465 98.2229C507.002 98.2229 508.358 98.5709 509.534 99.2671C510.734 99.9632 511.67 100.935 512.342 102.184C513.038 103.408 513.387 104.824 513.387 106.432C513.387 106.624 513.375 106.852 513.351 107.116C513.327 107.356 513.278 107.644 513.206 107.98H498.552V105.82H511.838L510.938 106.612C510.962 105.364 510.746 104.296 510.29 103.408C509.858 102.496 509.222 101.799 508.382 101.319C507.566 100.815 506.569 100.563 505.393 100.563C504.169 100.563 503.101 100.827 502.189 101.355C501.277 101.883 500.557 102.628 500.028 103.588C499.524 104.524 499.272 105.64 499.272 106.936C499.272 108.232 499.536 109.373 500.064 110.357C500.617 111.341 501.373 112.109 502.333 112.661C503.317 113.213 504.445 113.489 505.717 113.489C506.749 113.489 507.698 113.309 508.562 112.949C509.426 112.565 510.158 112.001 510.758 111.257L512.378 112.913C511.586 113.849 510.602 114.581 509.426 115.109C508.274 115.614 507.026 115.866 505.681 115.866ZM522.427 115.866C521.515 115.866 520.639 115.746 519.799 115.506C518.958 115.242 518.19 114.881 517.494 114.425C516.822 113.969 516.234 113.429 515.73 112.805L517.35 111.149C518.022 111.965 518.778 112.577 519.619 112.985C520.483 113.369 521.443 113.561 522.499 113.561C523.627 113.561 524.503 113.345 525.127 112.913C525.776 112.481 526.1 111.881 526.1 111.113C526.1 110.393 525.872 109.829 525.415 109.421C524.959 109.013 524.371 108.689 523.651 108.448C522.955 108.208 522.211 107.98 521.419 107.764C520.627 107.524 519.871 107.236 519.15 106.9C518.43 106.54 517.842 106.048 517.386 105.424C516.954 104.8 516.738 103.984 516.738 102.976C516.738 102.015 516.966 101.187 517.422 100.491C517.902 99.7711 518.574 99.219 519.439 98.835C520.327 98.4269 521.371 98.2229 522.571 98.2229C523.843 98.2229 524.995 98.4509 526.028 98.907C527.06 99.3631 527.888 100.035 528.512 100.923L526.892 102.544C526.388 101.895 525.752 101.403 524.983 101.067C524.239 100.707 523.399 100.527 522.463 100.527C521.383 100.527 520.555 100.743 519.979 101.175C519.427 101.583 519.15 102.123 519.15 102.796C519.15 103.444 519.379 103.96 519.835 104.344C520.291 104.704 520.867 105.004 521.563 105.244C522.283 105.46 523.039 105.688 523.831 105.928C524.623 106.144 525.379 106.444 526.1 106.828C526.82 107.188 527.396 107.692 527.828 108.34C528.284 108.965 528.512 109.817 528.512 110.897C528.512 112.409 527.96 113.621 526.856 114.533C525.776 115.422 524.299 115.866 522.427 115.866ZM535.131 115.506V91.4538H537.651V115.506H535.131ZM530.846 100.851V98.5829H541.9V100.851H530.846ZM552.587 115.866C550.883 115.866 549.358 115.482 548.014 114.713C546.67 113.945 545.602 112.889 544.81 111.545C544.042 110.201 543.658 108.688 543.658 107.008C543.658 105.352 544.042 103.864 544.81 102.544C545.578 101.199 546.622 100.143 547.942 99.3751C549.262 98.607 550.739 98.2229 552.371 98.2229C553.907 98.2229 555.263 98.5709 556.44 99.2671C557.64 99.9632 558.576 100.935 559.248 102.184C559.944 103.408 560.292 104.824 560.292 106.432C560.292 106.624 560.28 106.852 560.256 107.116C560.232 107.356 560.184 107.644 560.112 107.98H545.458V105.82H558.744L557.844 106.612C557.868 105.364 557.652 104.296 557.196 103.408C556.764 102.496 556.128 101.799 555.287 101.319C554.471 100.815 553.475 100.563 552.299 100.563C551.075 100.563 550.007 100.827 549.094 101.355C548.182 101.883 547.462 102.628 546.934 103.588C546.43 104.524 546.178 105.64 546.178 106.936C546.178 108.232 546.442 109.373 546.97 110.357C547.522 111.341 548.278 112.109 549.238 112.661C550.223 113.213 551.351 113.489 552.623 113.489C553.655 113.489 554.603 113.309 555.467 112.949C556.332 112.565 557.064 112.001 557.664 111.257L559.284 112.913C558.492 113.849 557.508 114.581 556.332 115.109C555.179 115.614 553.931 115.866 552.587 115.866ZM564.148 115.506V98.5829H566.668V115.506H564.148ZM566.668 105.64L565.624 105.172C565.624 103.036 566.14 101.343 567.172 100.095C568.228 98.847 569.669 98.2229 571.493 98.2229C572.333 98.2229 573.101 98.3789 573.797 98.691C574.493 98.979 575.142 99.4471 575.742 100.095L574.085 101.859C573.677 101.403 573.221 101.079 572.717 100.887C572.237 100.695 571.685 100.599 571.061 100.599C569.765 100.599 568.709 101.031 567.892 101.895C567.076 102.736 566.668 103.984 566.668 105.64ZM590.878 115.506V105.568C590.878 104.08 590.434 102.88 589.546 101.967C588.682 101.031 587.53 100.563 586.089 100.563C585.105 100.563 584.241 100.779 583.497 101.211C582.753 101.643 582.165 102.232 581.733 102.976C581.301 103.72 581.085 104.572 581.085 105.532L579.932 104.884C579.932 103.612 580.232 102.472 580.832 101.463C581.433 100.455 582.237 99.6631 583.245 99.087C584.277 98.5109 585.453 98.2229 586.773 98.2229C588.07 98.2229 589.222 98.5349 590.23 99.159C591.238 99.7831 592.018 100.623 592.57 101.679C593.146 102.736 593.434 103.888 593.434 105.136V115.506H590.878ZM578.564 115.506V98.5829H581.085V115.506H578.564ZM598.149 115.506V98.5829H600.706V115.506H598.149ZM599.409 94.9104C598.929 94.9104 598.521 94.7424 598.185 94.4063C597.849 94.0462 597.681 93.6262 597.681 93.1461C597.681 92.642 597.849 92.222 598.185 91.8859C598.521 91.5499 598.929 91.3818 599.409 91.3818C599.937 91.3818 600.358 91.5499 600.67 91.8859C601.006 92.222 601.174 92.642 601.174 93.1461C601.174 93.6262 601.006 94.0462 600.67 94.4063C600.358 94.7424 599.937 94.9104 599.409 94.9104ZM608.479 115.866C607.879 115.866 607.387 115.662 607.003 115.254C606.619 114.845 606.427 114.353 606.427 113.777C606.427 113.201 606.619 112.721 607.003 112.337C607.387 111.929 607.879 111.725 608.479 111.725C609.055 111.725 609.535 111.929 609.919 112.337C610.303 112.721 610.495 113.201 610.495 113.777C610.495 114.353 610.303 114.845 609.919 115.254C609.535 115.662 609.055 115.866 608.479 115.866Z" fill="#390035"/>
<path d="M170.603 70.8587C168.899 70.8587 167.351 70.4626 165.959 69.6705C164.59 68.8784 163.51 67.7982 162.718 66.43C161.926 65.0618 161.53 63.5376 161.53 61.8573C161.53 60.153 161.926 58.6288 162.718 57.2846C163.51 55.9164 164.59 54.8362 165.959 54.0441C167.351 53.252 168.899 52.8559 170.603 52.8559C171.947 52.8559 173.196 53.12 174.348 53.648C175.524 54.1521 176.52 54.8842 177.336 55.8444L174.744 58.4728C174.24 57.8727 173.628 57.4286 172.908 57.1406C172.212 56.8285 171.443 56.6725 170.603 56.6725C169.619 56.6725 168.743 56.9005 167.975 57.3566C167.231 57.7887 166.643 58.3888 166.211 59.1569C165.803 59.925 165.599 60.8251 165.599 61.8573C165.599 62.8655 165.803 63.7656 166.211 64.5577C166.643 65.3258 167.231 65.9379 167.975 66.394C168.743 66.8261 169.619 67.0421 170.603 67.0421C171.443 67.0421 172.212 66.8981 172.908 66.61C173.628 66.298 174.24 65.8419 174.744 65.2418L177.336 67.8702C176.52 68.8304 175.524 69.5745 174.348 70.1026C173.196 70.6066 171.947 70.8587 170.603 70.8587ZM187.761 70.8587C186.081 70.8587 184.557 70.4626 183.189 69.6705C181.82 68.8544 180.728 67.7622 179.912 66.394C179.12 65.0258 178.724 63.5016 178.724 61.8213C178.724 60.141 179.12 58.6288 179.912 57.2846C180.728 55.9404 181.82 54.8722 183.189 54.0801C184.557 53.264 186.081 52.8559 187.761 52.8559C189.466 52.8559 191.002 53.252 192.37 54.0441C193.738 54.8362 194.818 55.9164 195.611 57.2846C196.427 58.6288 196.835 60.141 196.835 61.8213C196.835 63.5016 196.427 65.0258 195.611 66.394C194.818 67.7622 193.738 68.8544 192.37 69.6705C191.002 70.4626 189.466 70.8587 187.761 70.8587ZM187.761 67.0421C188.745 67.0421 189.61 66.8261 190.354 66.394C191.122 65.9379 191.71 65.3138 192.118 64.5217C192.55 63.7296 192.766 62.8295 192.766 61.8213C192.766 60.8131 192.55 59.925 192.118 59.1569C191.686 58.3888 191.098 57.7887 190.354 57.3566C189.61 56.9005 188.745 56.6725 187.761 56.6725C186.801 56.6725 185.937 56.9005 185.169 57.3566C184.425 57.7887 183.837 58.3888 183.405 59.1569C182.997 59.925 182.793 60.8131 182.793 61.8213C182.793 62.8295 182.997 63.7296 183.405 64.5217C183.837 65.3138 184.425 65.9379 185.169 66.394C185.937 66.8261 186.801 67.0421 187.761 67.0421ZM211.974 70.4986V60.5251C211.974 59.3729 211.602 58.4248 210.858 57.6807C210.138 56.9365 209.202 56.5645 208.05 56.5645C207.281 56.5645 206.597 56.7325 205.997 57.0686C205.397 57.4046 204.929 57.8727 204.593 58.4728C204.257 59.0729 204.089 59.757 204.089 60.5251L202.541 59.661C202.541 58.3408 202.829 57.1766 203.405 56.1684C203.981 55.1363 204.773 54.3321 205.781 53.7561C206.813 53.156 207.966 52.8559 209.238 52.8559C210.534 52.8559 211.686 53.192 212.694 53.8641C213.702 54.5122 214.495 55.3643 215.071 56.4205C215.647 57.4526 215.935 58.5328 215.935 59.661V70.4986H211.974ZM200.128 70.4986V53.216H204.089V70.4986H200.128ZM234.261 70.8587C232.797 70.8587 231.488 70.5346 230.336 69.8865C229.208 69.2384 228.32 68.3503 227.672 67.2221C227.048 66.0699 226.736 64.7497 226.736 63.2615V53.216H230.696V63.0815C230.696 63.9216 230.828 64.6417 231.092 65.2418C231.38 65.8179 231.788 66.262 232.316 66.574C232.869 66.8861 233.517 67.0421 234.261 67.0421C235.413 67.0421 236.289 66.706 236.889 66.0339C237.513 65.3378 237.825 64.3537 237.825 63.0815V53.216H241.786V63.2615C241.786 64.7737 241.462 66.106 240.814 67.2581C240.19 68.3863 239.314 69.2744 238.185 69.9225C237.057 70.5466 235.749 70.8587 234.261 70.8587ZM257.614 70.4986V60.5251C257.614 59.3729 257.242 58.4248 256.498 57.6807C255.778 56.9365 254.842 56.5645 253.689 56.5645C252.921 56.5645 252.237 56.7325 251.637 57.0686C251.037 57.4046 250.569 57.8727 250.233 58.4728C249.897 59.0729 249.729 59.757 249.729 60.5251L248.181 59.661C248.181 58.3408 248.469 57.1766 249.045 56.1684C249.621 55.1363 250.413 54.3321 251.421 53.7561C252.453 53.156 253.605 52.8559 254.878 52.8559C256.174 52.8559 257.326 53.192 258.334 53.8641C259.342 54.5122 260.134 55.3643 260.711 56.4205C261.287 57.4526 261.575 58.5328 261.575 59.661V70.4986H257.614ZM245.768 70.4986V53.216H249.729V70.4986H245.768ZM278.46 70.8587C277.5 70.8587 276.576 70.7387 275.688 70.4986C274.8 70.2346 273.984 69.8745 273.24 69.4185C272.495 68.9384 271.847 68.3623 271.295 67.6902L273.816 65.1698C274.416 65.8659 275.1 66.394 275.868 66.7541C276.66 67.0901 277.548 67.2581 278.532 67.2581C279.421 67.2581 280.093 67.1261 280.549 66.8621C281.005 66.598 281.233 66.214 281.233 65.7099C281.233 65.1818 281.017 64.7737 280.585 64.4857C280.153 64.1977 279.589 63.9576 278.892 63.7656C278.22 63.5496 277.5 63.3335 276.732 63.1175C275.988 62.9015 275.268 62.6134 274.572 62.2534C273.9 61.8693 273.348 61.3532 272.916 60.7051C272.483 60.057 272.267 59.2169 272.267 58.1847C272.267 57.0806 272.519 56.1324 273.024 55.3403C273.552 54.5482 274.284 53.9361 275.22 53.504C276.18 53.072 277.32 52.8559 278.64 52.8559C280.033 52.8559 281.257 53.108 282.313 53.612C283.393 54.0921 284.293 54.8242 285.013 55.8084L282.493 58.3288C281.989 57.7047 281.413 57.2366 280.765 56.9245C280.117 56.6125 279.373 56.4565 278.532 56.4565C277.74 56.4565 277.128 56.5765 276.696 56.8165C276.264 57.0566 276.048 57.4046 276.048 57.8607C276.048 58.3408 276.264 58.7128 276.696 58.9769C277.128 59.2409 277.68 59.4689 278.352 59.661C279.048 59.853 279.769 60.069 280.513 60.3091C281.281 60.5251 282.001 60.8371 282.673 61.2452C283.369 61.6293 283.933 62.1573 284.365 62.8295C284.797 63.4776 285.013 64.3297 285.013 65.3858C285.013 67.0661 284.425 68.3983 283.249 69.3825C282.073 70.3666 280.477 70.8587 278.46 70.8587ZM296.2 70.8587C294.52 70.8587 292.995 70.4626 291.627 69.6705C290.259 68.8544 289.167 67.7622 288.351 66.394C287.559 65.0258 287.162 63.5016 287.162 61.8213C287.162 60.141 287.559 58.6288 288.351 57.2846C289.167 55.9404 290.259 54.8722 291.627 54.0801C292.995 53.264 294.52 52.8559 296.2 52.8559C297.904 52.8559 299.44 53.252 300.809 54.0441C302.177 54.8362 303.257 55.9164 304.049 57.2846C304.865 58.6288 305.273 60.141 305.273 61.8213C305.273 63.5016 304.865 65.0258 304.049 66.394C303.257 67.7622 302.177 68.8544 300.809 69.6705C299.44 70.4626 297.904 70.8587 296.2 70.8587ZM296.2 67.0421C297.184 67.0421 298.048 66.8261 298.792 66.394C299.56 65.9379 300.148 65.3138 300.557 64.5217C300.989 63.7296 301.205 62.8295 301.205 61.8213C301.205 60.8131 300.989 59.925 300.557 59.1569C300.124 58.3888 299.536 57.7887 298.792 57.3566C298.048 56.9005 297.184 56.6725 296.2 56.6725C295.24 56.6725 294.376 56.9005 293.607 57.3566C292.863 57.7887 292.275 58.3888 291.843 59.1569C291.435 59.925 291.231 60.8131 291.231 61.8213C291.231 62.8295 291.435 63.7296 291.843 64.5217C292.275 65.3138 292.863 65.9379 293.607 66.394C294.376 66.8261 295.24 67.0421 296.2 67.0421ZM308.567 70.4986V44.5746H312.528V70.4986H308.567ZM324.857 70.8587C323.176 70.8587 321.652 70.4626 320.284 69.6705C318.916 68.8544 317.824 67.7622 317.007 66.394C316.215 65.0258 315.819 63.5016 315.819 61.8213C315.819 60.141 316.215 58.6288 317.007 57.2846C317.824 55.9404 318.916 54.8722 320.284 54.0801C321.652 53.264 323.176 52.8559 324.857 52.8559C326.561 52.8559 328.097 53.252 329.465 54.0441C330.834 54.8362 331.914 55.9164 332.706 57.2846C333.522 58.6288 333.93 60.141 333.93 61.8213C333.93 63.5016 333.522 65.0258 332.706 66.394C331.914 67.7622 330.834 68.8544 329.465 69.6705C328.097 70.4626 326.561 70.8587 324.857 70.8587ZM324.857 67.0421C325.841 67.0421 326.705 66.8261 327.449 66.394C328.217 65.9379 328.805 65.3138 329.213 64.5217C329.645 63.7296 329.861 62.8295 329.861 61.8213C329.861 60.8131 329.645 59.925 329.213 59.1569C328.781 58.3888 328.193 57.7887 327.449 57.3566C326.705 56.9005 325.841 56.6725 324.857 56.6725C323.896 56.6725 323.032 56.9005 322.264 57.3566C321.52 57.7887 320.932 58.3888 320.5 59.1569C320.092 59.925 319.888 60.8131 319.888 61.8213C319.888 62.8295 320.092 63.7296 320.5 64.5217C320.932 65.3138 321.52 65.9379 322.264 66.394C323.032 66.8261 323.896 67.0421 324.857 67.0421ZM352.389 70.8587C350.685 70.8587 349.137 70.4626 347.744 69.6705C346.376 68.8784 345.296 67.7982 344.504 66.43C343.712 65.0618 343.316 63.5376 343.316 61.8573C343.316 60.153 343.712 58.6288 344.504 57.2846C345.296 55.9164 346.376 54.8362 347.744 54.0441C349.137 53.252 350.685 52.8559 352.389 52.8559C353.733 52.8559 354.981 53.12 356.134 53.648C357.31 54.1521 358.306 54.8842 359.122 55.8444L356.53 58.4728C356.026 57.8727 355.413 57.4286 354.693 57.1406C353.997 56.8285 353.229 56.6725 352.389 56.6725C351.405 56.6725 350.529 56.9005 349.761 57.3566C349.017 57.7887 348.428 58.3888 347.996 59.1569C347.588 59.925 347.384 60.8251 347.384 61.8573C347.384 62.8655 347.588 63.7656 347.996 64.5577C348.428 65.3258 349.017 65.9379 349.761 66.394C350.529 66.8261 351.405 67.0421 352.389 67.0421C353.229 67.0421 353.997 66.8981 354.693 66.61C355.413 66.298 356.026 65.8419 356.53 65.2418L359.122 67.8702C358.306 68.8304 357.31 69.5745 356.134 70.1026C354.981 70.6066 353.733 70.8587 352.389 70.8587ZM361.977 70.4986V44.5746H365.938V70.4986H361.977ZM370.382 70.4986V53.216H374.343V70.4986H370.382ZM372.362 50.0475C371.69 50.0475 371.126 49.8195 370.67 49.3634C370.238 48.9073 370.022 48.3432 370.022 47.6711C370.022 46.999 370.238 46.4349 370.67 45.9789C371.126 45.5228 371.69 45.2948 372.362 45.2948C373.058 45.2948 373.622 45.5228 374.055 45.9789C374.487 46.4349 374.703 46.999 374.703 47.6711C374.703 48.3432 374.487 48.9073 374.055 49.3634C373.622 49.8195 373.058 50.0475 372.362 50.0475ZM386.742 70.8587C385.038 70.8587 383.489 70.4626 382.097 69.6705C380.729 68.8784 379.649 67.7982 378.857 66.43C378.065 65.0618 377.669 63.5376 377.669 61.8573C377.669 60.153 378.065 58.6288 378.857 57.2846C379.649 55.9164 380.729 54.8362 382.097 54.0441C383.489 53.252 385.038 52.8559 386.742 52.8559C388.086 52.8559 389.334 53.12 390.487 53.648C391.663 54.1521 392.659 54.8842 393.475 55.8444L390.883 58.4728C390.379 57.8727 389.766 57.4286 389.046 57.1406C388.35 56.8285 387.582 56.6725 386.742 56.6725C385.758 56.6725 384.882 56.9005 384.114 57.3566C383.369 57.7887 382.781 58.3888 382.349 59.1569C381.941 59.925 381.737 60.8251 381.737 61.8573C381.737 62.8655 381.941 63.7656 382.349 64.5577C382.781 65.3258 383.369 65.9379 384.114 66.394C384.882 66.8261 385.758 67.0421 386.742 67.0421C387.582 67.0421 388.35 66.8981 389.046 66.61C389.766 66.298 390.379 65.8419 390.883 65.2418L393.475 67.8702C392.659 68.8304 391.663 69.5745 390.487 70.1026C389.334 70.6066 388.086 70.8587 386.742 70.8587ZM407.312 70.4986L400.003 61.6773L407.276 53.216H411.993L403.64 62.7214L403.82 60.4531L412.353 70.4986H407.312ZM396.33 70.4986V44.5746H400.291V70.4986H396.33Z" fill="url(#paint0_linear_80_1082)"/>
<defs>
<linearGradient id="paint0_linear_80_1082" x1="-9.39866" y1="56.9966" x2="980.754" y2="56.9966" gradientUnits="userSpaceOnUse">
<stop stop-color="#901D6B"/>
<stop offset="1" stop-color="#901D6B"/>
</linearGradient>
</defs>
</svg>
