<?xml version="1.0" encoding="UTF-8"?>
<svg id="illustrazioni" xmlns="http://www.w3.org/2000/svg" xmlns:xlink="http://www.w3.org/1999/xlink" version="1.1" viewBox="0 0 201.19 341.25">
  <!-- Generator: Adobe Illustrator 29.8.1, SVG Export Plug-In . SVG Version: 2.1.1 Build 2)  -->
  <defs>
    <style>
      .st0 {
        fill: #d9abcf;
      }

      .st1 {
        fill: url(#Sfumatura_senza_nome_35);
      }

      .st2 {
        fill: url(#Sfumatura_senza_nome_37);
      }

      .st3 {
        fill: url(#Sfumatura_senza_nome_24);
      }

      .st4 {
        fill: #fff;
      }

      .st5 {
        fill: url(#Sfumatura_senza_nome_351);
      }
    </style>
    <linearGradient id="Sfumatura_senza_nome_35" data-name="Sfumatura senza nome 35" x1="129.93" y1="184.7" x2="101.4" y2="135.28" gradientUnits="userSpaceOnUse">
      <stop offset="0" stop-color="#d9abcf"/>
      <stop offset=".42" stop-color="#d8a9cd"/>
      <stop offset=".57" stop-color="#d4a2c8"/>
      <stop offset=".68" stop-color="#ce96c0"/>
      <stop offset=".76" stop-color="#c585b4"/>
      <stop offset=".84" stop-color="#ba6fa5"/>
      <stop offset=".91" stop-color="#ac5492"/>
      <stop offset=".96" stop-color="#9c347b"/>
      <stop offset="1" stop-color="#901d6b"/>
    </linearGradient>
    <linearGradient id="Sfumatura_senza_nome_351" data-name="Sfumatura senza nome 35" x1="95.16" y1="204.92" x2="66.62" y2="155.48" xlink:href="#Sfumatura_senza_nome_35"/>
    <linearGradient id="Sfumatura_senza_nome_37" data-name="Sfumatura senza nome 37" x1="46.25" y1="221.27" x2="112.22" y2="338.32" gradientUnits="userSpaceOnUse">
      <stop offset="0" stop-color="#bd6faa"/>
      <stop offset="1" stop-color="#901d6b"/>
    </linearGradient>
    <linearGradient id="Sfumatura_senza_nome_24" data-name="Sfumatura senza nome 24" x1="127.4" y1="152.87" x2="127.4" y2="0" gradientUnits="userSpaceOnUse">
      <stop offset="0" stop-color="#901d6b"/>
      <stop offset="1" stop-color="#bd6faa"/>
    </linearGradient>
  </defs>
  <path class="st0" d="M69.96,208.14l-8.35,4.92,4.92,8.35,8.35-4.92-4.92-8.35ZM130.77,118.34l-8.35,4.92,4.93,8.35,8.34-4.92-4.92-8.35Z"/>
  <g>
    <path class="st1" d="M173.96,146.3c-1.29,7.94-5.96,15.27-13.44,19.67l-85.64,50.52-4.92-8.35,85.64-50.51c2.34-1.38,4.26-3.19,5.72-5.29,2.33-3.32,3.5-7.33,3.32-11.37-.13-2.91-.96-5.84-2.54-8.52-5.16-8.74-16.43-11.65-25.18-6.49l-1.22.72-4.92-8.35,1.22-.72c13.35-7.88,30.56-3.44,38.44,9.91.92,1.55,1.66,3.15,2.25,4.79,1.64,4.56,2.03,9.37,1.27,13.98Z"/>
    <path class="st5" d="M61.61,213.07l4.92,8.35-2.72,1.61c-13.35,7.88-30.57,3.44-38.45-9.91-.29-.49-.57-.99-.81-1.49-2.29-4.48-3.27-9.31-3.05-14.04.42-9.15,5.3-17.92,13.78-22.91l87.14-51.41,4.93,8.35-87.15,51.4c-2.87,1.7-5.12,4.06-6.66,6.78-2.02,3.58-2.81,7.77-2.17,11.87.34,2.24,1.11,4.46,2.33,6.53,5.16,8.74,16.43,11.65,25.18,6.49l2.72-1.61Z"/>
  </g>
  <path class="st2" d="M123.5,298.92l-48.62-82.43-4.92-8.35-3.5-5.94c-6.82-11.57-20.65-16.44-32.9-12.42-2.02,3.58-2.81,7.77-2.17,11.87.5-.37,1.02-.71,1.56-1.03,8.74-5.15,20.02-2.25,25.17,6.5l3.5,5.94,4.92,8.35,48.62,82.43c5.16,8.74,2.25,20.01-6.49,25.17-8.75,5.16-20.02,2.25-25.18-6.5l-57.05-96.71c-2.63-4.45-3.16-9.57-1.89-14.19-2.29-4.48-3.27-9.31-3.05-14.04-8.07,8.86-9.82,22.28-3.41,33.15l57.05,96.71c7.88,13.35,25.09,17.79,38.45,9.91,13.35-7.88,17.79-25.08,9.91-38.44Z"/>
  <path class="st3" d="M180.1,110.52L123.05,13.81C115.17.46,97.96-3.98,84.61,3.9c-13.35,7.88-17.79,25.08-9.91,38.44l47.73,80.92,4.93,8.35,4.39,7.45c6.21,10.53,18.22,15.52,29.57,13.3,2.33-3.32,3.5-7.33,3.32-11.37-8.65,4.66-19.51,1.69-24.54-6.85l-4.4-7.45-4.92-8.35-47.73-80.92c-5.16-8.74-2.25-20.01,6.49-25.17,8.75-5.16,20.02-2.25,25.18,6.49l57.05,96.71c3.15,5.34,3.29,11.63.92,16.88,1.64,4.56,2.03,9.37,1.27,13.98,10.35-8.66,13.22-23.78,6.14-35.78Z"/>
  <path class="st4" d="M26.33,177.62h0c1.3,3.52,4.08,6.3,7.61,7.61h0s0,0,0,0c-3.52,1.3-6.3,4.08-7.61,7.61h0s0,0,0,0c-1.3-3.52-4.08-6.3-7.61-7.61h0s0,0,0,0c3.52-1.3,6.3-4.08,7.61-7.61h0Z"/>
  <path class="st4" d="M9.1,168.52h0c1.56,4.22,4.88,7.54,9.1,9.1h0s0,0,0,0c-4.22,1.56-7.54,4.88-9.1,9.1h0s0,0,0,0C7.54,182.51,4.22,179.18,0,177.62h0s0,0,0,0c4.22-1.56,7.54-4.88,9.1-9.1h0Z"/>
  <path class="st4" d="M12.05,189.8h0c1.14,3.09,3.58,5.53,6.67,6.67h0,0c-3.09,1.14-5.53,3.58-6.67,6.67h0s0,0,0,0c-1.14-3.09-3.58-5.53-6.67-6.67h0,0c3.09-1.14,5.53-3.58,6.67-6.67h0Z"/>
  <path class="st4" d="M185.89,144.07h0c1.3,3.52,4.08,6.3,7.61,7.61h0s0,0,0,0c-3.52,1.3-6.3,4.08-7.61,7.61h0s0,0,0,0c-1.3-3.52-4.08-6.3-7.61-7.61h0s0,0,0,0c3.52-1.3,6.3-4.08,7.61-7.61h0Z"/>
  <path class="st4" d="M179.7,125.71h0c1.56,4.22,4.88,7.54,9.1,9.1h0s0,0,0,0c-4.22,1.56-7.54,4.88-9.1,9.1h0s0,0,0,0c-1.56-4.22-4.88-7.54-9.1-9.1h0s0,0,0,0c4.22-1.56,7.54-4.88,9.1-9.1h0Z"/>
  <path class="st4" d="M195.48,123.26h0c.98,2.65,3.07,4.73,5.71,5.71h0,0c-2.65.98-4.73,3.07-5.71,5.71h0s0,0,0,0c-.98-2.65-3.07-4.73-5.71-5.71h0,0c2.65-.98,4.73-3.07,5.71-5.71h0Z"/>
  <path class="st4" d="M170.6,148.34h0c.94,2.54,2.94,4.53,5.47,5.47h0,0c-2.54.94-4.53,2.94-5.47,5.47h0s0,0,0,0c-.94-2.54-2.94-4.53-5.47-5.47h0,0c2.54-.94,4.53-2.94,5.47-5.47h0Z"/>
</svg>