<svg width="324" height="75" viewBox="0 0 324 75" fill="none" xmlns="http://www.w3.org/2000/svg">
<g filter="url(#filter0_d_80_1055)">
<path d="M4 25C4 11.1929 15.1929 0 29 0H295C308.807 0 320 11.1929 320 25V38C320 51.8071 308.807 63 295 63H4V25Z" fill="#390035"/>
</g>
<path d="M4 74.5V22L23.5 62.5L4 74.5Z" fill="#390035"/>
<path d="M29.6709 43V20.792H32.6789V43H29.6709ZM31.7189 33.24V30.488H43.3029V33.24H31.7189ZM31.7189 23.544V20.792H43.8469V23.544H31.7189ZM53.6341 43.32C52.1408 43.32 50.7968 42.968 49.6021 42.264C48.4075 41.56 47.4581 40.6107 46.7541 39.416C46.0501 38.2 45.6981 36.8453 45.6981 35.352C45.6981 33.88 46.0501 32.5573 46.7541 31.384C47.4581 30.1893 48.4075 29.24 49.6021 28.536C50.7968 27.832 52.1408 27.48 53.6341 27.48C55.1061 27.48 56.4395 27.832 57.6341 28.536C58.8501 29.2187 59.8101 30.1573 60.5141 31.352C61.2181 32.5467 61.5701 33.88 61.5701 35.352C61.5701 36.8453 61.2181 38.2 60.5141 39.416C59.8101 40.6107 58.8501 41.56 57.6341 42.264C56.4395 42.968 55.1061 43.32 53.6341 43.32ZM53.6341 40.536C54.5941 40.536 55.4475 40.312 56.1941 39.864C56.9408 39.416 57.5275 38.808 57.9541 38.04C58.3808 37.2507 58.5941 36.3547 58.5941 35.352C58.5941 34.3707 58.3701 33.496 57.9221 32.728C57.4955 31.96 56.9088 31.3627 56.1621 30.936C55.4368 30.488 54.5941 30.264 53.6341 30.264C52.6741 30.264 51.8208 30.488 51.0741 30.936C50.3275 31.3627 49.7408 31.96 49.3141 32.728C48.8875 33.496 48.6741 34.3707 48.6741 35.352C48.6741 36.3547 48.8875 37.2507 49.3141 38.04C49.7408 38.808 50.3275 39.416 51.0741 39.864C51.8208 40.312 52.6741 40.536 53.6341 40.536ZM64.8151 43V27.8H67.6951V43H64.8151ZM67.6951 34.328L66.6071 33.848C66.6071 31.9067 67.0551 30.36 67.9511 29.208C68.8471 28.056 70.1378 27.48 71.8231 27.48C72.5911 27.48 73.2845 27.6187 73.9031 27.896C74.5218 28.152 75.0978 28.5893 75.6311 29.208L73.7431 31.16C73.4231 30.8187 73.0711 30.5733 72.6871 30.424C72.3031 30.2747 71.8551 30.2 71.3431 30.2C70.2765 30.2 69.4018 30.5413 68.7191 31.224C68.0365 31.9067 67.6951 32.9413 67.6951 34.328ZM76.0991 41.432L85.1231 29.368H88.5151L79.4911 41.432H76.0991ZM76.0991 43V41.432L78.6591 40.376H88.3231V43H76.0991ZM76.6431 30.424V27.8H88.5151V29.368L85.8591 30.424H76.6431ZM97.8104 43.32C96.4237 43.32 95.165 42.9787 94.0344 42.296C92.9037 41.592 92.0077 40.6427 91.3464 39.448C90.7064 38.2533 90.3864 36.9093 90.3864 35.416C90.3864 33.9227 90.7064 32.5787 91.3464 31.384C92.0077 30.1893 92.893 29.24 94.0024 28.536C95.133 27.832 96.4024 27.48 97.8104 27.48C98.9624 27.48 99.9864 27.7253 100.882 28.216C101.8 28.6853 102.536 29.3467 103.09 30.2C103.645 31.032 103.954 32.0027 104.018 33.112V37.688C103.954 38.776 103.645 39.7467 103.09 40.6C102.557 41.4533 101.832 42.1253 100.914 42.616C100.018 43.0853 98.9837 43.32 97.8104 43.32ZM98.2904 40.6C99.7197 40.6 100.872 40.12 101.746 39.16C102.621 38.1787 103.058 36.9307 103.058 35.416C103.058 34.3707 102.856 33.464 102.45 32.696C102.066 31.9067 101.512 31.2987 100.786 30.872C100.061 30.424 99.2184 30.2 98.2584 30.2C97.2984 30.2 96.445 30.424 95.6984 30.872C94.973 31.32 94.397 31.9387 93.9704 32.728C93.565 33.496 93.3624 34.3813 93.3624 35.384C93.3624 36.408 93.565 37.3147 93.9704 38.104C94.397 38.872 94.9837 39.48 95.7304 39.928C96.477 40.376 97.3304 40.6 98.2904 40.6ZM102.866 43V38.904L103.41 35.192L102.866 31.512V27.8H105.778V43H102.866ZM123.572 43.32C122.078 43.32 120.724 42.968 119.508 42.264C118.313 41.56 117.364 40.6107 116.66 39.416C115.977 38.2 115.636 36.856 115.636 35.384C115.636 33.8907 115.977 32.5467 116.66 31.352C117.364 30.1573 118.313 29.2187 119.508 28.536C120.724 27.832 122.078 27.48 123.572 27.48C124.745 27.48 125.833 27.704 126.836 28.152C127.838 28.5787 128.702 29.208 129.428 30.04L127.508 31.96C127.038 31.4053 126.462 30.9893 125.78 30.712C125.118 30.4133 124.382 30.264 123.572 30.264C122.612 30.264 121.758 30.488 121.012 30.936C120.265 31.3627 119.678 31.96 119.252 32.728C118.825 33.496 118.612 34.3813 118.612 35.384C118.612 36.3867 118.825 37.272 119.252 38.04C119.678 38.808 120.265 39.416 121.012 39.864C121.758 40.312 122.612 40.536 123.572 40.536C124.382 40.536 125.118 40.3973 125.78 40.12C126.462 39.8213 127.049 39.3947 127.54 38.84L129.428 40.76C128.724 41.5707 127.86 42.2 126.836 42.648C125.833 43.096 124.745 43.32 123.572 43.32ZM138.947 43.32C137.453 43.32 136.109 42.968 134.915 42.264C133.72 41.56 132.771 40.6107 132.067 39.416C131.363 38.2 131.011 36.8453 131.011 35.352C131.011 33.88 131.363 32.5573 132.067 31.384C132.771 30.1893 133.72 29.24 134.915 28.536C136.109 27.832 137.453 27.48 138.947 27.48C140.419 27.48 141.752 27.832 142.947 28.536C144.163 29.2187 145.123 30.1573 145.827 31.352C146.531 32.5467 146.883 33.88 146.883 35.352C146.883 36.8453 146.531 38.2 145.827 39.416C145.123 40.6107 144.163 41.56 142.947 42.264C141.752 42.968 140.419 43.32 138.947 43.32ZM138.947 40.536C139.907 40.536 140.76 40.312 141.507 39.864C142.253 39.416 142.84 38.808 143.267 38.04C143.693 37.2507 143.907 36.3547 143.907 35.352C143.907 34.3707 143.683 33.496 143.235 32.728C142.808 31.96 142.221 31.3627 141.475 30.936C140.749 30.488 139.907 30.264 138.947 30.264C137.987 30.264 137.133 30.488 136.387 30.936C135.64 31.3627 135.053 31.96 134.627 32.728C134.2 33.496 133.987 34.3707 133.987 35.352C133.987 36.3547 134.2 37.2507 134.627 38.04C135.053 38.808 135.64 39.416 136.387 39.864C137.133 40.312 137.987 40.536 138.947 40.536ZM150.128 43V27.8H153.008V43H150.128ZM160.4 43V33.816C160.4 32.6853 160.048 31.8 159.344 31.16C158.661 30.4987 157.797 30.168 156.752 30.168C156.048 30.168 155.418 30.3173 154.864 30.616C154.309 30.9147 153.861 31.3307 153.52 31.864C153.178 32.3973 153.008 33.0373 153.008 33.784L151.824 33.208C151.824 32.056 152.069 31.0533 152.56 30.2C153.072 29.3467 153.765 28.6853 154.64 28.216C155.514 27.7253 156.496 27.48 157.584 27.48C158.65 27.48 159.61 27.7147 160.464 28.184C161.338 28.6533 162.021 29.3147 162.512 30.168C163.024 31.0213 163.28 32.0347 163.28 33.208V43H160.4ZM170.672 43V33.816C170.672 32.6853 170.32 31.8 169.616 31.16C168.933 30.4987 168.08 30.168 167.056 30.168C166.352 30.168 165.712 30.3173 165.136 30.616C164.581 30.9147 164.133 31.3307 163.792 31.864C163.45 32.3973 163.28 33.0373 163.28 33.784L161.648 33.208C161.712 32.0347 162.021 31.032 162.576 30.2C163.152 29.3467 163.888 28.6853 164.784 28.216C165.68 27.7253 166.661 27.48 167.728 27.48C168.837 27.48 169.829 27.7147 170.704 28.184C171.578 28.6533 172.272 29.3147 172.784 30.168C173.317 31.0213 173.584 32.0453 173.584 33.24V43H170.672ZM177.503 43V27.8H180.383V43H177.503ZM187.775 43V33.816C187.775 32.6853 187.423 31.8 186.719 31.16C186.036 30.4987 185.172 30.168 184.127 30.168C183.423 30.168 182.793 30.3173 182.239 30.616C181.684 30.9147 181.236 31.3307 180.895 31.864C180.553 32.3973 180.383 33.0373 180.383 33.784L179.199 33.208C179.199 32.056 179.444 31.0533 179.935 30.2C180.447 29.3467 181.14 28.6853 182.015 28.216C182.889 27.7253 183.871 27.48 184.959 27.48C186.025 27.48 186.985 27.7147 187.839 28.184C188.713 28.6533 189.396 29.3147 189.887 30.168C190.399 31.0213 190.655 32.0347 190.655 33.208V43H187.775ZM198.047 43V33.816C198.047 32.6853 197.695 31.8 196.991 31.16C196.308 30.4987 195.455 30.168 194.431 30.168C193.727 30.168 193.087 30.3173 192.511 30.616C191.956 30.9147 191.508 31.3307 191.167 31.864C190.825 32.3973 190.655 33.0373 190.655 33.784L189.023 33.208C189.087 32.0347 189.396 31.032 189.951 30.2C190.527 29.3467 191.263 28.6853 192.159 28.216C193.055 27.7253 194.036 27.48 195.103 27.48C196.212 27.48 197.204 27.7147 198.079 28.184C198.953 28.6533 199.647 29.3147 200.159 30.168C200.692 31.0213 200.959 32.0453 200.959 33.24V43H198.047ZM211.918 43.32C210.403 43.32 209.038 42.9787 207.822 42.296C206.606 41.592 205.646 40.6427 204.942 39.448C204.238 38.2533 203.886 36.8987 203.886 35.384C203.886 33.8907 204.227 32.5467 204.91 31.352C205.614 30.1573 206.552 29.2187 207.726 28.536C208.92 27.832 210.254 27.48 211.726 27.48C213.134 27.48 214.371 27.8 215.438 28.44C216.526 29.08 217.368 29.9653 217.966 31.096C218.584 32.2267 218.894 33.5067 218.894 34.936C218.894 35.1493 218.883 35.384 218.862 35.64C218.84 35.8747 218.798 36.152 218.734 36.472H205.902V34.072H217.198L216.142 35C216.142 33.976 215.96 33.112 215.598 32.408C215.235 31.6827 214.723 31.128 214.062 30.744C213.4 30.3387 212.6 30.136 211.662 30.136C210.68 30.136 209.816 30.3493 209.07 30.776C208.323 31.2027 207.747 31.8 207.342 32.568C206.936 33.336 206.734 34.2427 206.734 35.288C206.734 36.3547 206.947 37.2933 207.374 38.104C207.8 38.8933 208.408 39.512 209.198 39.96C209.987 40.3867 210.894 40.6 211.918 40.6C212.771 40.6 213.55 40.4507 214.254 40.152C214.979 39.8533 215.598 39.4053 216.11 38.808L217.966 40.696C217.24 41.5493 216.344 42.2 215.278 42.648C214.232 43.096 213.112 43.32 211.918 43.32ZM222.034 43V27.8H224.914V43H222.034ZM224.914 34.328L223.826 33.848C223.826 31.9067 224.274 30.36 225.17 29.208C226.066 28.056 227.357 27.48 229.042 27.48C229.81 27.48 230.503 27.6187 231.122 27.896C231.741 28.152 232.317 28.5893 232.85 29.208L230.962 31.16C230.642 30.8187 230.29 30.5733 229.906 30.424C229.522 30.2747 229.074 30.2 228.562 30.2C227.495 30.2 226.621 30.5413 225.938 31.224C225.255 31.9067 224.914 32.9413 224.914 34.328ZM241.322 43.32C239.828 43.32 238.474 42.968 237.258 42.264C236.063 41.56 235.114 40.6107 234.41 39.416C233.727 38.2 233.386 36.856 233.386 35.384C233.386 33.8907 233.727 32.5467 234.41 31.352C235.114 30.1573 236.063 29.2187 237.258 28.536C238.474 27.832 239.828 27.48 241.322 27.48C242.495 27.48 243.583 27.704 244.586 28.152C245.588 28.5787 246.452 29.208 247.178 30.04L245.258 31.96C244.788 31.4053 244.212 30.9893 243.53 30.712C242.868 30.4133 242.132 30.264 241.322 30.264C240.362 30.264 239.508 30.488 238.762 30.936C238.015 31.3627 237.428 31.96 237.002 32.728C236.575 33.496 236.362 34.3813 236.362 35.384C236.362 36.3867 236.575 37.272 237.002 38.04C237.428 38.808 238.015 39.416 238.762 39.864C239.508 40.312 240.362 40.536 241.322 40.536C242.132 40.536 242.868 40.3973 243.53 40.12C244.212 39.8213 244.799 39.3947 245.29 38.84L247.178 40.76C246.474 41.5707 245.61 42.2 244.586 42.648C243.583 43.096 242.495 43.32 241.322 43.32ZM250.066 43V27.8H252.946V43H250.066ZM251.506 24.76C250.973 24.76 250.535 24.5893 250.194 24.248C249.853 23.8853 249.682 23.4373 249.682 22.904C249.682 22.392 249.853 21.9653 250.194 21.624C250.535 21.2613 250.973 21.08 251.506 21.08C252.039 21.08 252.477 21.2613 252.818 21.624C253.159 21.9653 253.33 22.392 253.33 22.904C253.33 23.4373 253.159 23.8853 252.818 24.248C252.477 24.5893 252.039 24.76 251.506 24.76ZM263.654 43.32C262.267 43.32 261.009 42.9787 259.878 42.296C258.747 41.592 257.851 40.6427 257.19 39.448C256.55 38.2533 256.23 36.9093 256.23 35.416C256.23 33.9227 256.55 32.5787 257.19 31.384C257.851 30.1893 258.737 29.24 259.846 28.536C260.977 27.832 262.246 27.48 263.654 27.48C264.806 27.48 265.83 27.7253 266.726 28.216C267.643 28.6853 268.379 29.3467 268.934 30.2C269.489 31.032 269.798 32.0027 269.862 33.112V37.688C269.798 38.776 269.489 39.7467 268.934 40.6C268.401 41.4533 267.675 42.1253 266.758 42.616C265.862 43.0853 264.827 43.32 263.654 43.32ZM264.134 40.6C265.563 40.6 266.715 40.12 267.59 39.16C268.465 38.1787 268.902 36.9307 268.902 35.416C268.902 34.3707 268.699 33.464 268.294 32.696C267.91 31.9067 267.355 31.2987 266.63 30.872C265.905 30.424 265.062 30.2 264.102 30.2C263.142 30.2 262.289 30.424 261.542 30.872C260.817 31.32 260.241 31.9387 259.814 32.728C259.409 33.496 259.206 34.3813 259.206 35.384C259.206 36.408 259.409 37.3147 259.814 38.104C260.241 38.872 260.827 39.48 261.574 39.928C262.321 40.376 263.174 40.6 264.134 40.6ZM268.71 43V38.904L269.254 35.192L268.71 31.512V27.8H271.622V43H268.71ZM275.815 43V20.152H278.695V43H275.815ZM289.949 43.32C288.434 43.32 287.069 42.9787 285.853 42.296C284.637 41.592 283.677 40.6427 282.973 39.448C282.269 38.2533 281.917 36.8987 281.917 35.384C281.917 33.8907 282.258 32.5467 282.941 31.352C283.645 30.1573 284.584 29.2187 285.757 28.536C286.952 27.832 288.285 27.48 289.757 27.48C291.165 27.48 292.402 27.8 293.469 28.44C294.557 29.08 295.4 29.9653 295.997 31.096C296.616 32.2267 296.925 33.5067 296.925 34.936C296.925 35.1493 296.914 35.384 296.893 35.64C296.872 35.8747 296.829 36.152 296.765 36.472H283.933V34.072H295.229L294.173 35C294.173 33.976 293.992 33.112 293.629 32.408C293.266 31.6827 292.754 31.128 292.093 30.744C291.432 30.3387 290.632 30.136 289.693 30.136C288.712 30.136 287.848 30.3493 287.101 30.776C286.354 31.2027 285.778 31.8 285.373 32.568C284.968 33.336 284.765 34.2427 284.765 35.288C284.765 36.3547 284.978 37.2933 285.405 38.104C285.832 38.8933 286.44 39.512 287.229 39.96C288.018 40.3867 288.925 40.6 289.949 40.6C290.802 40.6 291.581 40.4507 292.285 40.152C293.01 39.8533 293.629 39.4053 294.141 38.808L295.997 40.696C295.272 41.5493 294.376 42.2 293.309 42.648C292.264 43.096 291.144 43.32 289.949 43.32Z" fill="white"/>
<defs>
<filter id="filter0_d_80_1055" x="0" y="0" width="324" height="71" filterUnits="userSpaceOnUse" color-interpolation-filters="sRGB">
<feFlood flood-opacity="0" result="BackgroundImageFix"/>
<feColorMatrix in="SourceAlpha" type="matrix" values="0 0 0 0 0 0 0 0 0 0 0 0 0 0 0 0 0 0 127 0" result="hardAlpha"/>
<feOffset dy="4"/>
<feGaussianBlur stdDeviation="2"/>
<feComposite in2="hardAlpha" operator="out"/>
<feColorMatrix type="matrix" values="0 0 0 0 0 0 0 0 0 0 0 0 0 0 0 0 0 0 0.25 0"/>
<feBlend mode="normal" in2="BackgroundImageFix" result="effect1_dropShadow_80_1055"/>
<feBlend mode="normal" in="SourceGraphic" in2="effect1_dropShadow_80_1055" result="shape"/>
</filter>
</defs>
</svg>