<svg width="371" height="83" viewBox="0 0 371 83" fill="none" xmlns="http://www.w3.org/2000/svg">
<g filter="url(#filter0_d_80_1048)">
<path d="M367 25C367 11.1929 355.807 0 342 0H29C15.1929 0 4 11.1929 4 25V38C4 51.8071 15.1929 63 29 63H367V25Z" fill="white"/>
<path d="M367 74.5V22L347.5 62.5L367 74.5Z" fill="white"/>
</g>
<path d="M29.749 43V20.792H32.757V43H29.749ZM48.239 43V34.136C48.239 32.984 47.8763 32.0347 47.151 31.288C46.4257 30.5413 45.487 30.168 44.335 30.168C43.567 30.168 42.8843 30.3387 42.287 30.68C41.6897 31.0213 41.2203 31.4907 40.879 32.088C40.5377 32.6853 40.367 33.368 40.367 34.136L39.183 33.464C39.183 32.312 39.439 31.288 39.951 30.392C40.463 29.496 41.1777 28.792 42.095 28.28C43.0123 27.7467 44.047 27.48 45.199 27.48C46.351 27.48 47.3643 27.768 48.239 28.344C49.135 28.92 49.839 29.6773 50.351 30.616C50.863 31.5333 51.119 32.5147 51.119 33.56V43H48.239ZM37.487 43V27.8H40.367V43H37.487ZM57.1668 43V21.432H60.0468V43H57.1668ZM53.4228 30.424V27.8H63.7908V30.424H53.4228ZM73.1833 43.32C71.6686 43.32 70.3033 42.9787 69.0873 42.296C67.8713 41.592 66.9113 40.6427 66.2073 39.448C65.5033 38.2533 65.1513 36.8987 65.1513 35.384C65.1513 33.8907 65.4926 32.5467 66.1753 31.352C66.8793 30.1573 67.8179 29.2187 68.9913 28.536C70.1859 27.832 71.5193 27.48 72.9913 27.48C74.3993 27.48 75.6366 27.8 76.7033 28.44C77.7913 29.08 78.6339 29.9653 79.2313 31.096C79.8499 32.2267 80.1593 33.5067 80.1593 34.936C80.1593 35.1493 80.1486 35.384 80.1273 35.64C80.1059 35.8747 80.0633 36.152 79.9993 36.472H67.1673V34.072H78.4633L77.4073 35C77.4073 33.976 77.2259 33.112 76.8633 32.408C76.5006 31.6827 75.9886 31.128 75.3273 30.744C74.6659 30.3387 73.8659 30.136 72.9273 30.136C71.9459 30.136 71.0819 30.3493 70.3353 30.776C69.5886 31.2027 69.0126 31.8 68.6073 32.568C68.2019 33.336 67.9993 34.2427 67.9993 35.288C67.9993 36.3547 68.2126 37.2933 68.6393 38.104C69.0659 38.8933 69.6739 39.512 70.4633 39.96C71.2526 40.3867 72.1593 40.6 73.1833 40.6C74.0366 40.6 74.8153 40.4507 75.5193 40.152C76.2446 39.8533 76.8633 39.4053 77.3753 38.808L79.2313 40.696C78.5059 41.5493 77.6099 42.2 76.5433 42.648C75.4979 43.096 74.3779 43.32 73.1833 43.32ZM89.6035 49.688C88.0462 49.688 86.6595 49.4 85.4435 48.824C84.2488 48.248 83.2888 47.4373 82.5635 46.392L84.4195 44.504C85.0382 45.2933 85.7742 45.8907 86.6275 46.296C87.4808 46.7227 88.4942 46.936 89.6675 46.936C91.2248 46.936 92.4515 46.52 93.3475 45.688C94.2648 44.8773 94.7235 43.7787 94.7235 42.392V38.616L95.2355 35.192L94.7235 31.8V27.8H97.6035V42.392C97.6035 43.8427 97.2622 45.112 96.5795 46.2C95.9182 47.288 94.9795 48.1413 93.7635 48.76C92.5688 49.3787 91.1822 49.688 89.6035 49.688ZM89.6035 42.744C88.2168 42.744 86.9688 42.4133 85.8595 41.752C84.7715 41.0907 83.9075 40.184 83.2675 39.032C82.6275 37.8587 82.3075 36.5467 82.3075 35.096C82.3075 33.6453 82.6275 32.3547 83.2675 31.224C83.9075 30.072 84.7715 29.1653 85.8595 28.504C86.9688 27.8213 88.2168 27.48 89.6035 27.48C90.7982 27.48 91.8542 27.7147 92.7715 28.184C93.6888 28.6533 94.4142 29.3147 94.9475 30.168C95.5022 31 95.8008 31.9813 95.8435 33.112V37.144C95.7795 38.2533 95.4702 39.2347 94.9155 40.088C94.3822 40.92 93.6568 41.5707 92.7395 42.04C91.8222 42.5093 90.7768 42.744 89.6035 42.744ZM90.1795 40.024C91.1182 40.024 91.9395 39.8213 92.6435 39.416C93.3688 39.0107 93.9235 38.4453 94.3075 37.72C94.6915 36.9733 94.8835 36.1093 94.8835 35.128C94.8835 34.1467 94.6808 33.2933 94.2755 32.568C93.8915 31.8213 93.3475 31.2453 92.6435 30.84C91.9395 30.4133 91.1075 30.2 90.1475 30.2C89.1875 30.2 88.3448 30.4133 87.6195 30.84C86.8942 31.2453 86.3182 31.8213 85.8915 32.568C85.4862 33.2933 85.2835 34.136 85.2835 35.096C85.2835 36.056 85.4862 36.9093 85.8915 37.656C86.3182 38.4027 86.8942 38.9893 87.6195 39.416C88.3662 39.8213 89.2195 40.024 90.1795 40.024ZM101.831 43V27.8H104.711V43H101.831ZM104.711 34.328L103.623 33.848C103.623 31.9067 104.071 30.36 104.967 29.208C105.863 28.056 107.153 27.48 108.839 27.48C109.607 27.48 110.3 27.6187 110.919 27.896C111.537 28.152 112.113 28.5893 112.647 29.208L110.759 31.16C110.439 30.8187 110.087 30.5733 109.703 30.424C109.319 30.2747 108.871 30.2 108.359 30.2C107.292 30.2 106.417 30.5413 105.735 31.224C105.052 31.9067 104.711 32.9413 104.711 34.328ZM120.639 43.32C119.252 43.32 117.993 42.9787 116.863 42.296C115.732 41.592 114.836 40.6427 114.174 39.448C113.535 38.2533 113.215 36.9093 113.215 35.416C113.215 33.9227 113.535 32.5787 114.174 31.384C114.836 30.1893 115.721 29.24 116.831 28.536C117.961 27.832 119.231 27.48 120.639 27.48C121.791 27.48 122.815 27.7253 123.711 28.216C124.628 28.6853 125.364 29.3467 125.919 30.2C126.473 31.032 126.783 32.0027 126.847 33.112V37.688C126.783 38.776 126.473 39.7467 125.919 40.6C125.385 41.4533 124.66 42.1253 123.743 42.616C122.847 43.0853 121.812 43.32 120.639 43.32ZM121.119 40.6C122.548 40.6 123.7 40.12 124.575 39.16C125.449 38.1787 125.887 36.9307 125.887 35.416C125.887 34.3707 125.684 33.464 125.279 32.696C124.895 31.9067 124.34 31.2987 123.615 30.872C122.889 30.424 122.047 30.2 121.087 30.2C120.127 30.2 119.273 30.424 118.527 30.872C117.801 31.32 117.225 31.9387 116.799 32.728C116.393 33.496 116.191 34.3813 116.191 35.384C116.191 36.408 116.393 37.3147 116.799 38.104C117.225 38.872 117.812 39.48 118.559 39.928C119.305 40.376 120.159 40.6 121.119 40.6ZM125.695 43V38.904L126.239 35.192L125.695 31.512V27.8H128.607V43H125.695ZM131.584 41.432L140.608 29.368H144L134.976 41.432H131.584ZM131.584 43V41.432L134.144 40.376H143.808V43H131.584ZM132.128 30.424V27.8H144V29.368L141.344 30.424H132.128ZM147.144 43V27.8H150.024V43H147.144ZM148.584 24.76C148.051 24.76 147.613 24.5893 147.272 24.248C146.931 23.8853 146.76 23.4373 146.76 22.904C146.76 22.392 146.931 21.9653 147.272 21.624C147.613 21.2613 148.051 21.08 148.584 21.08C149.117 21.08 149.555 21.2613 149.896 21.624C150.237 21.9653 150.408 22.392 150.408 22.904C150.408 23.4373 150.237 23.8853 149.896 24.248C149.555 24.5893 149.117 24.76 148.584 24.76ZM161.212 43.32C159.719 43.32 158.375 42.968 157.18 42.264C155.986 41.56 155.036 40.6107 154.332 39.416C153.628 38.2 153.276 36.8453 153.276 35.352C153.276 33.88 153.628 32.5573 154.332 31.384C155.036 30.1893 155.986 29.24 157.18 28.536C158.375 27.832 159.719 27.48 161.212 27.48C162.684 27.48 164.018 27.832 165.212 28.536C166.428 29.2187 167.388 30.1573 168.092 31.352C168.796 32.5467 169.148 33.88 169.148 35.352C169.148 36.8453 168.796 38.2 168.092 39.416C167.388 40.6107 166.428 41.56 165.212 42.264C164.018 42.968 162.684 43.32 161.212 43.32ZM161.212 40.536C162.172 40.536 163.026 40.312 163.772 39.864C164.519 39.416 165.106 38.808 165.532 38.04C165.959 37.2507 166.172 36.3547 166.172 35.352C166.172 34.3707 165.948 33.496 165.5 32.728C165.074 31.96 164.487 31.3627 163.74 30.936C163.015 30.488 162.172 30.264 161.212 30.264C160.252 30.264 159.399 30.488 158.652 30.936C157.906 31.3627 157.319 31.96 156.892 32.728C156.466 33.496 156.252 34.3707 156.252 35.352C156.252 36.3547 156.466 37.2507 156.892 38.04C157.319 38.808 157.906 39.416 158.652 39.864C159.399 40.312 160.252 40.536 161.212 40.536ZM183.145 43V34.136C183.145 32.984 182.783 32.0347 182.057 31.288C181.332 30.5413 180.393 30.168 179.241 30.168C178.473 30.168 177.791 30.3387 177.193 30.68C176.596 31.0213 176.127 31.4907 175.785 32.088C175.444 32.6853 175.273 33.368 175.273 34.136L174.089 33.464C174.089 32.312 174.345 31.288 174.857 30.392C175.369 29.496 176.084 28.792 177.001 28.28C177.919 27.7467 178.953 27.48 180.105 27.48C181.257 27.48 182.271 27.768 183.145 28.344C184.041 28.92 184.745 29.6773 185.257 30.616C185.769 31.5333 186.025 32.5147 186.025 33.56V43H183.145ZM172.393 43V27.8H175.273V43H172.393ZM196.965 43.32C195.45 43.32 194.085 42.9787 192.869 42.296C191.653 41.592 190.693 40.6427 189.989 39.448C189.285 38.2533 188.933 36.8987 188.933 35.384C188.933 33.8907 189.274 32.5467 189.957 31.352C190.661 30.1573 191.599 29.2187 192.773 28.536C193.967 27.832 195.301 27.48 196.773 27.48C198.181 27.48 199.418 27.8 200.485 28.44C201.573 29.08 202.415 29.9653 203.013 31.096C203.631 32.2267 203.941 33.5067 203.941 34.936C203.941 35.1493 203.93 35.384 203.909 35.64C203.887 35.8747 203.845 36.152 203.781 36.472H190.949V34.072H202.245L201.189 35C201.189 33.976 201.007 33.112 200.645 32.408C200.282 31.6827 199.77 31.128 199.109 30.744C198.447 30.3387 197.647 30.136 196.709 30.136C195.727 30.136 194.863 30.3493 194.117 30.776C193.37 31.2027 192.794 31.8 192.389 32.568C191.983 33.336 191.781 34.2427 191.781 35.288C191.781 36.3547 191.994 37.2933 192.421 38.104C192.847 38.8933 193.455 39.512 194.245 39.96C195.034 40.3867 195.941 40.6 196.965 40.6C197.818 40.6 198.597 40.4507 199.301 40.152C200.026 39.8533 200.645 39.4053 201.157 38.808L203.013 40.696C202.287 41.5493 201.391 42.2 200.325 42.648C199.279 43.096 198.159 43.32 196.965 43.32ZM220.681 43.32C219.188 43.32 217.833 42.968 216.617 42.264C215.422 41.56 214.473 40.6107 213.769 39.416C213.086 38.2 212.745 36.856 212.745 35.384C212.745 33.8907 213.086 32.5467 213.769 31.352C214.473 30.1573 215.422 29.2187 216.617 28.536C217.833 27.832 219.188 27.48 220.681 27.48C221.854 27.48 222.942 27.704 223.945 28.152C224.948 28.5787 225.812 29.208 226.537 30.04L224.617 31.96C224.148 31.4053 223.572 30.9893 222.889 30.712C222.228 30.4133 221.492 30.264 220.681 30.264C219.721 30.264 218.868 30.488 218.121 30.936C217.374 31.3627 216.788 31.96 216.361 32.728C215.934 33.496 215.721 34.3813 215.721 35.384C215.721 36.3867 215.934 37.272 216.361 38.04C216.788 38.808 217.374 39.416 218.121 39.864C218.868 40.312 219.721 40.536 220.681 40.536C221.492 40.536 222.228 40.3973 222.889 40.12C223.572 39.8213 224.158 39.3947 224.649 38.84L226.537 40.76C225.833 41.5707 224.969 42.2 223.945 42.648C222.942 43.096 221.854 43.32 220.681 43.32ZM236.056 43.32C234.563 43.32 233.219 42.968 232.024 42.264C230.829 41.56 229.88 40.6107 229.176 39.416C228.472 38.2 228.12 36.8453 228.12 35.352C228.12 33.88 228.472 32.5573 229.176 31.384C229.88 30.1893 230.829 29.24 232.024 28.536C233.219 27.832 234.563 27.48 236.056 27.48C237.528 27.48 238.861 27.832 240.056 28.536C241.272 29.2187 242.232 30.1573 242.936 31.352C243.64 32.5467 243.992 33.88 243.992 35.352C243.992 36.8453 243.64 38.2 242.936 39.416C242.232 40.6107 241.272 41.56 240.056 42.264C238.861 42.968 237.528 43.32 236.056 43.32ZM236.056 40.536C237.016 40.536 237.869 40.312 238.616 39.864C239.363 39.416 239.949 38.808 240.376 38.04C240.803 37.2507 241.016 36.3547 241.016 35.352C241.016 34.3707 240.792 33.496 240.344 32.728C239.917 31.96 239.331 31.3627 238.584 30.936C237.859 30.488 237.016 30.264 236.056 30.264C235.096 30.264 234.243 30.488 233.496 30.936C232.749 31.3627 232.163 31.96 231.736 32.728C231.309 33.496 231.096 34.3707 231.096 35.352C231.096 36.3547 231.309 37.2507 231.736 38.04C232.163 38.808 232.749 39.416 233.496 39.864C234.243 40.312 235.096 40.536 236.056 40.536ZM247.237 43V27.8H250.117V43H247.237ZM257.509 43V33.816C257.509 32.6853 257.157 31.8 256.453 31.16C255.77 30.4987 254.906 30.168 253.861 30.168C253.157 30.168 252.528 30.3173 251.973 30.616C251.418 30.9147 250.97 31.3307 250.629 31.864C250.288 32.3973 250.117 33.0373 250.117 33.784L248.933 33.208C248.933 32.056 249.178 31.0533 249.669 30.2C250.181 29.3467 250.874 28.6853 251.749 28.216C252.624 27.7253 253.605 27.48 254.693 27.48C255.76 27.48 256.72 27.7147 257.573 28.184C258.448 28.6533 259.13 29.3147 259.621 30.168C260.133 31.0213 260.389 32.0347 260.389 33.208V43H257.509ZM267.781 43V33.816C267.781 32.6853 267.429 31.8 266.725 31.16C266.042 30.4987 265.189 30.168 264.165 30.168C263.461 30.168 262.821 30.3173 262.245 30.616C261.69 30.9147 261.242 31.3307 260.901 31.864C260.56 32.3973 260.389 33.0373 260.389 33.784L258.757 33.208C258.821 32.0347 259.13 31.032 259.685 30.2C260.261 29.3467 260.997 28.6853 261.893 28.216C262.789 27.7253 263.77 27.48 264.837 27.48C265.946 27.48 266.938 27.7147 267.813 28.184C268.688 28.6533 269.381 29.3147 269.893 30.168C270.426 31.0213 270.693 32.0453 270.693 33.24V43H267.781ZM282.612 43.32C281.46 43.32 280.415 43.0853 279.476 42.616C278.559 42.1253 277.823 41.4533 277.268 40.6C276.713 39.7467 276.404 38.776 276.34 37.688V33.112C276.404 32.0027 276.713 31.032 277.268 30.2C277.844 29.3467 278.591 28.6853 279.508 28.216C280.447 27.7253 281.481 27.48 282.612 27.48C283.999 27.48 285.247 27.832 286.356 28.536C287.487 29.24 288.372 30.1893 289.012 31.384C289.652 32.5787 289.972 33.9227 289.972 35.416C289.972 36.9093 289.652 38.2533 289.012 39.448C288.372 40.6427 287.487 41.592 286.356 42.296C285.247 42.9787 283.999 43.32 282.612 43.32ZM282.132 40.6C283.092 40.6 283.935 40.376 284.66 39.928C285.385 39.48 285.961 38.872 286.388 38.104C286.815 37.3147 287.028 36.408 287.028 35.384C287.028 34.3813 286.815 33.4853 286.388 32.696C285.961 31.9067 285.385 31.2987 284.66 30.872C283.935 30.424 283.103 30.2 282.164 30.2C281.204 30.2 280.361 30.424 279.636 30.872C278.911 31.2987 278.345 31.9067 277.94 32.696C277.535 33.4853 277.332 34.392 277.332 35.416C277.332 36.4187 277.524 37.3147 277.908 38.104C278.313 38.872 278.879 39.48 279.604 39.928C280.351 40.376 281.193 40.6 282.132 40.6ZM274.612 49.368V27.8H277.492V31.8L276.948 35.48L277.492 39.192V49.368H274.612ZM293.237 43V20.152H296.117V43H293.237ZM307.371 43.32C305.856 43.32 304.491 42.9787 303.275 42.296C302.059 41.592 301.099 40.6427 300.395 39.448C299.691 38.2533 299.339 36.8987 299.339 35.384C299.339 33.8907 299.68 32.5467 300.363 31.352C301.067 30.1573 302.005 29.2187 303.179 28.536C304.373 27.832 305.707 27.48 307.179 27.48C308.587 27.48 309.824 27.8 310.891 28.44C311.979 29.08 312.821 29.9653 313.419 31.096C314.037 32.2267 314.347 33.5067 314.347 34.936C314.347 35.1493 314.336 35.384 314.315 35.64C314.293 35.8747 314.251 36.152 314.187 36.472H301.355V34.072H312.651L311.595 35C311.595 33.976 311.413 33.112 311.051 32.408C310.688 31.6827 310.176 31.128 309.515 30.744C308.853 30.3387 308.053 30.136 307.115 30.136C306.133 30.136 305.269 30.3493 304.523 30.776C303.776 31.2027 303.2 31.8 302.795 32.568C302.389 33.336 302.187 34.2427 302.187 35.288C302.187 36.3547 302.4 37.2933 302.827 38.104C303.253 38.8933 303.861 39.512 304.651 39.96C305.44 40.3867 306.347 40.6 307.371 40.6C308.224 40.6 309.003 40.4507 309.707 40.152C310.432 39.8533 311.051 39.4053 311.563 38.808L313.419 40.696C312.693 41.5493 311.797 42.2 310.731 42.648C309.685 43.096 308.565 43.32 307.371 43.32ZM319.386 43V21.432H322.266V43H319.386ZM315.642 30.424V27.8H326.01V30.424H315.642ZM334.826 43.32C333.439 43.32 332.181 42.9787 331.05 42.296C329.919 41.592 329.023 40.6427 328.362 39.448C327.722 38.2533 327.402 36.9093 327.402 35.416C327.402 33.9227 327.722 32.5787 328.362 31.384C329.023 30.1893 329.909 29.24 331.018 28.536C332.149 27.832 333.418 27.48 334.826 27.48C335.978 27.48 337.002 27.7253 337.898 28.216C338.815 28.6853 339.551 29.3467 340.106 30.2C340.661 31.032 340.97 32.0027 341.034 33.112V37.688C340.97 38.776 340.661 39.7467 340.106 40.6C339.573 41.4533 338.847 42.1253 337.93 42.616C337.034 43.0853 335.999 43.32 334.826 43.32ZM335.306 40.6C336.735 40.6 337.887 40.12 338.762 39.16C339.637 38.1787 340.074 36.9307 340.074 35.416C340.074 34.3707 339.871 33.464 339.466 32.696C339.082 31.9067 338.527 31.2987 337.802 30.872C337.077 30.424 336.234 30.2 335.274 30.2C334.314 30.2 333.461 30.424 332.714 30.872C331.989 31.32 331.413 31.9387 330.986 32.728C330.581 33.496 330.378 34.3813 330.378 35.384C330.378 36.408 330.581 37.3147 330.986 38.104C331.413 38.872 331.999 39.48 332.746 39.928C333.493 40.376 334.346 40.6 335.306 40.6ZM339.882 43V38.904L340.426 35.192L339.882 31.512V27.8H342.794V43H339.882Z" fill="#901D6B"/>
<defs>
<filter id="filter0_d_80_1048" x="0" y="0" width="371" height="82.5" filterUnits="userSpaceOnUse" color-interpolation-filters="sRGB">
<feFlood flood-opacity="0" result="BackgroundImageFix"/>
<feColorMatrix in="SourceAlpha" type="matrix" values="0 0 0 0 0 0 0 0 0 0 0 0 0 0 0 0 0 0 127 0" result="hardAlpha"/>
<feOffset dy="4"/>
<feGaussianBlur stdDeviation="2"/>
<feComposite in2="hardAlpha" operator="out"/>
<feColorMatrix type="matrix" values="0 0 0 0 0 0 0 0 0 0 0 0 0 0 0 0 0 0 0.25 0"/>
<feBlend mode="normal" in2="BackgroundImageFix" result="effect1_dropShadow_80_1048"/>
<feBlend mode="normal" in="SourceGraphic" in2="effect1_dropShadow_80_1048" result="shape"/>
</filter>
</defs>
</svg>